<svg width="36" height="37" viewBox="0 0 36 37" fill="none" xmlns="http://www.w3.org/2000/svg">
<path d="M32.7594 12.6811C31.0113 12.6811 29.5892 14.1032 29.5892 15.8513V27.9688C29.5892 28.5515 29.1151 29.0256 28.5324 29.0256C27.9497 29.0256 27.4756 28.5515 27.4756 27.9688V10.9198C27.4756 9.17172 26.0535 7.74954 24.3054 7.74954C22.5573 7.74954 21.1351 9.17172 21.1351 10.9198V32.9003C21.1351 33.483 20.661 33.9571 20.0784 33.9571C19.4957 33.9571 19.0216 33.483 19.0216 32.9003V3.17027C19.0216 1.42218 17.5994 0 15.8513 0C14.1032 0 12.6811 1.42218 12.6811 3.17027V28.6733C12.6811 29.256 12.207 29.7301 11.6243 29.7301C11.0416 29.7301 10.5676 29.256 10.5676 28.6733V7.39729C10.5676 5.6492 9.14537 4.22702 7.39729 4.22702C5.6492 4.22702 4.22702 5.6492 4.22702 7.39729V21.6283C4.22702 22.211 3.75296 22.685 3.17027 22.685C2.58757 22.685 2.11351 22.211 2.11351 21.6283V15.1468C2.11351 14.5632 1.64037 14.0901 1.05676 14.0901C0.473145 14.0901 0 14.5632 0 15.1468V21.6283C0 23.3763 1.42218 24.7985 3.17027 24.7985C4.91835 24.7985 6.34053 23.3763 6.34053 21.6283V7.39729C6.34053 6.81459 6.81459 6.34053 7.39729 6.34053C7.97998 6.34053 8.45404 6.81459 8.45404 7.39729V28.6733C8.45404 30.4214 9.87623 31.8436 11.6243 31.8436C13.3724 31.8436 14.7946 30.4214 14.7946 28.6733V3.17027C14.7946 2.58757 15.2686 2.11351 15.8513 2.11351C16.434 2.11351 16.9081 2.58757 16.9081 3.17027V32.9003C16.9081 34.6484 18.3303 36.0706 20.0784 36.0706C21.8264 36.0706 23.2486 34.6484 23.2486 32.9003V10.9198C23.2486 10.3371 23.7227 9.86305 24.3054 9.86305C24.8881 9.86305 25.3621 10.3371 25.3621 10.9198V27.9688C25.3621 29.7169 26.7843 31.1391 28.5324 31.1391C30.2805 31.1391 31.7027 29.7169 31.7027 27.9688V15.8513C31.7027 15.2686 32.1767 14.7946 32.7594 14.7946C33.3421 14.7946 33.8162 15.2686 33.8162 15.8513V20.9238C33.8162 21.5074 34.2893 21.9805 34.8729 21.9805C35.4565 21.9805 35.9297 21.5074 35.9297 20.9238V15.8513C35.9297 14.1032 34.5075 12.6811 32.7594 12.6811Z" fill="#092948"/>
</svg>
