<svg width="270" height="300" viewBox="0 0 270 300" fill="none" xmlns="http://www.w3.org/2000/svg">
<path d="M229.191 245.651C231.622 241.441 230.179 236.056 225.968 233.625C221.757 231.193 216.373 232.636 213.942 236.847L187.529 282.594C185.097 286.805 186.54 292.19 190.751 294.621C194.962 297.052 200.346 295.61 202.778 291.399L229.191 245.651Z" fill="#00B6F1"/>
<path d="M176.367 245.651C178.799 241.441 177.356 236.056 173.145 233.625C168.934 231.193 163.55 232.636 161.118 236.847L134.705 282.594C132.274 286.805 133.717 292.19 137.928 294.621C142.139 297.052 147.523 295.61 149.954 291.399L176.367 245.651Z" fill="#00B6F1"/>
<path d="M123.541 245.651C125.973 241.441 124.53 236.056 120.319 233.625C116.108 231.193 110.723 232.636 108.292 236.847L81.8792 282.594C79.4479 286.805 80.8906 292.19 85.1016 294.621C89.3125 297.052 94.697 295.61 97.1283 291.399L123.541 245.651Z" fill="#00B6F1"/>
<path d="M64.8489 244.078C67.2801 239.867 65.8374 234.482 61.6265 232.051C57.4156 229.62 52.031 231.063 49.5998 235.274L34.9259 260.689C32.4947 264.9 33.9374 270.284 38.1483 272.716C42.3592 275.147 47.7438 273.704 50.175 269.493L64.8489 244.078Z" fill="#00B6F1"/>
<path d="M229.751 140.869C229.751 140.869 169.67 140.869 152.608 140.869C113.709 140.869 82.1738 109.335 82.1738 70.4347C82.1738 31.5348 113.709 0 152.608 0C188.323 0 217.828 26.5809 222.422 61.0384C224.798 60.6012 227.248 60.3725 229.751 60.3725C251.98 60.3725 270 78.3924 270 100.621C270 122.85 251.98 140.869 229.751 140.869Z" fill="url(#paint0_linear_41_1140)"/>
<path d="M208.789 205.435C208.789 205.435 126.178 205.435 102.718 205.435C49.2303 205.435 5.87012 160.761 5.87012 105.652C5.87012 50.5437 49.2303 5.86957 102.718 5.86957C151.825 5.86957 192.395 43.5257 198.711 92.3405C201.979 91.7213 205.347 91.3976 208.789 91.3976C239.353 91.3976 264.13 116.925 264.13 148.416C264.13 179.906 239.353 205.435 208.789 205.435Z" fill="black" fill-opacity="0.15"/>
<path d="M202.919 199.565C202.919 199.565 120.308 199.565 96.8476 199.565C43.3602 199.565 0 154.891 0 99.7825C0 44.6741 43.3602 0 96.8476 0C145.954 0 186.525 37.6562 192.841 86.4709C196.109 85.8514 199.477 85.528 202.919 85.528C233.483 85.528 258.26 111.056 258.26 142.546C258.26 174.037 233.483 199.565 202.919 199.565Z" fill="url(#paint1_linear_41_1140)"/>
<defs>
<linearGradient id="paint0_linear_41_1140" x1="82.1738" y1="0" x2="270.419" y2="142.334" gradientUnits="userSpaceOnUse">
<stop stop-color="#6A869C"/>
<stop offset="1" stop-color="#BDD2E2"/>
</linearGradient>
<linearGradient id="paint1_linear_41_1140" x1="0" y1="0" x2="260.925" y2="196.017" gradientUnits="userSpaceOnUse">
<stop stop-color="#DFDFDF"/>
<stop offset="1" stop-color="white"/>
</linearGradient>
</defs>
</svg>
