<svg width="270" height="237" viewBox="0 0 270 237" fill="none" xmlns="http://www.w3.org/2000/svg">
<path fill-rule="evenodd" clip-rule="evenodd" d="M264 95.9998C264 114.987 258.369 133.547 247.821 149.335C237.272 165.121 222.279 177.426 204.737 184.692C187.196 191.958 167.893 193.859 149.271 190.155C130.649 186.451 113.543 177.308 100.117 163.882C86.6916 150.456 77.5488 133.351 73.8447 114.729C70.1403 96.1066 72.0417 76.8037 79.3077 59.2622C86.5737 41.7203 98.8785 26.7275 114.665 16.179C130.453 5.63039 149.013 0 168 0C193.461 0 217.879 10.1142 235.882 28.1177C253.887 46.1213 264 70.5392 264 95.9998Z" fill="url(#paint0_linear_41_1117)"/>
<path d="M213.429 236.999C213.429 236.999 128.982 236.999 105.001 236.999C50.3247 236.999 6.00098 191.333 6.00098 135C6.00098 78.6667 50.3247 32.9999 105.001 32.9999C155.199 32.9999 196.671 71.4928 203.127 121.392C206.468 120.759 209.911 120.428 213.429 120.428C244.673 120.428 270 146.524 270 178.714C270 210.904 244.673 236.999 213.429 236.999Z" fill="black" fill-opacity="0.15"/>
<path d="M207.428 231C207.428 231 122.981 231 98.9998 231C44.3237 231 0 185.333 0 129C0 72.6668 44.3237 27 98.9998 27C149.198 27 190.67 65.4929 197.126 115.392C200.467 114.759 203.91 114.429 207.428 114.429C238.672 114.429 263.999 140.524 263.999 172.714C263.999 204.904 238.672 231 207.428 231Z" fill="url(#paint1_linear_41_1117)"/>
<defs>
<linearGradient id="paint0_linear_41_1117" x1="72" y1="-3.77827e-06" x2="264" y2="192" gradientUnits="userSpaceOnUse">
<stop stop-color="#FFB545"/>
<stop offset="0.973958" stop-color="#FFE39B"/>
</linearGradient>
<linearGradient id="paint1_linear_41_1117" x1="0" y1="27" x2="266.723" y2="227.373" gradientUnits="userSpaceOnUse">
<stop stop-color="#DFDFDF"/>
<stop offset="1" stop-color="white"/>
</linearGradient>
</defs>
</svg>
