<svg width="280" height="70" viewBox="0 0 280 70" fill="none" xmlns="http://www.w3.org/2000/svg">
<rect x="1.5" y="1.5" width="277" height="67" rx="3.5" fill="white" stroke="#092948" stroke-width="3"/>
<path d="M117.016 46V35.906L108.938 22.9H112.368L118.43 32.938L124.506 22.9H127.936L119.858 35.906V46H117.016ZM136.093 46.448C134.572 46.448 133.2 46.126 131.977 45.482C130.764 44.838 129.798 43.942 129.079 42.794C128.37 41.646 128.015 40.3253 128.015 38.832C128.015 37.3293 128.37 36.0087 129.079 34.87C129.798 33.722 130.764 32.826 131.977 32.182C133.2 31.538 134.572 31.216 136.093 31.216C137.614 31.216 138.982 31.538 140.195 32.182C141.418 32.826 142.384 33.722 143.093 34.87C143.812 36.0087 144.171 37.3293 144.171 38.832C144.171 40.3253 143.812 41.646 143.093 42.794C142.384 43.942 141.418 44.838 140.195 45.482C138.982 46.126 137.614 46.448 136.093 46.448ZM136.107 44.082C137.106 44.082 138.002 43.858 138.795 43.41C139.588 42.962 140.214 42.3413 140.671 41.548C141.128 40.7547 141.357 39.8493 141.357 38.832C141.357 37.8053 141.128 36.9 140.671 36.116C140.214 35.3227 139.588 34.702 138.795 34.254C138.002 33.806 137.106 33.582 136.107 33.582C135.099 33.582 134.198 33.806 133.405 34.254C132.612 34.702 131.986 35.3227 131.529 36.116C131.072 36.9 130.843 37.8053 130.843 38.832C130.843 39.8493 131.072 40.7547 131.529 41.548C131.986 42.3413 132.612 42.962 133.405 43.41C134.198 43.858 135.099 44.082 136.107 44.082ZM154.928 46.448C152.623 46.448 150.971 45.9533 149.972 44.964C148.974 43.9653 148.474 42.3087 148.474 39.994V31.664H151.19V39.434C151.19 41.1513 151.475 42.374 152.044 43.102C152.614 43.83 153.575 44.194 154.928 44.194C156.291 44.194 157.257 43.83 157.826 43.102C158.396 42.374 158.68 41.1513 158.68 39.434V31.664H161.396V39.994C161.396 42.3087 160.897 43.9653 159.898 44.964C158.9 45.9533 157.243 46.448 154.928 46.448ZM171.925 46V25.448H165.233V22.9H181.473V25.448H174.767V46H171.925ZM189.792 46.448C187.486 46.448 185.834 45.9533 184.836 44.964C183.837 43.9653 183.338 42.3087 183.338 39.994V31.664H186.054V39.434C186.054 41.1513 186.338 42.374 186.908 43.102C187.477 43.83 188.438 44.194 189.792 44.194C191.154 44.194 192.12 43.83 192.69 43.102C193.259 42.374 193.544 41.1513 193.544 39.434V31.664H196.26V39.994C196.26 42.3087 195.76 43.9653 194.762 44.964C193.763 45.9533 192.106 46.448 189.792 46.448ZM210.092 46.448C208.907 46.448 207.819 46.1727 206.83 45.622C205.841 45.062 205.038 44.292 204.422 43.312V46H201.706V21.92H204.422V34.282C205.001 33.3207 205.78 32.5693 206.76 32.028C207.749 31.4867 208.841 31.216 210.036 31.216C211.408 31.216 212.635 31.5473 213.718 32.21C214.801 32.8727 215.65 33.778 216.266 34.926C216.891 36.0647 217.204 37.3667 217.204 38.832C217.204 40.3067 216.887 41.618 216.252 42.766C215.627 43.914 214.777 44.8147 213.704 45.468C212.631 46.1213 211.427 46.448 210.092 46.448ZM209.364 44.11C210.344 44.11 211.207 43.886 211.954 43.438C212.71 42.9807 213.303 42.3553 213.732 41.562C214.161 40.7687 214.376 39.8633 214.376 38.846C214.376 37.8193 214.157 36.9093 213.718 36.116C213.289 35.3133 212.696 34.688 211.94 34.24C211.193 33.7827 210.335 33.554 209.364 33.554C208.393 33.554 207.525 33.7827 206.76 34.24C206.004 34.688 205.407 35.3133 204.968 36.116C204.539 36.9093 204.324 37.8193 204.324 38.846C204.324 39.8633 204.539 40.7687 204.968 41.562C205.397 42.3553 205.99 42.9807 206.746 43.438C207.511 43.886 208.384 44.11 209.364 44.11ZM228.648 46.448C227.145 46.448 225.796 46.1167 224.602 45.454C223.407 44.7913 222.464 43.8907 221.774 42.752C221.083 41.604 220.738 40.3113 220.738 38.874C220.738 37.81 220.934 36.816 221.326 35.892C221.718 34.968 222.264 34.156 222.964 33.456C223.664 32.7467 224.476 32.196 225.4 31.804C226.324 31.412 227.313 31.216 228.368 31.216C229.861 31.216 231.168 31.524 232.288 32.14C233.417 32.756 234.294 33.6147 234.92 34.716C235.554 35.8173 235.872 37.096 235.872 38.552C235.872 38.6733 235.867 38.7713 235.858 38.846C235.848 38.9207 235.83 39.0187 235.802 39.14H223.482C223.482 40.1387 223.706 41.0207 224.154 41.786C224.611 42.5513 225.236 43.1533 226.03 43.592C226.832 44.0213 227.752 44.236 228.788 44.236C229.768 44.236 230.645 44.0353 231.42 43.634C232.194 43.2327 232.866 42.6353 233.436 41.842L235.424 42.878C234.742 44.0073 233.804 44.8847 232.61 45.51C231.424 46.1353 230.104 46.448 228.648 46.448ZM223.622 37.138H233.142C233.011 36.4007 232.722 35.7567 232.274 35.206C231.835 34.646 231.28 34.212 230.608 33.904C229.945 33.5867 229.212 33.428 228.41 33.428C227.57 33.428 226.809 33.582 226.128 33.89C225.456 34.1887 224.9 34.618 224.462 35.178C224.032 35.7287 223.752 36.382 223.622 37.138Z" fill="#595E60"/>
<rect x="91" y="21" width="2" height="28" fill="#595E60"/>
<path d="M75.2789 26.8345C74.8756 25.3351 73.6934 24.1531 72.1942 23.7494C69.4553 23 58.4996 23 58.4996 23C58.4996 23 47.5444 23 44.8055 23.721C43.3351 24.1243 42.1241 25.3353 41.7208 26.8345C41 29.5732 41 35.2528 41 35.2528C41 35.2528 41 40.961 41.7208 43.6711C42.1245 45.1703 43.3063 46.3522 44.8057 46.756C47.5732 47.5056 58.5 47.5056 58.5 47.5056C58.5 47.5056 69.4553 47.5056 72.1942 46.7846C73.6936 46.3811 74.8756 45.1991 75.2793 43.6999C75.9999 40.961 75.9999 35.2816 75.9999 35.2816C75.9999 35.2816 76.0287 29.5732 75.2789 26.8345ZM55.0116 40.4998V30.0058L64.1217 35.2528L55.0116 40.4998Z" fill="#092948"/>
</svg>
