<svg width="280" height="70" viewBox="0 0 280 70" fill="none" xmlns="http://www.w3.org/2000/svg">
<rect x="1.5" y="1.5" width="277" height="67" rx="3.5" fill="white" stroke="#092948" stroke-width="3"/>
<path d="M48.4204 29.6307C48.8712 29.9488 50.2301 30.8936 52.4971 32.4646C54.7642 34.0356 56.5009 35.2452 57.7074 36.0935C57.84 36.1865 58.1216 36.3886 58.5524 36.7002C58.9832 37.0119 59.3413 37.2639 59.6262 37.456C59.9112 37.6481 60.2559 37.8636 60.6604 38.1022C61.0648 38.3406 61.4461 38.5199 61.804 38.6385C62.162 38.7582 62.4934 38.8175 62.7983 38.8175H62.8183H62.8384C63.1432 38.8175 63.4748 38.7581 63.8328 38.6385C64.1906 38.5199 64.5722 38.3404 64.9762 38.1022C65.3805 37.8634 65.7252 37.6481 66.0103 37.456C66.2953 37.2639 66.6531 37.0119 67.0841 36.7002C67.5148 36.3883 67.7968 36.1865 67.9294 36.0935C69.1488 35.2452 72.2514 33.0907 77.2361 29.6303C78.2039 28.9545 79.0124 28.1389 79.662 27.1843C80.312 26.2302 80.6366 25.2292 80.6366 24.1819C80.6366 23.3068 80.3216 22.5577 79.6918 21.9346C79.062 21.3114 78.3162 21 77.4547 21H48.1817C47.1609 21 46.3754 21.3446 45.8252 22.0339C45.2751 22.7234 45 23.5851 45 24.6191C45 25.4544 45.3647 26.3594 46.0938 27.3338C46.8228 28.3083 47.5986 29.074 48.4204 29.6307Z" fill="#092948"/>
<path d="M78.6477 31.7583C74.2997 34.7013 70.9981 36.9884 68.7446 38.6193C67.9889 39.1759 67.3759 39.6104 66.9051 39.9218C66.4343 40.2333 65.8082 40.5515 65.0258 40.8761C64.2438 41.2013 63.5149 41.3634 62.8386 41.3634H62.8184H62.7984C62.1223 41.3634 61.393 41.2013 60.6109 40.8761C59.8288 40.5515 59.2023 40.2333 58.7317 39.9218C58.2611 39.6104 57.6479 39.1759 56.8923 38.6193C55.1024 37.3069 51.8079 35.0196 47.0087 31.7583C46.2529 31.2549 45.5833 30.6778 45 30.0283V45.8177C45 46.6933 45.3114 47.442 45.9346 48.0651C46.5577 48.6884 47.3069 49 48.1819 49H77.455C78.3298 49 79.0789 48.6884 79.7021 48.0651C80.3254 47.4418 80.6367 46.6933 80.6367 45.8177V30.0283C80.0665 30.6644 79.4038 31.2414 78.6477 31.7583Z" fill="#092948"/>
<path d="M126.399 46.448C124.663 46.448 123.043 46.1447 121.541 45.538C120.047 44.922 118.736 44.0727 117.607 42.99C116.487 41.898 115.614 40.624 114.989 39.168C114.363 37.712 114.051 36.144 114.051 34.464C114.051 32.784 114.363 31.216 114.989 29.76C115.623 28.304 116.501 27.0347 117.621 25.952C118.741 24.86 120.047 24.0107 121.541 23.404C123.034 22.788 124.649 22.48 126.385 22.48C127.822 22.48 129.175 22.69 130.445 23.11C131.723 23.5207 132.839 24.0853 133.791 24.804L132.503 27.198C131.737 26.582 130.841 26.1107 129.815 25.784C128.788 25.448 127.705 25.28 126.567 25.28C125.195 25.28 123.935 25.5133 122.787 25.98C121.639 26.4467 120.64 27.1 119.791 27.94C118.951 28.7707 118.297 29.746 117.831 30.866C117.373 31.9767 117.145 33.176 117.145 34.464C117.145 35.752 117.373 36.956 117.831 38.076C118.297 39.1867 118.951 40.162 119.791 41.002C120.64 41.8327 121.639 42.4813 122.787 42.948C123.935 43.4147 125.195 43.648 126.567 43.648C127.705 43.648 128.788 43.4847 129.815 43.158C130.841 42.822 131.737 42.346 132.503 41.73L133.791 44.124C132.857 44.824 131.756 45.3887 130.487 45.818C129.217 46.238 127.855 46.448 126.399 46.448ZM144.64 46.448C143.119 46.448 141.747 46.126 140.524 45.482C139.311 44.838 138.345 43.942 137.626 42.794C136.917 41.646 136.562 40.3253 136.562 38.832C136.562 37.3293 136.917 36.0087 137.626 34.87C138.345 33.722 139.311 32.826 140.524 32.182C141.747 31.538 143.119 31.216 144.64 31.216C146.161 31.216 147.529 31.538 148.742 32.182C149.965 32.826 150.931 33.722 151.64 34.87C152.359 36.0087 152.718 37.3293 152.718 38.832C152.718 40.3253 152.359 41.646 151.64 42.794C150.931 43.942 149.965 44.838 148.742 45.482C147.529 46.126 146.161 46.448 144.64 46.448ZM144.654 44.082C145.653 44.082 146.549 43.858 147.342 43.41C148.135 42.962 148.761 42.3413 149.218 41.548C149.675 40.7547 149.904 39.8493 149.904 38.832C149.904 37.8053 149.675 36.9 149.218 36.116C148.761 35.3227 148.135 34.702 147.342 34.254C146.549 33.806 145.653 33.582 144.654 33.582C143.646 33.582 142.745 33.806 141.952 34.254C141.159 34.702 140.533 35.3227 140.076 36.116C139.619 36.9 139.39 37.8053 139.39 38.832C139.39 39.8493 139.619 40.7547 140.076 41.548C140.533 42.3413 141.159 42.962 141.952 43.41C142.745 43.858 143.646 44.082 144.654 44.082ZM157.261 46V31.664H159.977V33.512C160.415 32.8587 161.045 32.3127 161.867 31.874C162.688 31.4353 163.663 31.216 164.793 31.216C165.903 31.216 166.865 31.4493 167.677 31.916C168.489 32.3733 169.114 33.036 169.553 33.904C170.001 34.772 170.225 35.808 170.225 37.012V46H167.509V37.558C167.509 36.214 167.187 35.1827 166.543 34.464C165.899 33.7453 164.993 33.386 163.827 33.386C163.024 33.386 162.333 33.5493 161.755 33.876C161.185 34.1933 160.747 34.6227 160.439 35.164C160.131 35.696 159.977 36.2793 159.977 36.914V46H157.261ZM179.502 46.448C178.326 46.448 177.412 46.0607 176.758 45.286C176.105 44.502 175.778 43.4053 175.778 41.996V33.722H174.182V31.664H175.778V26.302H178.494V31.664H181.938V33.722H178.494V41.828C178.494 42.5373 178.634 43.0833 178.914 43.466C179.194 43.8487 179.596 44.04 180.118 44.04C180.641 44.04 181.108 43.886 181.518 43.578L182.204 45.748C181.84 45.9627 181.416 46.1307 180.93 46.252C180.454 46.3827 179.978 46.448 179.502 46.448ZM192.458 46.448C191.123 46.448 189.914 46.1213 188.832 45.468C187.758 44.8053 186.904 43.9 186.27 42.752C185.644 41.604 185.332 40.2927 185.332 38.818C185.332 37.362 185.64 36.0647 186.256 34.926C186.872 33.778 187.716 32.8727 188.79 32.21C189.863 31.5473 191.086 31.216 192.458 31.216C193.671 31.216 194.777 31.4867 195.776 32.028C196.784 32.5693 197.563 33.3207 198.114 34.282V31.664H200.83V46H198.114V43.312C197.488 44.3013 196.686 45.0713 195.706 45.622C194.726 46.1727 193.643 46.448 192.458 46.448ZM193.186 44.11C194.166 44.11 195.029 43.886 195.776 43.438C196.532 42.9807 197.124 42.3553 197.554 41.562C197.983 40.7687 198.198 39.8587 198.198 38.832C198.198 37.8053 197.983 36.8953 197.554 36.102C197.124 35.3087 196.532 34.688 195.776 34.24C195.029 33.7827 194.166 33.554 193.186 33.554C192.215 33.554 191.352 33.7827 190.596 34.24C189.84 34.688 189.242 35.3087 188.804 36.102C188.374 36.8953 188.16 37.8053 188.16 38.832C188.16 39.8493 188.374 40.7593 188.804 41.562C189.242 42.3553 189.84 42.9807 190.596 43.438C191.352 43.886 192.215 44.11 193.186 44.11ZM210.346 46.448C209.17 46.448 208.255 46.0607 207.602 45.286C206.949 44.502 206.622 43.4053 206.622 41.996V33.722H205.026V31.664H206.622V26.302H209.338V31.664H212.782V33.722H209.338V41.828C209.338 42.5373 209.478 43.0833 209.758 43.466C210.038 43.8487 210.439 44.04 210.962 44.04C211.485 44.04 211.951 43.886 212.362 43.578L213.048 45.748C212.684 45.9627 212.259 46.1307 211.774 46.252C211.298 46.3827 210.822 46.448 210.346 46.448ZM224.21 46.448C222.689 46.448 221.317 46.126 220.094 45.482C218.881 44.838 217.915 43.942 217.196 42.794C216.487 41.646 216.132 40.3253 216.132 38.832C216.132 37.3293 216.487 36.0087 217.196 34.87C217.915 33.722 218.881 32.826 220.094 32.182C221.317 31.538 222.689 31.216 224.21 31.216C225.731 31.216 227.099 31.538 228.312 32.182C229.535 32.826 230.501 33.722 231.21 34.87C231.929 36.0087 232.288 37.3293 232.288 38.832C232.288 40.3253 231.929 41.646 231.21 42.794C230.501 43.942 229.535 44.838 228.312 45.482C227.099 46.126 225.731 46.448 224.21 46.448ZM224.224 44.082C225.223 44.082 226.119 43.858 226.912 43.41C227.705 42.962 228.331 42.3413 228.788 41.548C229.245 40.7547 229.474 39.8493 229.474 38.832C229.474 37.8053 229.245 36.9 228.788 36.116C228.331 35.3227 227.705 34.702 226.912 34.254C226.119 33.806 225.223 33.582 224.224 33.582C223.216 33.582 222.315 33.806 221.522 34.254C220.729 34.702 220.103 35.3227 219.646 36.116C219.189 36.9 218.96 37.8053 218.96 38.832C218.96 39.8493 219.189 40.7547 219.646 41.548C220.103 42.3413 220.729 42.962 221.522 43.41C222.315 43.858 223.216 44.082 224.224 44.082Z" fill="#595E60"/>
<rect x="95.6367" y="21" width="2" height="28" fill="#6E6464"/>
</svg>
