<svg width="280" height="70" viewBox="0 0 280 70" fill="none" xmlns="http://www.w3.org/2000/svg">
<rect x="1.5" y="1.5" width="277" height="67" rx="3.5" fill="white" stroke="#092948" stroke-width="3"/>
<path d="M46.806 37.0626C46.6859 37.0626 44.0426 37.0626 42.8411 37.0626C42.2003 37.0626 42 36.8223 42 36.2215C42 34.6195 42 32.9775 42 31.3755C42 30.7347 42.2403 30.5344 42.8411 30.5344H46.806C46.806 30.4143 46.806 28.0914 46.806 27.01C46.806 25.408 47.0864 23.8861 47.8874 22.4844C48.7284 21.0426 49.9299 20.0814 51.4518 19.5207C52.4531 19.1602 53.4543 19 54.5357 19H58.4606C59.0213 19 59.2616 19.2403 59.2616 19.801V24.3667C59.2616 24.9274 59.0213 25.1677 58.4606 25.1677C57.3792 25.1677 56.2979 25.1677 55.2165 25.2078C54.1352 25.2078 53.5745 25.7284 53.5745 26.8498C53.5344 28.0513 53.5745 29.2128 53.5745 30.4543H58.2203C58.8611 30.4543 59.1014 30.6946 59.1014 31.3354V36.1815C59.1014 36.8223 58.9011 37.0225 58.2203 37.0225C56.7785 37.0225 53.6946 37.0225 53.5745 37.0225V50.0788C53.5745 50.7597 53.3742 51 52.6533 51C50.9712 51 49.3292 51 47.6471 51C47.0463 51 46.806 50.7597 46.806 50.159C46.806 45.9537 46.806 37.1827 46.806 37.0626Z" fill="#092948"/>
<path d="M94.8457 46V22.9H106.914V25.406H96.7777L97.6877 24.664V34.436L96.7777 33.176H106.284V35.668H96.7777L97.6877 34.408V46H94.8457ZM116.751 46.448C115.416 46.448 114.207 46.1213 113.125 45.468C112.051 44.8053 111.197 43.9 110.563 42.752C109.937 41.604 109.625 40.2927 109.625 38.818C109.625 37.362 109.933 36.0647 110.549 34.926C111.165 33.778 112.009 32.8727 113.083 32.21C114.156 31.5473 115.379 31.216 116.751 31.216C117.964 31.216 119.07 31.4867 120.069 32.028C121.077 32.5693 121.856 33.3207 122.407 34.282V31.664H125.123V46H122.407V43.312C121.781 44.3013 120.979 45.0713 119.999 45.622C119.019 46.1727 117.936 46.448 116.751 46.448ZM117.479 44.11C118.459 44.11 119.322 43.886 120.069 43.438C120.825 42.9807 121.417 42.3553 121.847 41.562C122.276 40.7687 122.491 39.8587 122.491 38.832C122.491 37.8053 122.276 36.8953 121.847 36.102C121.417 35.3087 120.825 34.688 120.069 34.24C119.322 33.7827 118.459 33.554 117.479 33.554C116.508 33.554 115.645 33.7827 114.889 34.24C114.133 34.688 113.535 35.3087 113.097 36.102C112.667 36.8953 112.453 37.8053 112.453 38.832C112.453 39.8493 112.667 40.7593 113.097 41.562C113.535 42.3553 114.133 42.9807 114.889 43.438C115.645 43.886 116.508 44.11 117.479 44.11ZM137.532 46.448C136.45 46.448 135.432 46.2567 134.48 45.874C133.538 45.4913 132.707 44.9547 131.988 44.264C131.27 43.5733 130.705 42.766 130.294 41.842C129.893 40.918 129.692 39.9147 129.692 38.832C129.692 37.768 129.888 36.7787 130.28 35.864C130.672 34.94 131.223 34.1327 131.932 33.442C132.642 32.742 133.472 32.196 134.424 31.804C135.376 31.412 136.408 31.216 137.518 31.216C138.461 31.216 139.357 31.356 140.206 31.636C141.056 31.9067 141.774 32.2753 142.362 32.742L141.34 34.576C140.398 33.848 139.245 33.484 137.882 33.484C136.8 33.484 135.852 33.7267 135.04 34.212C134.228 34.688 133.598 35.332 133.15 36.144C132.712 36.956 132.492 37.852 132.492 38.832C132.492 39.84 132.721 40.75 133.178 41.562C133.636 42.3647 134.27 43.004 135.082 43.48C135.904 43.9467 136.846 44.18 137.91 44.18C138.573 44.18 139.198 44.0867 139.786 43.9C140.374 43.704 140.888 43.4333 141.326 43.088L142.362 44.922C141.765 45.3793 141.046 45.748 140.206 46.028C139.366 46.308 138.475 46.448 137.532 46.448ZM153.284 46.448C151.782 46.448 150.433 46.1167 149.238 45.454C148.044 44.7913 147.101 43.8907 146.41 42.752C145.72 41.604 145.374 40.3113 145.374 38.874C145.374 37.81 145.57 36.816 145.962 35.892C146.354 34.968 146.9 34.156 147.6 33.456C148.3 32.7467 149.112 32.196 150.036 31.804C150.96 31.412 151.95 31.216 153.004 31.216C154.498 31.216 155.804 31.524 156.924 32.14C158.054 32.756 158.931 33.6147 159.556 34.716C160.191 35.8173 160.508 37.096 160.508 38.552C160.508 38.6733 160.504 38.7713 160.494 38.846C160.485 38.9207 160.466 39.0187 160.438 39.14H148.118C148.118 40.1387 148.342 41.0207 148.79 41.786C149.248 42.5513 149.873 43.1533 150.666 43.592C151.469 44.0213 152.388 44.236 153.424 44.236C154.404 44.236 155.282 44.0353 156.056 43.634C156.831 43.2327 157.503 42.6353 158.072 41.842L160.06 42.878C159.379 44.0073 158.441 44.8847 157.246 45.51C156.061 46.1353 154.74 46.448 153.284 46.448ZM148.258 37.138H157.778C157.648 36.4007 157.358 35.7567 156.91 35.206C156.472 34.646 155.916 34.212 155.244 33.904C154.582 33.5867 153.849 33.428 153.046 33.428C152.206 33.428 151.446 33.582 150.764 33.89C150.092 34.1887 149.537 34.618 149.098 35.178C148.669 35.7287 148.389 36.382 148.258 37.138ZM173.42 46.448C172.235 46.448 171.147 46.1727 170.158 45.622C169.169 45.062 168.366 44.292 167.75 43.312V46H165.034V21.92H167.75V34.282C168.329 33.3207 169.108 32.5693 170.088 32.028C171.077 31.4867 172.169 31.216 173.364 31.216C174.736 31.216 175.963 31.5473 177.046 32.21C178.129 32.8727 178.978 33.778 179.594 34.926C180.219 36.0647 180.532 37.3667 180.532 38.832C180.532 40.3067 180.215 41.618 179.58 42.766C178.955 43.914 178.105 44.8147 177.032 45.468C175.959 46.1213 174.755 46.448 173.42 46.448ZM172.692 44.11C173.672 44.11 174.535 43.886 175.282 43.438C176.038 42.9807 176.631 42.3553 177.06 41.562C177.489 40.7687 177.704 39.8633 177.704 38.846C177.704 37.8193 177.485 36.9093 177.046 36.116C176.617 35.3133 176.024 34.688 175.268 34.24C174.521 33.7827 173.663 33.554 172.692 33.554C171.721 33.554 170.853 33.7827 170.088 34.24C169.332 34.688 168.735 35.3133 168.296 36.116C167.867 36.9093 167.652 37.8193 167.652 38.846C167.652 39.8633 167.867 40.7687 168.296 41.562C168.725 42.3553 169.318 42.9807 170.074 43.438C170.839 43.886 171.712 44.11 172.692 44.11ZM192.144 46.448C190.622 46.448 189.25 46.126 188.028 45.482C186.814 44.838 185.848 43.942 185.13 42.794C184.42 41.646 184.066 40.3253 184.066 38.832C184.066 37.3293 184.42 36.0087 185.13 34.87C185.848 33.722 186.814 32.826 188.028 32.182C189.25 31.538 190.622 31.216 192.144 31.216C193.665 31.216 195.032 31.538 196.246 32.182C197.468 32.826 198.434 33.722 199.144 34.87C199.862 36.0087 200.222 37.3293 200.222 38.832C200.222 40.3253 199.862 41.646 199.144 42.794C198.434 43.942 197.468 44.838 196.246 45.482C195.032 46.126 193.665 46.448 192.144 46.448ZM192.158 44.082C193.156 44.082 194.052 43.858 194.846 43.41C195.639 42.962 196.264 42.3413 196.722 41.548C197.179 40.7547 197.408 39.8493 197.408 38.832C197.408 37.8053 197.179 36.9 196.722 36.116C196.264 35.3227 195.639 34.702 194.846 34.254C194.052 33.806 193.156 33.582 192.158 33.582C191.15 33.582 190.249 33.806 189.456 34.254C188.662 34.702 188.037 35.3227 187.58 36.116C187.122 36.9 186.894 37.8053 186.894 38.832C186.894 39.8493 187.122 40.7547 187.58 41.548C188.037 42.3413 188.662 42.962 189.456 43.41C190.249 43.858 191.15 44.082 192.158 44.082ZM211.749 46.448C210.228 46.448 208.856 46.126 207.633 45.482C206.42 44.838 205.454 43.942 204.735 42.794C204.026 41.646 203.671 40.3253 203.671 38.832C203.671 37.3293 204.026 36.0087 204.735 34.87C205.454 33.722 206.42 32.826 207.633 32.182C208.856 31.538 210.228 31.216 211.749 31.216C213.271 31.216 214.638 31.538 215.851 32.182C217.074 32.826 218.04 33.722 218.749 34.87C219.468 36.0087 219.827 37.3293 219.827 38.832C219.827 40.3253 219.468 41.646 218.749 42.794C218.04 43.942 217.074 44.838 215.851 45.482C214.638 46.126 213.271 46.448 211.749 46.448ZM211.763 44.082C212.762 44.082 213.658 43.858 214.451 43.41C215.245 42.962 215.87 42.3413 216.327 41.548C216.785 40.7547 217.013 39.8493 217.013 38.832C217.013 37.8053 216.785 36.9 216.327 36.116C215.87 35.3227 215.245 34.702 214.451 34.254C213.658 33.806 212.762 33.582 211.763 33.582C210.755 33.582 209.855 33.806 209.061 34.254C208.268 34.702 207.643 35.3227 207.185 36.116C206.728 36.9 206.499 37.8053 206.499 38.832C206.499 39.8493 206.728 40.7547 207.185 41.548C207.643 42.3413 208.268 42.962 209.061 43.41C209.855 43.858 210.755 44.082 211.763 44.082ZM224.425 46V21.92H227.141V37.348L232.741 31.664H236.269L229.591 38.496L236.605 46H233.119L227.141 39.532V46H224.425Z" fill="#595E60"/>
<rect x="74.2617" y="21" width="2" height="28" fill="#595E60"/>
</svg>
