<svg width="82" height="82" viewBox="0 0 82 82" fill="none" xmlns="http://www.w3.org/2000/svg">
<rect x="2.368" y="2.368" width="76.4898" height="76.4898" rx="5.12977" stroke="#133E68" stroke-opacity="0.3" stroke-width="4.736"/>
<path fill-rule="evenodd" clip-rule="evenodd" d="M31.2642 21.8456C31.9287 21.5344 32.7132 21.6356 33.2769 22.1054L44.623 31.5605C45.0542 31.9198 45.3034 32.452 45.3034 33.0132C45.3034 33.5744 45.0542 34.1067 44.623 34.4659L37.2894 40.5773L44.623 46.6887C45.0542 47.048 45.3034 47.5801 45.3034 48.1414C45.3034 48.7026 45.0542 49.2348 44.623 49.594L33.2769 59.0492C32.7132 59.5189 31.9287 59.6202 31.2642 59.309C30.5997 58.9977 30.1753 58.3302 30.1753 57.5965V46.5058L21.9308 53.3761C21.1285 54.0448 19.9361 53.9364 19.2674 53.134C18.5989 52.3317 18.7073 51.1394 19.5096 50.4707L30.1753 41.5825V39.572L19.5096 30.6839C18.7073 30.0153 18.5989 28.8229 19.2674 28.0206C19.9361 27.2182 21.1285 27.1099 21.9308 27.7784L30.1753 34.6489V23.5581C30.1753 22.8243 30.5997 22.1568 31.2642 21.8456ZM34.3355 38.1157L33.9573 37.8005V27.5955L40.4586 33.0132L34.3355 38.1157ZM34.3355 43.0388L33.9573 43.3541V53.5591L40.4586 48.1414L34.3355 43.0388ZM53.9276 28.6416C54.7753 28.0317 55.9571 28.2246 56.5669 29.0724C58.8966 32.3108 60.2691 36.2865 60.2691 40.5773C60.2691 44.868 58.8966 48.8439 56.5669 52.0823C55.9571 52.93 54.7753 53.1229 53.9276 52.513C53.0799 51.9032 52.887 50.7215 53.4968 49.8735C55.379 47.2573 56.4871 44.0494 56.4871 40.5773C56.4871 37.1052 55.379 33.8974 53.4968 31.281C52.887 30.4332 53.0799 29.2515 53.9276 28.6416ZM48.0036 33.0833C48.8602 32.4858 50.0391 32.6958 50.6365 33.5524C52.0258 35.5441 52.8408 37.9684 52.8408 40.5775C52.8408 43.1865 52.0258 45.6108 50.6365 47.6026C50.0391 48.4591 48.8602 48.6691 48.0036 48.0718C47.1472 47.4742 46.9371 46.2954 47.5344 45.4389C48.4955 44.0613 49.0588 42.3879 49.0588 40.5775C49.0588 38.767 48.4955 37.0936 47.5344 35.7161C46.9371 34.8595 47.1472 33.6808 48.0036 33.0833Z" fill="#595E60"/>
</svg>
