<svg width="559" height="133" viewBox="0 0 559 133" fill="none" xmlns="http://www.w3.org/2000/svg">
<path d="M31.4053 15.9834H552.307C554.758 15.9834 556.674 18.0997 556.431 20.5391L545.774 127.1C545.563 129.218 543.78 130.831 541.651 130.831H20.75C18.2983 130.831 16.382 128.714 16.626 126.274L27.2822 19.7148C27.4941 17.5965 29.2764 15.9835 31.4053 15.9834Z" stroke="#6A254F" stroke-width="3.552"/>
<path d="M11.3069 5.33106C11.6096 2.30474 14.1561 0.00012207 17.1975 0.00012207H538.099C541.601 0.00012207 544.338 3.02417 543.99 6.50919L533.334 113.069C533.031 116.096 530.484 118.4 527.443 118.4H6.54151C3.03911 118.4 0.302405 115.376 0.650907 111.891L11.3069 5.33106Z" fill="#595E60"/>
<path d="M49.8737 49.8408V27.1601H54.9872C56.5908 27.1601 58.0846 27.4487 59.4683 28.0261C60.8612 28.6034 62.0755 29.4098 63.111 30.4453C64.1465 31.4717 64.9575 32.6722 65.544 34.0468C66.1305 35.4214 66.4237 36.9105 66.4237 38.5142C66.4237 40.1087 66.1351 41.5933 65.5578 42.9679C64.9804 44.3425 64.1694 45.5475 63.1247 46.583C62.0892 47.6094 60.875 48.4112 59.4821 48.9886C58.0983 49.5567 56.6 49.8408 54.9872 49.8408H49.8737ZM51.9631 47.9714H54.7947C56.1326 47.9714 57.3698 47.7331 58.5061 47.2566C59.6516 46.7709 60.6505 46.1019 61.5027 45.2497C62.3641 44.3883 63.0331 43.3848 63.5096 42.2393C63.9861 41.0847 64.2244 39.8384 64.2244 38.5004C64.2244 37.1625 63.9861 35.9208 63.5096 34.7753C63.0331 33.6298 62.3641 32.6264 61.5027 31.7649C60.6505 30.9035 59.6516 30.2346 58.5061 29.758C57.3606 29.2724 56.1235 29.0295 54.7947 29.0295H51.9631V47.9714ZM71.6427 49.8408V35.765H73.6496V49.8408H71.6427ZM72.6599 32.9471C72.4125 32.9471 72.1879 32.8875 71.9863 32.7684C71.7939 32.6493 71.6381 32.4889 71.519 32.2873C71.3998 32.0857 71.3403 31.8658 71.3403 31.6275C71.3403 31.3892 71.3998 31.1739 71.519 30.9814C71.6381 30.7798 71.7939 30.6195 71.9863 30.5003C72.1879 30.3812 72.4125 30.3216 72.6599 30.3216C72.8981 30.3216 73.1135 30.3812 73.3059 30.5003C73.4984 30.6195 73.6542 30.7752 73.7733 30.9677C73.9016 31.1601 73.9657 31.3801 73.9657 31.6275C73.9657 31.8658 73.9016 32.0857 73.7733 32.2873C73.6542 32.4889 73.4984 32.6493 73.3059 32.7684C73.1135 32.8875 72.8981 32.9471 72.6599 32.9471ZM83.2328 50.2807C82.069 50.2807 81.0427 50.0012 80.1538 49.4422C79.2649 48.874 78.573 48.0722 78.0781 47.0367L79.1503 45.882C79.5902 46.7801 80.1629 47.4811 80.8686 47.9851C81.5742 48.48 82.3577 48.7274 83.2191 48.7274C83.7964 48.7274 84.3234 48.6083 84.7999 48.37C85.2856 48.1317 85.6705 47.7927 85.9545 47.3528C86.2478 46.9038 86.3944 46.3723 86.3944 45.7583C86.3944 45.1993 86.2569 44.7594 85.982 44.4387C85.7163 44.1179 85.3222 43.843 84.7999 43.6139C84.2867 43.3757 83.6452 43.1099 82.8755 42.8167C82.2798 42.5784 81.7025 42.3081 81.1435 42.0057C80.5845 41.7032 80.1217 41.3229 79.7551 40.8647C79.3977 40.3974 79.219 39.8063 79.219 39.0915C79.219 38.3676 79.4115 37.7261 79.7964 37.1671C80.1813 36.5989 80.7128 36.1545 81.3909 35.8337C82.069 35.5038 82.8388 35.3389 83.7002 35.3389C84.4883 35.3389 85.226 35.5084 85.9133 35.8475C86.6098 36.1866 87.2329 36.6677 87.7827 37.2908L86.8618 38.4592C86.0187 37.3504 84.9694 36.796 83.714 36.796C82.9442 36.796 82.3165 36.9976 81.8308 37.4008C81.3542 37.804 81.116 38.3309 81.116 38.9816C81.116 39.4489 81.2672 39.8384 81.5696 40.15C81.872 40.4615 82.2661 40.7273 82.7517 40.9472C83.2466 41.1672 83.7781 41.3871 84.3463 41.607C85.171 41.9186 85.8858 42.2302 86.4906 42.5417C87.1046 42.8533 87.5811 43.2519 87.9202 43.7376C88.2593 44.2142 88.4288 44.8648 88.4288 45.6896C88.4288 46.6334 88.2089 47.449 87.769 48.1363C87.3291 48.8236 86.7151 49.3551 85.927 49.7309C85.1481 50.0974 84.25 50.2807 83.2328 50.2807ZM93.1881 56.9887V35.765H95.195V38.6791C95.7632 37.6253 96.5559 36.8051 97.5731 36.2186C98.5994 35.623 99.7357 35.3251 100.982 35.3251C102.329 35.3251 103.534 35.6505 104.597 36.3011C105.66 36.9517 106.499 37.8406 107.113 38.9678C107.727 40.0858 108.034 41.3642 108.034 42.8029C108.034 44.2233 107.727 45.5017 107.113 46.638C106.508 47.7652 105.674 48.6541 104.611 49.3047C103.557 49.9554 102.357 50.2807 101.01 50.2807C99.7816 50.2807 98.6544 49.9783 97.628 49.3735C96.6017 48.7686 95.7907 47.9347 95.195 46.8717V56.9887H93.1881ZM100.542 48.535C101.596 48.535 102.531 48.2921 103.346 47.8064C104.162 47.3116 104.799 46.6334 105.257 45.772C105.724 44.9106 105.958 43.9255 105.958 42.8167C105.958 41.6987 105.724 40.709 105.257 39.8475C104.79 38.977 104.148 38.2988 103.333 37.8131C102.526 37.3183 101.596 37.0709 100.542 37.0709C99.4883 37.0709 98.5536 37.3183 97.738 37.8131C96.9224 38.2988 96.2809 38.9724 95.8136 39.8338C95.3462 40.6952 95.1125 41.6849 95.1125 42.8029C95.1125 43.9118 95.3462 44.9015 95.8136 45.772C96.2809 46.6334 96.9224 47.3116 97.738 47.8064C98.5628 48.2921 99.4975 48.535 100.542 48.535ZM119.67 50.2807C118.203 50.2807 116.879 49.9645 115.697 49.3322C114.524 48.6999 113.594 47.8202 112.907 46.693C112.219 45.5658 111.876 44.2691 111.876 42.8029C111.876 41.3275 112.219 40.0308 112.907 38.9128C113.594 37.7857 114.524 36.9059 115.697 36.2736C116.87 35.6413 118.194 35.3251 119.67 35.3251C121.136 35.3251 122.455 35.6413 123.628 36.2736C124.811 36.9059 125.745 37.7857 126.433 38.9128C127.12 40.0308 127.464 41.3275 127.464 42.8029C127.464 44.2691 127.12 45.5658 126.433 46.693C125.745 47.8202 124.811 48.6999 123.628 49.3322C122.455 49.9645 121.136 50.2807 119.67 50.2807ZM119.67 48.4937C120.769 48.4937 121.75 48.2509 122.611 47.7652C123.473 47.2795 124.151 46.6105 124.646 45.7583C125.14 44.8969 125.388 43.9118 125.388 42.8029C125.388 41.6941 125.14 40.7135 124.646 39.8613C124.151 38.9999 123.473 38.3263 122.611 37.8406C121.75 37.355 120.769 37.1121 119.67 37.1121C118.57 37.1121 117.589 37.355 116.728 37.8406C115.867 38.3263 115.188 38.9999 114.694 39.8613C114.199 40.7135 113.951 41.6941 113.951 42.8029C113.951 43.9026 114.199 44.8831 114.694 45.7445C115.188 46.6059 115.867 47.2795 116.728 47.7652C117.589 48.2509 118.57 48.4937 119.67 48.4937ZM135.854 50.2807C134.69 50.2807 133.664 50.0012 132.775 49.4422C131.886 48.874 131.194 48.0722 130.699 47.0367L131.771 45.882C132.211 46.7801 132.784 47.4811 133.49 47.9851C134.195 48.48 134.979 48.7274 135.84 48.7274C136.417 48.7274 136.944 48.6083 137.421 48.37C137.907 48.1317 138.292 47.7927 138.576 47.3528C138.869 46.9038 139.015 46.3723 139.015 45.7583C139.015 45.1993 138.878 44.7594 138.603 44.4387C138.337 44.1179 137.943 43.843 137.421 43.6139C136.908 43.3757 136.266 43.1099 135.497 42.8167C134.901 42.5784 134.324 42.3081 133.765 42.0057C133.206 41.7032 132.743 41.3229 132.376 40.8647C132.019 40.3974 131.84 39.8063 131.84 39.0915C131.84 38.3676 132.033 37.7261 132.417 37.1671C132.802 36.5989 133.334 36.1545 134.012 35.8337C134.69 35.5038 135.46 35.3389 136.321 35.3389C137.109 35.3389 137.847 35.5084 138.534 35.8475C139.231 36.1866 139.854 36.6677 140.404 37.2908L139.483 38.4592C138.64 37.3504 137.59 36.796 136.335 36.796C135.565 36.796 134.938 36.9976 134.452 37.4008C133.975 37.804 133.737 38.3309 133.737 38.9816C133.737 39.4489 133.888 39.8384 134.191 40.15C134.493 40.4615 134.887 40.7273 135.373 40.9472C135.868 41.1672 136.399 41.3871 136.967 41.607C137.792 41.9186 138.507 42.2302 139.112 42.5417C139.726 42.8533 140.202 43.2519 140.541 43.7376C140.88 44.2142 141.05 44.8648 141.05 45.6896C141.05 46.6334 140.83 47.449 140.39 48.1363C139.95 48.8236 139.336 49.3551 138.548 49.7309C137.769 50.0974 136.871 50.2807 135.854 50.2807ZM145.795 49.8408V35.765H147.802V49.8408H145.795ZM146.813 32.9471C146.565 32.9471 146.341 32.8875 146.139 32.7684C145.947 32.6493 145.791 32.4889 145.672 32.2873C145.553 32.0857 145.493 31.8658 145.493 31.6275C145.493 31.3892 145.553 31.1739 145.672 30.9814C145.791 30.7798 145.947 30.6195 146.139 30.5003C146.341 30.3812 146.565 30.3216 146.813 30.3216C147.051 30.3216 147.266 30.3812 147.459 30.5003C147.651 30.6195 147.807 30.7752 147.926 30.9677C148.054 31.1601 148.118 31.3801 148.118 31.6275C148.118 31.8658 148.054 32.0857 147.926 32.2873C147.807 32.4889 147.651 32.6493 147.459 32.7684C147.266 32.8875 147.051 32.9471 146.813 32.9471ZM157.234 50.2807C156.181 50.2807 155.36 49.9279 154.774 49.2223C154.197 48.5075 153.908 47.504 153.908 46.2119V37.2771H152.478V35.765H153.908V30.5003H155.915V35.765H159.42V37.2771H155.915V46.1019C155.915 46.8809 156.066 47.4765 156.368 47.8889C156.671 48.3013 157.102 48.5075 157.661 48.5075C158.201 48.5075 158.678 48.3563 159.09 48.0539L159.599 49.6484C159.287 49.8408 158.921 49.992 158.499 50.102C158.077 50.2211 157.656 50.2807 157.234 50.2807ZM163.971 49.8408V35.765H165.978V49.8408H163.971ZM164.988 32.9471C164.741 32.9471 164.516 32.8875 164.315 32.7684C164.122 32.6493 163.967 32.4889 163.847 32.2873C163.728 32.0857 163.669 31.8658 163.669 31.6275C163.669 31.3892 163.728 31.1739 163.847 30.9814C163.967 30.7798 164.122 30.6195 164.315 30.5003C164.516 30.3812 164.741 30.3216 164.988 30.3216C165.227 30.3216 165.442 30.3812 165.634 30.5003C165.827 30.6195 165.983 30.7752 166.102 30.9677C166.23 31.1601 166.294 31.3801 166.294 31.6275C166.294 31.8658 166.23 32.0857 166.102 32.2873C165.983 32.4889 165.827 32.6493 165.634 32.7684C165.442 32.8875 165.227 32.9471 164.988 32.9471ZM176.5 49.8408L169.668 35.765H172.019L177.16 46.9817L182.314 35.765H184.665L177.82 49.8408H176.5ZM195.138 50.2807C193.672 50.2807 192.347 49.9645 191.165 49.3322C189.992 48.6999 189.062 47.8202 188.375 46.693C187.688 45.5658 187.344 44.2691 187.344 42.8029C187.344 41.3275 187.688 40.0308 188.375 38.9128C189.062 37.7857 189.992 36.9059 191.165 36.2736C192.338 35.6413 193.662 35.3251 195.138 35.3251C196.604 35.3251 197.924 35.6413 199.097 36.2736C200.279 36.9059 201.214 37.7857 201.901 38.9128C202.588 40.0308 202.932 41.3275 202.932 42.8029C202.932 44.2691 202.588 45.5658 201.901 46.693C201.214 47.8202 200.279 48.6999 199.097 49.3322C197.924 49.9645 196.604 50.2807 195.138 50.2807ZM195.138 48.4937C196.238 48.4937 197.218 48.2509 198.079 47.7652C198.941 47.2795 199.619 46.6105 200.114 45.7583C200.609 44.8969 200.856 43.9118 200.856 42.8029C200.856 41.6941 200.609 40.7135 200.114 39.8613C199.619 38.9999 198.941 38.3263 198.079 37.8406C197.218 37.355 196.238 37.1121 195.138 37.1121C194.038 37.1121 193.058 37.355 192.196 37.8406C191.335 38.3263 190.657 38.9999 190.162 39.8613C189.667 40.7135 189.42 41.6941 189.42 42.8029C189.42 43.9026 189.667 44.8831 190.162 45.7445C190.657 46.6059 191.335 47.2795 192.196 47.7652C193.058 48.2509 194.038 48.4937 195.138 48.4937ZM225.473 50.2807C223.778 50.2807 222.202 49.9829 220.745 49.3872C219.288 48.7915 218.014 47.9622 216.923 46.8992C215.842 45.827 214.999 44.5761 214.394 43.1466C213.789 41.717 213.487 40.1729 213.487 38.5142C213.487 36.8555 213.789 35.3114 214.394 33.8818C214.999 32.4522 215.842 31.2059 216.923 30.1429C218.014 29.0708 219.283 28.2368 220.731 27.6412C222.188 27.0455 223.769 26.7477 225.473 26.7477C226.894 26.7477 228.227 26.9585 229.473 27.38C230.72 27.7924 231.819 28.3605 232.772 29.0845L231.783 30.8302C230.976 30.1796 230.042 29.6802 228.979 29.3319C227.916 28.9837 226.788 28.8096 225.597 28.8096C224.158 28.8096 222.839 29.057 221.638 29.5519C220.447 30.0467 219.411 30.734 218.532 31.6137C217.652 32.4935 216.969 33.5244 216.484 34.7066C216.007 35.8887 215.769 37.1579 215.769 38.5142C215.769 39.8705 216.007 41.1397 216.484 42.3218C216.969 43.504 217.652 44.5349 218.532 45.4146C219.411 46.2944 220.447 46.9817 221.638 47.4765C222.839 47.9714 224.158 48.2188 225.597 48.2188C226.788 48.2188 227.916 48.0447 228.979 47.6965C230.042 47.3482 230.976 46.8488 231.783 46.1982L232.772 47.9439C231.829 48.6587 230.733 49.2268 229.487 49.6484C228.25 50.0699 226.912 50.2807 225.473 50.2807ZM243.651 50.2807C242.185 50.2807 240.861 49.9645 239.679 49.3322C238.506 48.6999 237.576 47.8202 236.888 46.693C236.201 45.5658 235.857 44.2691 235.857 42.8029C235.857 41.3275 236.201 40.0308 236.888 38.9128C237.576 37.7857 238.506 36.9059 239.679 36.2736C240.852 35.6413 242.176 35.3251 243.651 35.3251C245.117 35.3251 246.437 35.6413 247.61 36.2736C248.792 36.9059 249.727 37.7857 250.414 38.9128C251.102 40.0308 251.445 41.3275 251.445 42.8029C251.445 44.2691 251.102 45.5658 250.414 46.693C249.727 47.8202 248.792 48.6999 247.61 49.3322C246.437 49.9645 245.117 50.2807 243.651 50.2807ZM243.651 48.4937C244.751 48.4937 245.731 48.2509 246.593 47.7652C247.454 47.2795 248.132 46.6105 248.627 45.7583C249.122 44.8969 249.37 43.9118 249.37 42.8029C249.37 41.6941 249.122 40.7135 248.627 39.8613C248.132 38.9999 247.454 38.3263 246.593 37.8406C245.731 37.355 244.751 37.1121 243.651 37.1121C242.552 37.1121 241.571 37.355 240.71 37.8406C239.848 38.3263 239.17 38.9999 238.675 39.8613C238.18 40.7135 237.933 41.6941 237.933 42.8029C237.933 43.9026 238.18 44.8831 238.675 45.7445C239.17 46.6059 239.848 47.2795 240.71 47.7652C241.571 48.2509 242.552 48.4937 243.651 48.4937ZM256.233 49.8408V35.765H258.24V37.6894C258.625 37.0296 259.22 36.4706 260.027 36.0124C260.833 35.5542 261.818 35.3251 262.982 35.3251C264.073 35.3251 265.012 35.5497 265.8 35.9987C266.588 36.4477 267.193 37.1029 267.614 37.9644C268.036 38.8166 268.247 39.8475 268.247 41.0572V49.8408H266.24V41.4421C266.24 39.985 265.901 38.8762 265.223 38.1156C264.545 37.3458 263.587 36.9609 262.35 36.9609C261.488 36.9609 260.751 37.135 260.137 37.4832C259.532 37.8223 259.064 38.2759 258.735 38.8441C258.405 39.4031 258.24 40.0125 258.24 40.6723V49.8408H256.233ZM280.497 50.2807C279.021 50.2807 277.702 49.9554 276.538 49.3047C275.383 48.6541 274.476 47.7698 273.816 46.6518C273.156 45.5246 272.826 44.26 272.826 42.8579C272.826 41.804 273.014 40.8235 273.39 39.9163C273.775 38.9999 274.306 38.198 274.984 37.5107C275.663 36.8234 276.451 36.2874 277.349 35.9025C278.247 35.5176 279.204 35.3251 280.222 35.3251C281.615 35.3251 282.852 35.6321 283.933 36.2461C285.024 36.8509 285.885 37.6894 286.517 38.7616C287.159 39.8338 287.498 41.0709 287.534 42.473C287.534 42.583 287.53 42.6746 287.521 42.7479C287.521 42.8121 287.512 42.8946 287.493 42.9954H274.819C274.819 44.095 275.067 45.0664 275.562 45.9095C276.057 46.7526 276.735 47.417 277.596 47.9026C278.467 48.3792 279.461 48.6174 280.579 48.6174C281.642 48.6174 282.595 48.3975 283.438 47.9576C284.29 47.5086 285.001 46.8671 285.569 46.0332L287.053 46.8305C286.384 47.921 285.473 48.7686 284.318 49.3735C283.172 49.9783 281.899 50.2807 280.497 50.2807ZM274.929 41.4833H285.528C285.408 40.6036 285.101 39.8292 284.607 39.1602C284.112 38.4821 283.484 37.9506 282.723 37.5657C281.972 37.1808 281.147 36.9884 280.249 36.9884C279.324 36.9884 278.48 37.1808 277.72 37.5657C276.959 37.9414 276.332 38.4684 275.837 39.1465C275.351 39.8155 275.049 40.5944 274.929 41.4833ZM298.805 50.2807C297.751 50.2807 296.762 50.0974 295.836 49.7309C294.911 49.3551 294.1 48.8282 293.403 48.1501C292.707 47.4719 292.161 46.6793 291.767 45.772C291.373 44.8648 291.176 43.8751 291.176 42.8029C291.176 41.7399 291.369 40.7548 291.754 39.8475C292.138 38.9403 292.675 38.1476 293.362 37.4695C294.058 36.7914 294.869 36.2644 295.795 35.8887C296.72 35.513 297.724 35.3251 298.805 35.3251C299.731 35.3251 300.61 35.4626 301.444 35.7375C302.278 36.0124 302.998 36.3927 303.603 36.8784L302.778 38.2255C301.751 37.4283 300.505 37.0296 299.039 37.0296C297.884 37.0296 296.867 37.2862 295.987 37.7994C295.117 38.3034 294.439 38.9953 293.953 39.875C293.467 40.7456 293.224 41.7216 293.224 42.8029C293.224 43.8934 293.472 44.8785 293.967 45.7583C294.461 46.6289 295.149 47.3162 296.029 47.8202C296.908 48.3242 297.916 48.5762 299.053 48.5762C299.767 48.5762 300.441 48.4754 301.073 48.2738C301.715 48.063 302.278 47.7652 302.764 47.3803L303.603 48.7274C302.989 49.2039 302.269 49.5796 301.444 49.8546C300.62 50.1386 299.74 50.2807 298.805 50.2807ZM311.339 50.2807C310.285 50.2807 309.465 49.9279 308.878 49.2223C308.301 48.5075 308.012 47.504 308.012 46.2119V37.2771H306.583V35.765H308.012V30.5003H310.019V35.765H313.525V37.2771H310.019V46.1019C310.019 46.8809 310.171 47.4765 310.473 47.8889C310.775 48.3013 311.206 48.5075 311.765 48.5075C312.306 48.5075 312.782 48.3563 313.195 48.0539L313.703 49.6484C313.392 49.8408 313.025 49.992 312.604 50.102C312.182 50.2211 311.76 50.2807 311.339 50.2807ZM324.043 50.2807C322.723 50.2807 321.532 49.96 320.469 49.3185C319.415 48.6678 318.576 47.7789 317.953 46.6518C317.339 45.5246 317.032 44.2371 317.032 42.7892C317.032 41.3596 317.335 40.0858 317.94 38.9678C318.553 37.8406 319.387 36.9517 320.441 36.3011C321.504 35.6505 322.705 35.3251 324.043 35.3251C325.316 35.3251 326.471 35.623 327.507 36.2186C328.542 36.8143 329.33 37.639 329.871 38.6929V35.765H331.878V49.8408H329.871V46.8717C329.266 47.9347 328.455 48.7686 327.438 49.3735C326.421 49.9783 325.289 50.2807 324.043 50.2807ZM324.538 48.535C325.591 48.535 326.522 48.2921 327.328 47.8064C328.144 47.3116 328.785 46.6334 329.252 45.772C329.72 44.9015 329.953 43.9118 329.953 42.8029C329.953 41.6849 329.72 40.6952 329.252 39.8338C328.794 38.9724 328.157 38.2988 327.342 37.8131C326.526 37.3183 325.591 37.0709 324.538 37.0709C323.484 37.0709 322.549 37.3183 321.733 37.8131C320.918 38.2988 320.276 38.9724 319.809 39.8338C319.342 40.6952 319.108 41.6849 319.108 42.8029C319.108 43.9118 319.342 44.9015 319.809 45.772C320.276 46.6334 320.918 47.3116 321.733 47.8064C322.549 48.2921 323.484 48.535 324.538 48.535ZM343.802 50.2807C342.483 50.2807 341.292 49.96 340.229 49.3185C339.175 48.677 338.336 47.7927 337.713 46.6655C337.099 45.5384 336.792 44.2508 336.792 42.8029C336.792 41.3642 337.099 40.0858 337.713 38.9678C338.327 37.8406 339.161 36.9517 340.215 36.3011C341.278 35.6505 342.483 35.3251 343.83 35.3251C345.085 35.3251 346.222 35.623 347.239 36.2186C348.256 36.8143 349.053 37.639 349.631 38.6929V26.1841H351.638V49.8408H349.631V46.8717C349.035 47.9347 348.224 48.7686 347.198 49.3735C346.18 49.9783 345.049 50.2807 343.802 50.2807ZM344.284 48.535C345.337 48.535 346.272 48.2921 347.088 47.8064C347.903 47.3116 348.545 46.6334 349.012 45.772C349.48 44.9015 349.713 43.9163 349.713 42.8167C349.713 41.6987 349.48 40.709 349.012 39.8475C348.554 38.977 347.912 38.2988 347.088 37.8131C346.272 37.3183 345.337 37.0709 344.284 37.0709C343.239 37.0709 342.309 37.3183 341.493 37.8131C340.678 38.2988 340.036 38.977 339.569 39.8475C339.101 40.709 338.868 41.6987 338.868 42.8167C338.868 43.9255 339.097 44.9106 339.555 45.772C340.022 46.6334 340.664 47.3116 341.479 47.8064C342.304 48.2921 343.239 48.535 344.284 48.535ZM364.277 50.2807C362.811 50.2807 361.487 49.9645 360.304 49.3322C359.131 48.6999 358.201 47.8202 357.514 46.693C356.827 45.5658 356.483 44.2691 356.483 42.8029C356.483 41.3275 356.827 40.0308 357.514 38.9128C358.201 37.7857 359.131 36.9059 360.304 36.2736C361.477 35.6413 362.802 35.3251 364.277 35.3251C365.743 35.3251 367.063 35.6413 368.236 36.2736C369.418 36.9059 370.353 37.7857 371.04 38.9128C371.727 40.0308 372.071 41.3275 372.071 42.8029C372.071 44.2691 371.727 45.5658 371.04 46.693C370.353 47.8202 369.418 48.6999 368.236 49.3322C367.063 49.9645 365.743 50.2807 364.277 50.2807ZM364.277 48.4937C365.377 48.4937 366.357 48.2509 367.219 47.7652C368.08 47.2795 368.758 46.6105 369.253 45.7583C369.748 44.8969 369.995 43.9118 369.995 42.8029C369.995 41.6941 369.748 40.7135 369.253 39.8613C368.758 38.9999 368.08 38.3263 367.219 37.8406C366.357 37.355 365.377 37.1121 364.277 37.1121C363.177 37.1121 362.197 37.355 361.335 37.8406C360.474 38.3263 359.796 38.9999 359.301 39.8613C358.806 40.7135 358.559 41.6941 358.559 42.8029C358.559 43.9026 358.806 44.8831 359.301 45.7445C359.796 46.6059 360.474 47.2795 361.335 47.7652C362.197 48.2509 363.177 48.4937 364.277 48.4937ZM378.96 37.2083C378.704 37.2083 378.47 37.1488 378.259 37.0296C378.049 36.9013 377.879 36.7318 377.751 36.521C377.622 36.3011 377.558 36.0628 377.558 35.8062C377.558 35.5405 377.622 35.3022 377.751 35.0915C377.879 34.8807 378.049 34.7112 378.259 34.5829C378.47 34.4546 378.704 34.3904 378.96 34.3904C379.226 34.3904 379.464 34.4546 379.675 34.5829C379.886 34.7112 380.055 34.8807 380.184 35.0915C380.312 35.3022 380.376 35.5405 380.376 35.8062C380.376 36.0628 380.312 36.3011 380.184 36.521C380.055 36.7318 379.886 36.9013 379.675 37.0296C379.464 37.1488 379.226 37.2083 378.96 37.2083ZM378.96 50.2807C378.704 50.2807 378.47 50.2165 378.259 50.0882C378.049 49.96 377.879 49.7904 377.751 49.5796C377.622 49.3597 377.558 49.1215 377.558 48.8649C377.558 48.6083 377.622 48.3746 377.751 48.1638C377.879 47.9439 378.049 47.7744 378.259 47.6552C378.47 47.5269 378.704 47.4628 378.96 47.4628C379.226 47.4628 379.464 47.5269 379.675 47.6552C379.886 47.7744 380.055 47.9439 380.184 48.1638C380.312 48.3746 380.376 48.6083 380.376 48.8649C380.376 49.1215 380.312 49.3597 380.184 49.5796C380.055 49.7904 379.886 49.96 379.675 50.0882C379.464 50.2165 379.226 50.2807 378.96 50.2807Z" fill="white"/>
<path fill-rule="evenodd" clip-rule="evenodd" d="M487.905 51.7761V34.9294C484.941 29.9822 479.577 26.9249 473.801 26.9249C464.745 26.9249 457.368 34.2941 457.368 43.3526C457.368 52.4112 464.745 59.7804 473.801 59.7804C479.577 59.7804 484.941 56.7232 487.905 51.7761ZM428.504 59.7804C437.568 59.7804 444.937 52.4113 444.937 43.3526C444.937 34.294 437.568 26.9249 428.504 26.9249C422.736 26.9249 417.364 29.9822 414.4 34.9294V51.7761C417.364 56.7232 422.736 59.7804 428.504 59.7804ZM435.758 48.5904V38.1156C435.758 37.3477 436.378 36.7255 437.15 36.7255C437.914 36.7255 438.541 37.3478 438.541 38.1156V48.5904C438.541 49.3576 437.914 49.9799 437.15 49.9799C436.378 49.9799 435.758 49.3577 435.758 48.5904ZM444.937 86.3716H434.229C434.193 86.3716 434.15 86.3687 434.107 86.3651V91.4075C434.107 91.7067 434.359 91.9598 434.662 91.9598H444.382C444.576 91.9598 444.713 91.8582 444.771 91.7961C444.829 91.7363 444.937 91.6036 444.937 91.4075V86.3716H444.937ZM444.93 83.5919H434.229C434.193 83.5919 434.15 83.5934 434.107 83.5984V61.7267C438.657 60.3372 442.493 57.3017 444.922 53.3171L444.93 83.5919ZM468.076 86.3716H457.375L457.368 91.4075C457.368 91.6036 457.476 91.7348 457.534 91.7961C457.599 91.8582 457.728 91.9598 457.923 91.9598H467.643C467.946 91.9598 468.198 91.7067 468.198 91.4075V86.3651C468.155 86.3687 468.119 86.3716 468.076 86.3716ZM468.198 83.5984C468.155 83.5934 468.119 83.5919 468.076 83.5919H457.375L457.382 53.3171C459.812 57.3017 463.648 60.3373 468.198 61.7267V83.5984ZM466.547 38.1158V48.5905C466.547 49.3577 465.927 49.9801 465.156 49.9801C464.391 49.9801 463.771 49.3577 463.771 48.5905V38.1158C463.771 37.3478 464.391 36.7256 465.156 36.7256C465.927 36.7255 466.547 37.3478 466.547 38.1158Z" fill="white"/>
<circle cx="487.808" cy="33.9427" r="9.47201" fill="#22E428"/>
</svg>
