<svg width="426" height="92" viewBox="0 0 426 92" fill="none" xmlns="http://www.w3.org/2000/svg">
<path d="M-102.487 7.16222C-101.94 6.06896 -100.823 5.37838 -99.6004 5.37838H420.823C423.077 5.37838 424.637 7.63032 423.844 9.74027L393.94 89.3398C393.467 90.5984 392.264 91.4319 390.919 91.4319H-139.4C-141.799 91.4319 -143.359 88.9074 -142.286 86.7617L-102.487 7.16222Z" fill="#85BFD6"/>
<path d="M-107.865 1.78385C-107.319 0.690587 -106.201 0 -104.979 0H415.445C417.699 0 419.259 2.25194 418.466 4.36189L388.562 83.9614C388.089 85.22 386.885 86.0535 385.541 86.0535H-144.779C-147.177 86.0535 -148.738 83.529 -147.665 81.3834L-107.865 1.78385Z" fill="#133E68"/>
<path d="M50.4357 19.3621C42.1193 19.3621 35.1831 26.0613 35.1831 34.6148C35.1831 37.8689 36.1609 40.7706 38.0376 43.4897L49.2685 61.0146C49.8133 61.8665 51.0592 61.8649 51.6029 61.0146L62.8826 43.43C64.7188 40.8342 65.6883 37.7862 65.6883 34.6148C65.6883 26.2044 58.846 19.3621 50.4357 19.3621ZM50.4357 41.5479C46.613 41.5479 43.5027 38.4375 43.5027 34.6148C43.5027 30.7921 46.613 27.6817 50.4357 27.6817C54.2584 27.6817 57.3687 30.7921 57.3687 34.6148C57.3687 38.4375 54.2584 41.5479 50.4357 41.5479Z" fill="white"/>
<path d="M61.2756 51.2256L54.2935 62.1416C52.4862 64.9594 48.3751 64.9501 46.5765 62.1443L39.5831 51.2284C33.4299 52.6511 29.6367 55.2573 29.6367 58.3717C29.6367 63.776 40.3531 66.6914 50.4357 66.6914C60.5183 66.6914 71.2347 63.776 71.2347 58.3717C71.2347 55.255 67.4363 52.6475 61.2756 51.2256Z" fill="white"/>
</svg>
