<svg width="280" height="70" viewBox="0 0 280 70" fill="none" xmlns="http://www.w3.org/2000/svg">
<rect x="1.5" y="1.5" width="277" height="67" rx="3.5" fill="white" stroke="#092948" stroke-width="3"/>
<path fill-rule="evenodd" clip-rule="evenodd" d="M43.5003 32C44.3286 32 45 31.3284 45 30.5V21.5C45 20.6716 44.3286 20 43.5003 20H34.4964C33.6681 20 32.9967 20.6716 32.9967 21.5C32.9967 22.3284 33.6681 23 34.4964 23H39.8799L26.9721 35.9099C26.3865 36.4956 26.3865 37.4454 26.9721 38.0312C27.5579 38.6171 28.5074 38.6171 29.093 38.0312L42.0005 25.1216V30.5C42.0005 31.3284 42.672 32 43.5003 32ZM19.4992 24.5C17.0144 24.5 15 26.5147 15 29V45.5C15 47.9853 17.0144 50 19.4992 50H35.9963C38.4812 50 40.4955 47.9853 40.4955 45.5V36.5C40.4955 35.6715 39.8241 35 38.9958 35C38.1675 35 37.4961 35.6715 37.4961 36.5V45.5C37.4961 46.3284 36.8246 47 35.9963 47H19.4992C18.6709 47 17.9995 46.3284 17.9995 45.5V29C17.9995 28.1716 18.6709 27.5 19.4992 27.5H28.4976C29.3259 27.5 29.9974 26.8284 29.9974 26C29.9974 25.1716 29.3259 24.5 28.4976 24.5H19.4992Z" fill="#092948"/>
<path d="M90.762 46.448C89.026 46.448 87.4067 46.1447 85.904 45.538C84.4107 44.922 83.0993 44.0727 81.97 42.99C80.85 41.898 79.9773 40.624 79.352 39.168C78.7267 37.712 78.414 36.144 78.414 34.464C78.414 32.784 78.7267 31.216 79.352 29.76C79.9867 28.304 80.864 27.0347 81.984 25.952C83.104 24.86 84.4107 24.0107 85.904 23.404C87.3973 22.788 89.012 22.48 90.748 22.48C92.1853 22.48 93.5387 22.69 94.808 23.11C96.0867 23.5207 97.202 24.0853 98.154 24.804L96.866 27.198C96.1007 26.582 95.2047 26.1107 94.178 25.784C93.1513 25.448 92.0687 25.28 90.93 25.28C89.558 25.28 88.298 25.5133 87.15 25.98C86.002 26.4467 85.0033 27.1 84.154 27.94C83.314 28.7707 82.6607 29.746 82.194 30.866C81.7367 31.9767 81.508 33.176 81.508 34.464C81.508 35.752 81.7367 36.956 82.194 38.076C82.6607 39.1867 83.314 40.162 84.154 41.002C85.0033 41.8327 86.002 42.4813 87.15 42.948C88.298 43.4147 89.558 43.648 90.93 43.648C92.0687 43.648 93.1513 43.4847 94.178 43.158C95.2047 42.822 96.1007 42.346 96.866 41.73L98.154 44.124C97.2207 44.824 96.1193 45.3887 94.85 45.818C93.5807 46.238 92.218 46.448 90.762 46.448ZM109.003 46.448C107.482 46.448 106.11 46.126 104.887 45.482C103.674 44.838 102.708 43.942 101.989 42.794C101.28 41.646 100.925 40.3253 100.925 38.832C100.925 37.3293 101.28 36.0087 101.989 34.87C102.708 33.722 103.674 32.826 104.887 32.182C106.11 31.538 107.482 31.216 109.003 31.216C110.524 31.216 111.892 31.538 113.105 32.182C114.328 32.826 115.294 33.722 116.003 34.87C116.722 36.0087 117.081 37.3293 117.081 38.832C117.081 40.3253 116.722 41.646 116.003 42.794C115.294 43.942 114.328 44.838 113.105 45.482C111.892 46.126 110.524 46.448 109.003 46.448ZM109.017 44.082C110.016 44.082 110.912 43.858 111.705 43.41C112.498 42.962 113.124 42.3413 113.581 41.548C114.038 40.7547 114.267 39.8493 114.267 38.832C114.267 37.8053 114.038 36.9 113.581 36.116C113.124 35.3227 112.498 34.702 111.705 34.254C110.912 33.806 110.016 33.582 109.017 33.582C108.009 33.582 107.108 33.806 106.315 34.254C105.522 34.702 104.896 35.3227 104.439 36.116C103.982 36.9 103.753 37.8053 103.753 38.832C103.753 39.8493 103.982 40.7547 104.439 41.548C104.896 42.3413 105.522 42.962 106.315 43.41C107.108 43.858 108.009 44.082 109.017 44.082ZM121.624 46V31.664H124.34V33.512C124.947 32.7467 125.633 32.1727 126.398 31.79C127.163 31.4073 128.013 31.216 128.946 31.216C130.103 31.216 131.121 31.482 131.998 32.014C132.875 32.5367 133.487 33.2507 133.832 34.156C134.429 33.2413 135.148 32.5227 135.988 32C136.828 31.4773 137.813 31.216 138.942 31.216C139.969 31.216 140.879 31.426 141.672 31.846C142.465 32.266 143.091 32.8727 143.548 33.666C144.005 34.4593 144.234 35.4207 144.234 36.55V46H141.518V37.306C141.518 36.1113 141.205 35.164 140.58 34.464C139.955 33.764 139.124 33.414 138.088 33.414C137.369 33.414 136.721 33.5727 136.142 33.89C135.573 34.198 135.12 34.604 134.784 35.108C134.457 35.6027 134.294 36.1253 134.294 36.676V46H131.578V37.124C131.578 35.9947 131.27 35.094 130.654 34.422C130.038 33.75 129.217 33.414 128.19 33.414C127.471 33.414 126.818 33.568 126.23 33.876C125.651 34.1747 125.189 34.5667 124.844 35.052C124.508 35.5373 124.34 36.046 124.34 36.578V46H121.624ZM149.733 53.28V31.664H152.449V34.268C153.028 33.3067 153.807 32.56 154.787 32.028C155.777 31.4867 156.864 31.216 158.049 31.216C159.431 31.216 160.658 31.5473 161.731 32.21C162.814 32.8727 163.668 33.778 164.293 34.926C164.919 36.0647 165.231 37.3667 165.231 38.832C165.231 40.2787 164.919 41.5807 164.293 42.738C163.677 43.886 162.833 44.7913 161.759 45.454C160.686 46.1167 159.468 46.448 158.105 46.448C156.929 46.448 155.847 46.1727 154.857 45.622C153.868 45.0713 153.065 44.3013 152.449 43.312V53.28H149.733ZM157.391 44.11C158.362 44.11 159.225 43.886 159.981 43.438C160.737 42.9807 161.33 42.3553 161.759 41.562C162.189 40.7687 162.403 39.8633 162.403 38.846C162.403 37.8193 162.184 36.9093 161.745 36.116C161.316 35.3133 160.723 34.688 159.967 34.24C159.221 33.7827 158.362 33.554 157.391 33.554C156.421 33.554 155.553 33.7827 154.787 34.24C154.031 34.688 153.434 35.3087 152.995 36.102C152.566 36.8953 152.351 37.8053 152.351 38.832C152.351 39.8587 152.566 40.7687 152.995 41.562C153.434 42.3553 154.031 42.9807 154.787 43.438C155.553 43.886 156.421 44.11 157.391 44.11ZM175.989 46.448C174.654 46.448 173.446 46.1213 172.363 45.468C171.29 44.8053 170.436 43.9 169.801 42.752C169.176 41.604 168.863 40.2927 168.863 38.818C168.863 37.362 169.171 36.0647 169.787 34.926C170.403 33.778 171.248 32.8727 172.321 32.21C173.394 31.5473 174.617 31.216 175.989 31.216C177.202 31.216 178.308 31.4867 179.307 32.028C180.315 32.5693 181.094 33.3207 181.645 34.282V31.664H184.361V46H181.645V43.312C181.02 44.3013 180.217 45.0713 179.237 45.622C178.257 46.1727 177.174 46.448 175.989 46.448ZM176.717 44.11C177.697 44.11 178.56 43.886 179.307 43.438C180.063 42.9807 180.656 42.3553 181.085 41.562C181.514 40.7687 181.729 39.8587 181.729 38.832C181.729 37.8053 181.514 36.8953 181.085 36.102C180.656 35.3087 180.063 34.688 179.307 34.24C178.56 33.7827 177.697 33.554 176.717 33.554C175.746 33.554 174.883 33.7827 174.127 34.24C173.371 34.688 172.774 35.3087 172.335 36.102C171.906 36.8953 171.691 37.8053 171.691 38.832C171.691 39.8493 171.906 40.7593 172.335 41.562C172.774 42.3553 173.371 42.9807 174.127 43.438C174.883 43.886 175.746 44.11 176.717 44.11ZM190.093 46V31.664H192.809V33.764C193.285 32.9333 193.891 32.3033 194.629 31.874C195.366 31.4353 196.201 31.216 197.135 31.216C197.583 31.216 198.035 31.272 198.493 31.384C198.959 31.4867 199.361 31.6267 199.697 31.804L198.577 34.1C198.287 33.9413 197.951 33.8153 197.569 33.722C197.186 33.6287 196.827 33.582 196.491 33.582C195.865 33.582 195.268 33.7453 194.699 34.072C194.139 34.3893 193.681 34.8047 193.327 35.318C192.981 35.8313 192.809 36.382 192.809 36.97V46H190.093ZM207.03 46.448C205.854 46.448 204.939 46.0607 204.286 45.286C203.632 44.502 203.306 43.4053 203.306 41.996V33.722H201.71V31.664H203.306V26.302H206.022V31.664H209.466V33.722H206.022V41.828C206.022 42.5373 206.162 43.0833 206.442 43.466C206.722 43.8487 207.123 44.04 207.646 44.04C208.168 44.04 208.635 43.886 209.046 43.578L209.732 45.748C209.368 45.9627 208.943 46.1307 208.458 46.252C207.982 46.3827 207.506 46.448 207.03 46.448ZM213.95 46V31.664H216.666V46H213.95ZM215.308 28.766C215 28.766 214.715 28.6913 214.454 28.542C214.202 28.3833 213.996 28.1733 213.838 27.912C213.688 27.6507 213.614 27.366 213.614 27.058C213.614 26.7407 213.688 26.456 213.838 26.204C213.996 25.952 214.202 25.7513 214.454 25.602C214.715 25.4433 215 25.364 215.308 25.364C215.625 25.364 215.91 25.4433 216.162 25.602C216.414 25.7513 216.614 25.952 216.764 26.204C216.922 26.456 217.002 26.7407 217.002 27.058C217.002 27.366 216.922 27.6507 216.764 27.912C216.614 28.1733 216.414 28.3833 216.162 28.542C215.91 28.6913 215.625 28.766 215.308 28.766ZM222.413 46V21.92H225.129V46H222.413ZM230.862 46V21.906H233.578V33.512C234.017 32.8587 234.647 32.3127 235.468 31.874C236.29 31.4353 237.265 31.216 238.394 31.216C239.505 31.216 240.466 31.4493 241.278 31.916C242.09 32.3733 242.716 33.036 243.154 33.904C243.602 34.772 243.826 35.808 243.826 37.012V46H241.11V37.558C241.11 36.214 240.788 35.1827 240.144 34.464C239.5 33.736 238.595 33.372 237.428 33.372C236.626 33.372 235.935 33.5353 235.356 33.862C234.787 34.1887 234.348 34.6227 234.04 35.164C233.732 35.696 233.578 36.2793 233.578 36.914V46H230.862ZM256.054 46.448C254.551 46.448 253.203 46.1167 252.008 45.454C250.813 44.7913 249.871 43.8907 249.18 42.752C248.489 41.604 248.144 40.3113 248.144 38.874C248.144 37.81 248.34 36.816 248.732 35.892C249.124 34.968 249.67 34.156 250.37 33.456C251.07 32.7467 251.882 32.196 252.806 31.804C253.73 31.412 254.719 31.216 255.774 31.216C257.267 31.216 258.574 31.524 259.694 32.14C260.823 32.756 261.701 33.6147 262.326 34.716C262.961 35.8173 263.278 37.096 263.278 38.552C263.278 38.6733 263.273 38.7713 263.264 38.846C263.255 38.9207 263.236 39.0187 263.208 39.14H250.888C250.888 40.1387 251.112 41.0207 251.56 41.786C252.017 42.5513 252.643 43.1533 253.436 43.592C254.239 44.0213 255.158 44.236 256.194 44.236C257.174 44.236 258.051 44.0353 258.826 43.634C259.601 43.2327 260.273 42.6353 260.842 41.842L262.83 42.878C262.149 44.0073 261.211 44.8847 260.016 45.51C258.831 46.1353 257.51 46.448 256.054 46.448ZM251.028 37.138H260.548C260.417 36.4007 260.128 35.7567 259.68 35.206C259.241 34.646 258.686 34.212 258.014 33.904C257.351 33.5867 256.619 33.428 255.816 33.428C254.976 33.428 254.215 33.582 253.534 33.89C252.862 34.1887 252.307 34.618 251.868 35.178C251.439 35.7287 251.159 36.382 251.028 37.138Z" fill="#595E60"/>
<rect x="60" y="21" width="2" height="28" fill="#6E6464"/>
</svg>
