<svg width="713" height="112" viewBox="0 0 713 112" fill="none" xmlns="http://www.w3.org/2000/svg">
<path d="M12.6133 16.9919C12.6133 14.0215 15.0212 11.6135 17.9916 11.6135H707.235C710.205 11.6135 712.613 14.0215 712.613 16.9919V106.235C712.613 109.206 710.205 111.614 707.235 111.614H17.9917C15.0213 111.614 12.6133 109.206 12.6133 106.235V16.9919Z" fill="#85BFD6"/>
<path d="M1.61328 6.99187C1.61328 4.02149 4.02125 1.61353 6.99163 1.61353H696.235C699.205 1.61353 701.613 4.02149 701.613 6.99187V96.2352C701.613 99.2056 699.205 101.614 696.235 101.614H6.99166C4.02128 101.614 1.61328 99.2056 1.61328 96.2352V6.99187Z" fill="#092948" stroke="white" stroke-width="3.22701"/>
</svg>
