<svg width="205" height="65" viewBox="0 0 205 65" fill="none" xmlns="http://www.w3.org/2000/svg">
<rect x="5" y="5" width="200" height="60" rx="5" fill="#85BFD6"/>
<rect width="200" height="60" rx="5" fill="#133E68"/>
<path d="M62.3299 27.5197C62.1431 27.7889 61.8572 27.973 61.5348 28.0316C61.2125 28.0902 60.88 28.0185 60.6105 27.8322L45.9567 17.687C45.7496 17.5444 45.5042 17.4682 45.2528 17.4683C45.0015 17.4684 44.7561 17.5449 44.5491 17.6876L29.9382 27.831C29.6691 28.0172 29.337 28.0889 29.015 28.0305C28.693 27.9722 28.4073 27.7884 28.2207 27.5196C28.034 27.2508 27.9616 26.9189 28.0194 26.5968C28.0772 26.2747 28.2604 25.9886 28.5289 25.8015L43.1399 15.658C43.7608 15.23 44.4971 15.0005 45.2513 15C46.0055 14.9995 46.742 15.2279 47.3636 15.655L62.0174 25.8003C62.2868 25.9869 62.4711 26.2728 62.5297 26.5953C62.5883 26.9177 62.5165 27.2503 62.3299 27.5197ZM57.2199 27.4135L45.9609 19.8795C45.7576 19.7432 45.5184 19.6704 45.2737 19.6704C45.029 19.6704 44.7898 19.7432 44.5866 19.8795L33.3276 27.4135C32.8209 27.7519 32.4057 28.2101 32.1187 28.7475C31.8317 29.2848 31.6818 29.8848 31.6824 30.494V41.2933C31.6834 42.276 32.0743 43.2182 32.7692 43.9131C33.4641 44.6081 34.4063 44.9989 35.3891 45H40.3314V37.5865C40.3314 36.6034 40.7219 35.6606 41.4171 34.9655C42.1122 34.2703 43.0551 33.8798 44.0382 33.8798H46.5093C47.4924 33.8798 48.4352 34.2703 49.1304 34.9655C49.8255 35.6606 50.216 36.6034 50.216 37.5865V45H55.1584C56.1411 44.9989 57.0833 44.6081 57.7782 43.9131C58.4731 43.2182 58.864 42.276 58.8651 41.2933V30.494C58.8657 29.8848 58.7158 29.2848 58.4288 28.7475C58.1418 28.2101 57.7265 27.7519 57.2199 27.4135ZM58.8651 17.8173C58.8651 17.1619 58.6047 16.5333 58.1413 16.0699C57.6779 15.6065 57.0493 15.3461 56.3939 15.3461H55.1584C54.7276 15.3471 54.3047 15.4611 53.9319 15.6767C53.559 15.8923 53.2493 16.202 53.0337 16.5749L58.8651 20.612V17.8173Z" fill="white"/>
<path d="M86.1153 41.2143V18.2322H88.9428V28.4557H100.308V18.2322H103.136V41.2143H100.308V30.935H88.9428V41.2143H86.1153ZM116.457 41.66C114.943 41.66 113.578 41.3397 112.362 40.6989C111.155 40.0582 110.194 39.1668 109.479 38.0247C108.773 36.8825 108.42 35.5686 108.42 34.0829C108.42 32.5879 108.773 31.2739 109.479 30.1411C110.194 28.9989 111.155 28.1075 112.362 27.4668C113.578 26.8261 114.943 26.5057 116.457 26.5057C117.97 26.5057 119.331 26.8261 120.538 27.4668C121.754 28.1075 122.715 28.9989 123.421 30.1411C124.136 31.2739 124.494 32.5879 124.494 34.0829C124.494 35.5686 124.136 36.8825 123.421 38.0247C122.715 39.1668 121.754 40.0582 120.538 40.6989C119.331 41.3397 117.97 41.66 116.457 41.66ZM116.471 39.3061C117.464 39.3061 118.356 39.0832 119.145 38.6375C119.934 38.1918 120.557 37.5743 121.012 36.785C121.467 35.9957 121.694 35.095 121.694 34.0829C121.694 33.0614 121.467 32.1607 121.012 31.3807C120.557 30.5914 119.934 29.9739 119.145 29.5282C118.356 29.0825 117.464 28.8597 116.471 28.8597C115.468 28.8597 114.572 29.0825 113.783 29.5282C112.993 29.9739 112.371 30.5914 111.916 31.3807C111.461 32.1607 111.234 33.0614 111.234 34.0829C111.234 35.095 111.461 35.9957 111.916 36.785C112.371 37.5743 112.993 38.1918 113.783 38.6375C114.572 39.0832 115.468 39.3061 116.471 39.3061ZM129.013 41.2143V26.9514H131.715V28.79C132.319 28.0286 133.002 27.4575 133.763 27.0768C134.524 26.6961 135.369 26.5057 136.298 26.5057C137.449 26.5057 138.462 26.7704 139.334 27.2997C140.207 27.8197 140.815 28.53 141.159 29.4307C141.753 28.5207 142.468 27.8057 143.304 27.2857C144.14 26.7657 145.119 26.5057 146.243 26.5057C147.264 26.5057 148.17 26.7147 148.959 27.1325C149.748 27.5504 150.37 28.1539 150.825 28.9432C151.28 29.7325 151.508 30.6889 151.508 31.8125V41.2143H148.806V32.5647C148.806 31.3761 148.495 30.4336 147.873 29.7372C147.25 29.0407 146.424 28.6925 145.393 28.6925C144.678 28.6925 144.033 28.8504 143.457 29.1661C142.891 29.4725 142.44 29.8764 142.106 30.3779C141.781 30.87 141.619 31.39 141.619 31.9379V41.2143H138.917V32.3836C138.917 31.26 138.61 30.3639 137.997 29.6954C137.384 29.0268 136.567 28.6925 135.546 28.6925C134.831 28.6925 134.181 28.8457 133.596 29.1522C133.02 29.4493 132.56 29.8393 132.217 30.3222C131.883 30.805 131.715 31.3111 131.715 31.8404V41.2143H129.013ZM163.707 41.66C162.212 41.66 160.87 41.3304 159.681 40.6711C158.493 40.0118 157.555 39.1157 156.868 37.9829C156.181 36.8407 155.837 35.5547 155.837 34.1247C155.837 33.0661 156.032 32.0772 156.422 31.1579C156.812 30.2386 157.355 29.4307 158.052 28.7343C158.748 28.0286 159.556 27.4807 160.475 27.0907C161.395 26.7007 162.379 26.5057 163.428 26.5057C164.914 26.5057 166.214 26.8122 167.328 27.425C168.452 28.0379 169.325 28.8922 169.947 29.9879C170.578 31.0836 170.894 32.3557 170.894 33.8043C170.894 33.925 170.889 34.0225 170.88 34.0968C170.871 34.1711 170.852 34.2686 170.824 34.3893H158.567C158.567 35.3829 158.79 36.2604 159.236 37.0218C159.691 37.7832 160.313 38.3822 161.102 38.8186C161.901 39.2457 162.815 39.4593 163.846 39.4593C164.821 39.4593 165.694 39.2597 166.465 38.8604C167.235 38.4611 167.904 37.8668 168.47 37.0775L170.448 38.1082C169.77 39.2318 168.837 40.1047 167.649 40.7268C166.469 41.3489 165.155 41.66 163.707 41.66ZM158.706 32.3975H168.178C168.048 31.6639 167.76 31.0232 167.314 30.4754C166.878 29.9182 166.325 29.4864 165.657 29.18C164.997 28.8643 164.269 28.7064 163.47 28.7064C162.634 28.7064 161.877 28.8597 161.2 29.1661C160.531 29.4632 159.979 29.8904 159.542 30.4475C159.115 30.9954 158.836 31.6454 158.706 32.3975Z" fill="white"/>
</svg>
