<svg width="60" height="60" viewBox="0 0 60 60" fill="none" xmlns="http://www.w3.org/2000/svg">
<rect x="1" y="1" width="58" height="58" rx="4" stroke="#133E68" stroke-opacity="0.3" stroke-width="2"/>
<path d="M48.5 27.0133L46.34 26.7967C46.195 26.0483 45.9983 25.3133 45.7567 24.6033L47.5167 23.3383C48.2133 22.8367 48.4167 21.8967 47.9867 21.1517L46.6567 18.85C46.2283 18.1067 45.3133 17.8117 44.5283 18.1633L42.5583 19.0533C42.06 18.4817 41.52 17.9417 40.9483 17.4433L41.8383 15.4717C42.19 14.6883 41.895 13.7733 41.1517 13.3433L38.85 12.015C38.1033 11.585 37.165 11.7883 36.6633 12.485L35.3983 14.245C34.6883 14.0017 33.9533 13.8067 33.205 13.6617L32.9883 11.5017C32.9017 10.645 32.1883 10 31.3283 10H28.67C27.81 10 27.0967 10.645 27.0117 11.5L26.795 13.66C26.0467 13.805 25.3117 14.0017 24.6017 14.2433L23.3367 12.485C22.8367 11.7883 21.8967 11.585 21.15 12.015L18.85 13.3433C18.105 13.7733 17.81 14.6883 18.1633 15.4733L19.0533 17.4433C18.48 17.9417 17.9417 18.48 17.4433 19.0533L15.4717 18.1617C14.6883 17.81 13.7733 18.105 13.3433 18.85L12.015 21.15C11.585 21.8967 11.7883 22.8367 12.485 23.3367L14.245 24.6017C14.0017 25.3117 13.8067 26.0467 13.6617 26.795L11.5017 27.0117C10.645 27.0983 10 27.8117 10 28.6717V31.33C10 32.19 10.645 32.9033 11.5 32.9883L13.66 33.205C13.805 33.9533 14.0017 34.6883 14.2433 35.3983L12.4833 36.6633C11.7867 37.165 11.5833 38.105 12.0133 38.85L13.3417 41.1517C13.7717 41.8967 14.6883 42.1933 15.47 41.8383L17.44 40.9483C17.9383 41.52 18.4783 42.06 19.05 42.5583L18.16 44.53C17.8083 45.3133 18.1033 46.2283 18.8467 46.6583L21.1483 47.9867C21.895 48.4183 22.835 48.215 23.335 47.5167L24.6 45.7567C25.31 46 26.045 46.195 26.7933 46.34L27.01 48.5C27.0983 49.355 27.8117 50 28.6717 50H31.33C32.19 50 32.9033 49.355 32.9883 48.5L33.205 46.34C33.9533 46.195 34.6883 45.9983 35.3983 45.7567L36.6633 47.5167C37.165 48.2133 38.1017 48.415 38.85 47.9867L41.1517 46.6583C41.895 46.2283 42.1917 45.3133 41.8383 44.53L40.9483 42.56C41.52 42.0617 42.06 41.5217 42.5583 40.95L44.53 41.84C45.3133 42.1917 46.23 41.8983 46.6583 41.1533L47.9867 38.8517C48.4167 38.1067 48.2133 37.1667 47.5167 36.665L45.7567 35.4C46 34.69 46.195 33.955 46.34 33.2067L48.5 32.99C49.355 32.9017 50 32.1883 50 31.3283V28.67C50 27.8117 49.355 27.0983 48.5 27.0133ZM30 18.3333C35.865 18.3333 40.72 22.6883 41.5333 28.3333H33.8133C33.1683 26.865 31.705 25.8333 30 25.8333C29.845 25.8333 29.6967 25.8633 29.545 25.88L25.675 19.1733C27.0133 18.6367 28.4717 18.3333 30 18.3333ZM18.3333 30C18.3333 26.2883 20.0817 22.9833 22.79 20.845L26.655 27.5383C26.145 28.2317 25.8333 29.0767 25.8333 30C25.8333 30.9233 26.145 31.7683 26.655 32.46L22.79 39.1533C20.0817 37.015 18.3333 33.7117 18.3333 30ZM30 41.6667C28.4717 41.6667 27.0133 41.3633 25.675 40.825L29.5467 34.12C29.6967 34.1367 29.845 34.1667 30 34.1667C31.705 34.1667 33.1683 33.135 33.8133 31.6667H41.5333C40.72 37.3117 35.865 41.6667 30 41.6667Z" fill="#595E60"/>
</svg>
