<svg width="82" height="82" viewBox="0 0 82 82" fill="none" xmlns="http://www.w3.org/2000/svg">
<rect x="2.368" y="2.368" width="76.4898" height="76.4898" rx="5.12977" stroke="#133E68" stroke-opacity="0.3" stroke-width="4.736"/>
<path d="M23.9324 56.0219C23.9324 56.48 23.7965 56.9279 23.542 57.3089C23.2874 57.6898 22.9256 57.9867 22.5023 58.1621C22.079 58.3374 21.6133 58.3833 21.1639 58.2939C20.7145 58.2045 20.3018 57.9839 19.9778 57.6599C19.6538 57.3359 19.4332 56.9232 19.3438 56.4738C19.2544 56.0244 19.3003 55.5587 19.4757 55.1354C19.651 54.7121 19.9479 54.3503 20.3288 54.0958C20.7098 53.8412 21.1577 53.7053 21.6158 53.7053C22.2302 53.7053 22.8194 53.9494 23.2539 54.3838C23.6883 54.8183 23.9324 55.4075 23.9324 56.0219ZM20.8437 47.5279C20.4341 47.5279 20.0413 47.6907 19.7516 47.9803C19.462 48.2699 19.2993 48.6627 19.2993 49.0723C19.2993 49.4819 19.462 49.8747 19.7516 50.1643C20.0413 50.4539 20.4341 50.6166 20.8437 50.6166C22.482 50.6166 24.0533 51.2675 25.2117 52.426C26.3702 53.5845 27.0211 55.1557 27.0211 56.794C27.0211 57.2036 27.1838 57.5964 27.4734 57.8861C27.763 58.1757 28.1558 58.3384 28.5654 58.3384C28.975 58.3384 29.3678 58.1757 29.6574 57.8861C29.9471 57.5964 30.1098 57.2036 30.1098 56.794C30.1098 54.3365 29.1335 51.9797 27.3958 50.2419C25.6581 48.5042 23.3012 47.5279 20.8437 47.5279ZM20.8437 41.3506C20.4341 41.3506 20.0413 41.5133 19.7516 41.8029C19.462 42.0925 19.2993 42.4853 19.2993 42.8949C19.2993 43.3045 19.462 43.6973 19.7516 43.9869C20.0413 44.2765 20.4341 44.4392 20.8437 44.4392C24.1204 44.4392 27.2629 45.7409 29.5798 48.0579C31.8968 50.3749 33.1985 53.5173 33.1985 56.794C33.1985 57.2036 33.3612 57.5964 33.6508 57.8861C33.9404 58.1757 34.3332 58.3384 34.7428 58.3384C35.1524 58.3384 35.5452 58.1757 35.8348 57.8861C36.1245 57.5964 36.2872 57.2036 36.2872 56.794C36.2872 52.6982 34.6601 48.7701 31.7639 45.8738C28.8677 42.9776 24.9395 41.3506 20.8437 41.3506ZM57.9081 22.8184H23.9324C22.7036 22.8184 21.5252 23.3065 20.6563 24.1753C19.7874 25.0442 19.2993 26.2226 19.2993 27.4514V37.4897C19.2993 37.8993 19.462 38.2921 19.7516 38.5817C20.0413 38.8713 20.4341 39.034 20.8437 39.034H21.6158C26.3248 39.0381 30.8398 40.9106 34.1696 44.2403C37.4993 47.5701 39.3718 52.085 39.3759 56.794C39.3759 57.2036 39.5386 57.5964 39.8282 57.8861C40.1178 58.1757 40.5106 58.3384 40.9202 58.3384H57.9081C59.1368 58.3384 60.3153 57.8503 61.1841 56.9814C62.053 56.1125 62.5411 54.9341 62.5411 53.7053V27.4514C62.5411 26.2226 62.053 25.0442 61.1841 24.1753C60.3153 23.3065 59.1368 22.8184 57.9081 22.8184Z" fill="#595E60"/>
</svg>
