<svg width="280" height="299" viewBox="0 0 280 299" fill="none" xmlns="http://www.w3.org/2000/svg">
<path d="M221.421 295.608C227.891 295.608 233.136 290.363 233.136 283.893C233.136 277.423 227.891 272.177 221.421 272.177C214.95 272.177 209.705 277.423 209.705 283.893C209.705 290.363 214.95 295.608 221.421 295.608Z" fill="#DBECF9"/>
<path d="M244.851 255.026C251.322 255.026 256.567 249.78 256.567 243.31C256.567 236.84 251.322 231.594 244.851 231.594C238.381 231.594 233.136 236.84 233.136 243.31C233.136 249.78 238.381 255.026 244.851 255.026Z" fill="#DBECF9"/>
<path d="M168.7 295.608C175.17 295.608 180.416 290.363 180.416 283.893C180.416 277.423 175.17 272.177 168.7 272.177C162.23 272.177 156.984 277.423 156.984 283.893C156.984 290.363 162.23 295.608 168.7 295.608Z" fill="#DBECF9"/>
<path d="M192.132 255.026C198.602 255.026 203.847 249.78 203.847 243.31C203.847 236.84 198.602 231.594 192.132 231.594C185.661 231.594 180.416 236.84 180.416 243.31C180.416 249.78 185.661 255.026 192.132 255.026Z" fill="#DBECF9"/>
<path d="M145.551 245.16C147.977 240.957 146.537 235.583 142.335 233.157C138.132 230.731 132.759 232.17 130.332 236.373L103.972 282.029C101.546 286.231 102.985 291.605 107.188 294.031C111.39 296.458 116.764 295.018 119.191 290.815L145.551 245.16Z" fill="#00B6F1"/>
<path d="M92.8316 245.16C95.258 240.957 93.8182 235.583 89.6157 233.157C85.4132 230.731 80.0394 232.17 77.613 236.373L51.2527 282.029C48.8263 286.231 50.2661 291.605 54.4687 294.031C58.6712 296.458 64.045 295.018 66.4714 290.815L92.8316 245.16Z" fill="#00B6F1"/>
<path d="M34.2564 243.589C36.6828 239.387 35.243 234.013 31.0405 231.587C26.838 229.16 21.4642 230.6 19.0378 234.803L4.39318 260.167C1.96679 264.369 3.40662 269.743 7.60914 272.17C11.8117 274.596 17.1854 273.156 19.6118 268.954L34.2564 243.589Z" fill="#00B6F1"/>
<path d="M239.832 140.587C239.832 140.587 179.871 140.587 162.843 140.587C124.021 140.587 92.5488 109.116 92.5488 70.2937C92.5488 31.4717 124.021 0 162.843 0C198.486 0 227.932 26.5277 232.517 60.9163C234.889 60.4798 237.333 60.2517 239.832 60.2517C262.016 60.2517 280 78.2355 280 100.42C280 122.604 262.016 140.587 239.832 140.587Z" fill="url(#paint0_linear_41_1121)"/>
<path d="M218.91 205.023C218.91 205.023 136.464 205.023 113.051 205.023C59.6701 205.023 16.3965 160.439 16.3965 105.441C16.3965 50.4425 59.6701 5.85779 113.051 5.85779C162.059 5.85779 202.549 43.4386 208.852 92.1556C212.114 91.5376 215.475 91.2146 218.91 91.2146C249.414 91.2146 274.141 116.691 274.141 148.119C274.141 179.546 249.414 205.023 218.91 205.023Z" fill="black" fill-opacity="0.15"/>
<path d="M213.052 199.166C213.052 199.166 130.606 199.166 107.192 199.166C53.8117 199.166 10.5381 154.581 10.5381 99.5828C10.5381 44.5847 53.8117 0 107.192 0C156.201 0 196.69 37.5808 202.994 86.2978C206.255 85.6796 209.617 85.3568 213.052 85.3568C243.555 85.3568 268.283 110.834 268.283 142.261C268.283 173.688 243.555 199.166 213.052 199.166Z" fill="url(#paint1_linear_41_1121)"/>
<defs>
<linearGradient id="paint0_linear_41_1121" x1="92.5488" y1="0" x2="280.418" y2="142.05" gradientUnits="userSpaceOnUse">
<stop stop-color="#6A869C"/>
<stop offset="1" stop-color="#BDD2E2"/>
</linearGradient>
<linearGradient id="paint1_linear_41_1121" x1="10.5381" y1="0" x2="270.941" y2="195.626" gradientUnits="userSpaceOnUse">
<stop stop-color="#DFDFDF"/>
<stop offset="1" stop-color="white"/>
</linearGradient>
</defs>
</svg>
