<svg width="280" height="70" viewBox="0 0 280 70" fill="none" xmlns="http://www.w3.org/2000/svg">
<rect x="1.5" y="1.5" width="277" height="67" rx="3.5" fill="white" stroke="#092948" stroke-width="3"/>
<path fill-rule="evenodd" clip-rule="evenodd" d="M45.5026 19.1511C46.0638 18.8877 46.7264 18.9734 47.2025 19.3709L56.7854 27.3709C57.1495 27.6748 57.36 28.1252 57.36 28.6C57.36 29.0749 57.1495 29.5252 56.7854 29.8292L50.5915 35L56.7854 40.1709C57.1495 40.4749 57.36 40.9251 57.36 41.4C57.36 41.8749 57.1495 42.3251 56.7854 42.6291L47.2025 50.6291C46.7264 51.0265 46.0638 51.1123 45.5026 50.8489C44.9414 50.5856 44.5829 50.0208 44.5829 49.4V40.0161L37.6197 45.8291C36.942 46.3949 35.9349 46.3032 35.3702 45.6243C34.8055 44.9454 34.8971 43.9366 35.5747 43.3709L44.5829 35.8505V34.1494L35.5747 26.6292C34.8971 26.0635 34.8055 25.0546 35.3702 24.3757C35.9349 23.6969 36.942 23.6052 37.6197 24.1709L44.5829 29.9839V20.6C44.5829 19.9792 44.9414 19.4144 45.5026 19.1511ZM48.0966 32.9173L47.7772 32.6505V24.0161L53.2681 28.6L48.0966 32.9173ZM48.0966 37.0827L47.7772 37.3494V45.984L53.2681 41.4L48.0966 37.0827ZM64.644 24.9012C65.36 24.3851 66.358 24.5483 66.8731 25.2657C68.8408 28.0057 70 31.3696 70 35C70 38.6304 68.8408 41.9944 66.8731 44.7344C66.358 45.4517 65.36 45.6149 64.644 45.0989C63.928 44.5829 63.7651 43.583 64.2801 42.8656C65.8698 40.652 66.8057 37.9377 66.8057 35C66.8057 32.0622 65.8698 29.3481 64.2801 27.1344C63.7651 26.417 63.928 25.4172 64.644 24.9012ZM59.6406 28.6593C60.3641 28.1538 61.3598 28.3315 61.8643 29.0562C63.0377 30.7414 63.7261 32.7926 63.7261 35.0001C63.7261 37.2077 63.0377 39.2589 61.8643 40.9441C61.3598 41.6688 60.3641 41.8465 59.6406 41.3411C58.9173 40.8355 58.7398 39.8381 59.2443 39.1134C60.056 37.9478 60.5318 36.532 60.5318 35.0001C60.5318 33.4683 60.056 32.0525 59.2443 30.8869C58.7398 30.1622 58.9173 29.1648 59.6406 28.6593Z" fill="#092948"/>
<path d="M104.534 46V22.9H109.938C112.178 22.9 113.923 23.3993 115.174 24.398C116.425 25.3873 117.05 26.8293 117.05 28.724C117.05 31.2253 115.977 32.952 113.83 33.904C115.519 34.1467 116.817 34.772 117.722 35.78C118.637 36.7787 119.094 38.0947 119.094 39.728C119.094 41.0347 118.8 42.1593 118.212 43.102C117.624 44.0353 116.784 44.754 115.692 45.258C114.6 45.7527 113.298 46 111.786 46H104.534ZM107.376 32.98H109.364C110.96 32.98 112.183 32.644 113.032 31.972C113.891 31.2907 114.32 30.3153 114.32 29.046C114.32 27.7767 113.895 26.8107 113.046 26.148C112.197 25.476 110.969 25.14 109.364 25.14H107.376V32.98ZM107.376 43.732H110.932C112.621 43.732 113.914 43.382 114.81 42.682C115.706 41.9727 116.154 40.96 116.154 39.644C116.154 38.3187 115.697 37.292 114.782 36.564C113.877 35.8267 112.593 35.458 110.932 35.458H107.376V43.732ZM123.136 46V21.92H125.852V46H123.136ZM137.745 46.448C135.44 46.448 133.788 45.9533 132.789 44.964C131.79 43.9653 131.291 42.3087 131.291 39.994V31.664H134.007V39.434C134.007 41.1513 134.292 42.374 134.861 43.102C135.43 43.83 136.392 44.194 137.745 44.194C139.108 44.194 140.074 43.83 140.643 43.102C141.212 42.374 141.497 41.1513 141.497 39.434V31.664H144.213V39.994C144.213 42.3087 143.714 43.9653 142.715 44.964C141.716 45.9533 140.06 46.448 137.745 46.448ZM156.421 46.448C154.918 46.448 153.57 46.1167 152.375 45.454C151.18 44.7913 150.238 43.8907 149.547 42.752C148.856 41.604 148.511 40.3113 148.511 38.874C148.511 37.81 148.707 36.816 149.099 35.892C149.491 34.968 150.037 34.156 150.737 33.456C151.437 32.7467 152.249 32.196 153.173 31.804C154.097 31.412 155.086 31.216 156.141 31.216C157.634 31.216 158.941 31.524 160.061 32.14C161.19 32.756 162.068 33.6147 162.693 34.716C163.328 35.8173 163.645 37.096 163.645 38.552C163.645 38.6733 163.64 38.7713 163.631 38.846C163.622 38.9207 163.603 39.0187 163.575 39.14H151.255C151.255 40.1387 151.479 41.0207 151.927 41.786C152.384 42.5513 153.01 43.1533 153.803 43.592C154.606 44.0213 155.525 44.236 156.561 44.236C157.541 44.236 158.418 44.0353 159.193 43.634C159.968 43.2327 160.64 42.6353 161.209 41.842L163.197 42.878C162.516 44.0073 161.578 44.8847 160.383 45.51C159.198 46.1353 157.877 46.448 156.421 46.448ZM151.395 37.138H160.915C160.784 36.4007 160.495 35.7567 160.047 35.206C159.608 34.646 159.053 34.212 158.381 33.904C157.718 33.5867 156.986 33.428 156.183 33.428C155.343 33.428 154.582 33.582 153.901 33.89C153.229 34.1887 152.674 34.618 152.235 35.178C151.806 35.7287 151.526 36.382 151.395 37.138ZM172.01 46.448C170.834 46.448 169.919 46.0607 169.266 45.286C168.613 44.502 168.286 43.4053 168.286 41.996V33.722H166.69V31.664H168.286V26.302H171.002V31.664H174.446V33.722H171.002V41.828C171.002 42.5373 171.142 43.0833 171.422 43.466C171.702 43.8487 172.103 44.04 172.626 44.04C173.149 44.04 173.615 43.886 174.026 43.578L174.712 45.748C174.348 45.9627 173.923 46.1307 173.438 46.252C172.962 46.3827 172.486 46.448 172.01 46.448ZM185.874 46.448C184.353 46.448 182.981 46.126 181.758 45.482C180.545 44.838 179.579 43.942 178.86 42.794C178.151 41.646 177.796 40.3253 177.796 38.832C177.796 37.3293 178.151 36.0087 178.86 34.87C179.579 33.722 180.545 32.826 181.758 32.182C182.981 31.538 184.353 31.216 185.874 31.216C187.396 31.216 188.763 31.538 189.976 32.182C191.199 32.826 192.165 33.722 192.874 34.87C193.593 36.0087 193.952 37.3293 193.952 38.832C193.952 40.3253 193.593 41.646 192.874 42.794C192.165 43.942 191.199 44.838 189.976 45.482C188.763 46.126 187.396 46.448 185.874 46.448ZM185.888 44.082C186.887 44.082 187.783 43.858 188.576 43.41C189.37 42.962 189.995 42.3413 190.452 41.548C190.91 40.7547 191.138 39.8493 191.138 38.832C191.138 37.8053 190.91 36.9 190.452 36.116C189.995 35.3227 189.37 34.702 188.576 34.254C187.783 33.806 186.887 33.582 185.888 33.582C184.88 33.582 183.98 33.806 183.186 34.254C182.393 34.702 181.768 35.3227 181.31 36.116C180.853 36.9 180.624 37.8053 180.624 38.832C180.624 39.8493 180.853 40.7547 181.31 41.548C181.768 42.3413 182.393 42.962 183.186 43.41C183.98 43.858 184.88 44.082 185.888 44.082ZM205.48 46.448C203.958 46.448 202.586 46.126 201.364 45.482C200.15 44.838 199.184 43.942 198.466 42.794C197.756 41.646 197.402 40.3253 197.402 38.832C197.402 37.3293 197.756 36.0087 198.466 34.87C199.184 33.722 200.15 32.826 201.364 32.182C202.586 31.538 203.958 31.216 205.48 31.216C207.001 31.216 208.368 31.538 209.582 32.182C210.804 32.826 211.77 33.722 212.48 34.87C213.198 36.0087 213.558 37.3293 213.558 38.832C213.558 40.3253 213.198 41.646 212.48 42.794C211.77 43.942 210.804 44.838 209.582 45.482C208.368 46.126 207.001 46.448 205.48 46.448ZM205.494 44.082C206.492 44.082 207.388 43.858 208.182 43.41C208.975 42.962 209.6 42.3413 210.058 41.548C210.515 40.7547 210.744 39.8493 210.744 38.832C210.744 37.8053 210.515 36.9 210.058 36.116C209.6 35.3227 208.975 34.702 208.182 34.254C207.388 33.806 206.492 33.582 205.494 33.582C204.486 33.582 203.585 33.806 202.792 34.254C201.998 34.702 201.373 35.3227 200.916 36.116C200.458 36.9 200.23 37.8053 200.23 38.832C200.23 39.8493 200.458 40.7547 200.916 41.548C201.373 42.3413 201.998 42.962 202.792 43.41C203.585 43.858 204.486 44.082 205.494 44.082ZM221.994 46.448C220.818 46.448 219.904 46.0607 219.25 45.286C218.597 44.502 218.27 43.4053 218.27 41.996V33.722H216.674V31.664H218.27V26.302H220.986V31.664H224.43V33.722H220.986V41.828C220.986 42.5373 221.126 43.0833 221.406 43.466C221.686 43.8487 222.088 44.04 222.61 44.04C223.133 44.04 223.6 43.886 224.01 43.578L224.696 45.748C224.332 45.9627 223.908 46.1307 223.422 46.252C222.946 46.3827 222.47 46.448 221.994 46.448ZM228.929 46V21.906H231.645V33.512C232.083 32.8587 232.713 32.3127 233.535 31.874C234.356 31.4353 235.331 31.216 236.461 31.216C237.571 31.216 238.533 31.4493 239.345 31.916C240.157 32.3733 240.782 33.036 241.221 33.904C241.669 34.772 241.893 35.808 241.893 37.012V46H239.177V37.558C239.177 36.214 238.855 35.1827 238.211 34.464C237.567 33.736 236.661 33.372 235.495 33.372C234.692 33.372 234.001 33.5353 233.423 33.862C232.853 34.1887 232.415 34.6227 232.107 35.164C231.799 35.696 231.645 36.2793 231.645 36.914V46H228.929Z" fill="#595E60"/>
<rect x="85" y="21" width="2" height="28" fill="#595E60"/>
</svg>
