<svg width="344" height="84" viewBox="0 0 344 84" fill="none" xmlns="http://www.w3.org/2000/svg">
<path d="M23.0532 7.78732C23.6096 5.56149 25.6095 4 27.9039 4H337.596C340.849 4 343.236 7.05694 342.447 10.2127L324.947 80.2127C324.39 82.4385 322.39 84 320.096 84H10.4039C7.15101 84 4.76424 80.9431 5.55317 77.7873L23.0532 7.78732Z" fill="#85BFD6"/>
<path d="M19.0532 3.78732C19.6096 1.56149 21.6095 0 23.9039 0H333.596C336.849 0 339.236 3.05694 338.447 6.21268L320.947 76.2127C320.39 78.4385 318.39 80 316.096 80H6.40387C3.15101 80 0.764236 76.9431 1.55317 73.7873L19.0532 3.78732Z" fill="#133E68"/>
<path d="M55.0467 41.7334C54.9603 41.6898 54.8737 41.6681 54.7864 41.6681C54.5986 41.6681 54.433 41.7402 54.2888 41.8847L52.9033 43.27C52.7738 43.4001 52.7087 43.5586 52.7087 43.7464V49.2444C52.7087 50.1971 52.3703 51.0121 51.6916 51.6907C51.0133 52.369 50.1978 52.7081 49.2453 52.7081H31.2345C30.2819 52.7081 29.4664 52.369 28.7882 51.6907C28.1098 51.0122 27.7708 50.1972 27.7708 49.2444V31.2341C27.7708 30.2816 28.1098 29.4663 28.7882 28.7878C29.4664 28.1095 30.2819 27.7704 31.2345 27.7704H49.2454C49.5629 27.7704 49.8876 27.8137 50.2195 27.9004C50.3062 27.9291 50.3711 27.9437 50.4138 27.9437C50.6017 27.9437 50.7678 27.8717 50.912 27.7274L51.9727 26.6667C52.1457 26.4938 52.2109 26.2843 52.1673 26.0392C52.124 25.8083 51.9939 25.6422 51.7775 25.5413C50.9986 25.181 50.154 25 49.2448 25H31.2345C29.5171 25 28.0486 25.6098 26.8291 26.8293C25.6098 28.0489 25 29.5172 25 31.2346V49.2454C25 50.9626 25.6098 52.431 26.8292 53.6505C28.0487 54.8703 29.5172 55.4801 31.2346 55.4801H49.2453C50.9624 55.4801 52.431 54.8703 53.6506 53.6505C54.8701 52.431 55.4804 50.9626 55.4804 49.2454V42.3611C55.4803 42.0583 55.3352 41.8491 55.0467 41.7334Z" fill="white"/>
<path d="M60.4808 29.3072L58.0993 26.9257C57.753 26.5794 57.3414 26.4062 56.865 26.4062C56.3892 26.4062 55.9774 26.5794 55.6313 26.9257L41.6251 40.9318L35.9322 35.2384C35.5857 34.8919 35.1743 34.719 34.6982 34.719C34.2221 34.719 33.8108 34.8919 33.4643 35.2384L31.0832 37.6196C30.7368 37.966 30.5635 38.3774 30.5635 38.8537C30.5635 39.3299 30.7368 39.7412 31.0832 40.0877L40.3915 49.396C40.738 49.7426 41.1494 49.9155 41.6254 49.9155C42.1015 49.9155 42.5129 49.7427 42.8594 49.396L60.4806 31.7749C60.8267 31.4286 61.0002 31.0172 61.0002 30.541C61.0002 30.0649 60.8271 29.6534 60.4808 29.3072Z" fill="white"/>
<path d="M72.025 50L80.1875 29.375H82.55L90.7125 50H87.975L85.6875 43.9875H77.05L74.75 50H72.025ZM77.9125 41.75H84.825L81.3625 32.7625L77.9125 41.75ZM94.29 56.5V37.2H96.715V39.525C97.2317 38.6667 97.9275 38 98.8025 37.525C99.6859 37.0417 100.657 36.8 101.715 36.8C102.948 36.8 104.044 37.0958 105.003 37.6875C105.969 38.2792 106.732 39.0875 107.29 40.1125C107.848 41.1292 108.128 42.2917 108.128 43.6C108.128 44.8917 107.848 46.0542 107.29 47.0875C106.74 48.1125 105.986 48.9208 105.028 49.5125C104.069 50.1042 102.982 50.4 101.765 50.4C100.715 50.4 99.7484 50.1542 98.865 49.6625C97.9817 49.1708 97.265 48.4833 96.715 47.6V56.5H94.29ZM101.128 48.3125C101.994 48.3125 102.765 48.1125 103.44 47.7125C104.115 47.3042 104.644 46.7458 105.028 46.0375C105.411 45.3292 105.603 44.5208 105.603 43.6125C105.603 42.6958 105.407 41.8833 105.015 41.175C104.632 40.4583 104.103 39.9 103.428 39.5C102.761 39.0917 101.994 38.8875 101.128 38.8875C100.261 38.8875 99.4859 39.0917 98.8025 39.5C98.1275 39.9 97.5942 40.4542 97.2025 41.1625C96.8192 41.8708 96.6275 42.6833 96.6275 43.6C96.6275 44.5167 96.8192 45.3292 97.2025 46.0375C97.5942 46.7458 98.1275 47.3042 98.8025 47.7125C99.4859 48.1125 100.261 48.3125 101.128 48.3125ZM112.308 50V28.5H114.733V50H112.308ZM119.839 50V37.2H122.264V50H119.839ZM121.052 34.6125C120.777 34.6125 120.522 34.5458 120.289 34.4125C120.064 34.2708 119.881 34.0833 119.739 33.85C119.606 33.6167 119.539 33.3625 119.539 33.0875C119.539 32.8042 119.606 32.55 119.739 32.325C119.881 32.1 120.064 31.9208 120.289 31.7875C120.522 31.6458 120.777 31.575 121.052 31.575C121.335 31.575 121.589 31.6458 121.814 31.7875C122.039 31.9208 122.218 32.1 122.352 32.325C122.493 32.55 122.564 32.8042 122.564 33.0875C122.564 33.3625 122.493 33.6167 122.352 33.85C122.218 34.0833 122.039 34.2708 121.814 34.4125C121.589 34.5458 121.335 34.6125 121.052 34.6125ZM133.358 50.4C132.391 50.4 131.483 50.2292 130.633 49.8875C129.791 49.5458 129.05 49.0667 128.408 48.45C127.766 47.8333 127.262 47.1125 126.896 46.2875C126.537 45.4625 126.358 44.5667 126.358 43.6C126.358 42.65 126.533 41.7667 126.883 40.95C127.233 40.125 127.725 39.4042 128.358 38.7875C128.991 38.1625 129.733 37.675 130.583 37.325C131.433 36.975 132.354 36.8 133.346 36.8C134.187 36.8 134.987 36.925 135.746 37.175C136.504 37.4167 137.146 37.7458 137.671 38.1625L136.758 39.8C135.916 39.15 134.887 38.825 133.671 38.825C132.704 38.825 131.858 39.0417 131.133 39.475C130.408 39.9 129.846 40.475 129.446 41.2C129.054 41.925 128.858 42.725 128.858 43.6C128.858 44.5 129.062 45.3125 129.471 46.0375C129.879 46.7542 130.446 47.325 131.171 47.75C131.904 48.1667 132.746 48.375 133.696 48.375C134.287 48.375 134.846 48.2917 135.371 48.125C135.896 47.95 136.354 47.7083 136.746 47.4L137.671 49.0375C137.137 49.4458 136.496 49.775 135.746 50.025C134.996 50.275 134.2 50.4 133.358 50.4ZM146.688 50.4C145.496 50.4 144.417 50.1083 143.45 49.525C142.492 48.9333 141.729 48.125 141.163 47.1C140.604 46.075 140.325 44.9042 140.325 43.5875C140.325 42.2875 140.6 41.1292 141.15 40.1125C141.7 39.0875 142.454 38.2792 143.413 37.6875C144.371 37.0958 145.463 36.8 146.688 36.8C147.771 36.8 148.759 37.0417 149.65 37.525C150.55 38.0083 151.246 38.6792 151.738 39.5375V37.2H154.163V50H151.738V47.6C151.179 48.4833 150.463 49.1708 149.588 49.6625C148.713 50.1542 147.746 50.4 146.688 50.4ZM147.338 48.3125C148.213 48.3125 148.984 48.1125 149.65 47.7125C150.325 47.3042 150.854 46.7458 151.238 46.0375C151.621 45.3292 151.813 44.5167 151.813 43.6C151.813 42.6833 151.621 41.8708 151.238 41.1625C150.854 40.4542 150.325 39.9 149.65 39.5C148.984 39.0917 148.213 38.8875 147.338 38.8875C146.471 38.8875 145.7 39.0917 145.025 39.5C144.35 39.9 143.817 40.4542 143.425 41.1625C143.042 41.8708 142.85 42.6833 142.85 43.6C142.85 44.5083 143.042 45.3208 143.425 46.0375C143.817 46.7458 144.35 47.3042 145.025 47.7125C145.7 48.1125 146.471 48.3125 147.338 48.3125ZM159.28 50V37.2H161.705V39.075C162.13 38.3333 162.672 37.7708 163.33 37.3875C163.989 36.9958 164.734 36.8 165.568 36.8C165.968 36.8 166.372 36.85 166.78 36.95C167.197 37.0417 167.555 37.1667 167.855 37.325L166.855 39.375C166.597 39.2333 166.297 39.1208 165.955 39.0375C165.614 38.9542 165.293 38.9125 164.993 38.9125C164.434 38.9125 163.901 39.0583 163.393 39.35C162.893 39.6333 162.484 40.0042 162.168 40.4625C161.859 40.9208 161.705 41.4125 161.705 41.9375V50H159.28ZM176.896 50L179.384 29.375H182.084L187.809 44.55L193.534 29.375H196.234L198.721 50H196.184L194.196 34.025L188.659 48.9625H186.959L181.421 34.025L179.434 50H176.896ZM208.872 50.4C206.814 50.4 205.339 49.9583 204.447 49.075C203.555 48.1833 203.11 46.7042 203.11 44.6375V37.2H205.535V44.1375C205.535 45.6708 205.789 46.7625 206.297 47.4125C206.805 48.0625 207.664 48.3875 208.872 48.3875C210.089 48.3875 210.951 48.0625 211.46 47.4125C211.968 46.7625 212.222 45.6708 212.222 44.1375V37.2H214.647V44.6375C214.647 46.7042 214.201 48.1833 213.31 49.075C212.418 49.9583 210.939 50.4 208.872 50.4ZM224.922 50.4C223.739 50.4 222.664 50.1083 221.697 49.525C220.739 48.9417 219.976 48.1375 219.41 47.1125C218.851 46.0875 218.572 44.9167 218.572 43.6C218.572 42.2917 218.847 41.1292 219.397 40.1125C219.956 39.0875 220.714 38.2792 221.672 37.6875C222.639 37.0958 223.739 36.8 224.972 36.8C226.039 36.8 227.01 37.0417 227.885 37.525C228.768 38.0083 229.468 38.6792 229.985 39.5375V28.4875H232.41V50H229.985V47.6C229.435 48.475 228.718 49.1625 227.835 49.6625C226.951 50.1542 225.981 50.4 224.922 50.4ZM225.572 48.3125C226.447 48.3125 227.222 48.1125 227.897 47.7125C228.572 47.3042 229.101 46.7458 229.485 46.0375C229.868 45.3292 230.06 44.5208 230.06 43.6125C230.06 42.6958 229.868 41.8833 229.485 41.175C229.101 40.4583 228.572 39.9 227.897 39.5C227.222 39.0917 226.451 38.8875 225.585 38.8875C224.718 38.8875 223.947 39.0917 223.272 39.5C222.597 39.9 222.064 40.4583 221.672 41.175C221.289 41.8833 221.097 42.6958 221.097 43.6125C221.097 44.5208 221.289 45.3292 221.672 46.0375C222.056 46.7458 222.585 47.3042 223.26 47.7125C223.935 48.1125 224.706 48.3125 225.572 48.3125ZM242.952 50.4C241.761 50.4 240.682 50.1083 239.715 49.525C238.757 48.9333 237.994 48.125 237.427 47.1C236.869 46.075 236.59 44.9042 236.59 43.5875C236.59 42.2875 236.865 41.1292 237.415 40.1125C237.965 39.0875 238.719 38.2792 239.677 37.6875C240.636 37.0958 241.727 36.8 242.952 36.8C244.036 36.8 245.023 37.0417 245.915 37.525C246.815 38.0083 247.511 38.6792 248.002 39.5375V37.2H250.427V50H248.002V47.6C247.444 48.4833 246.727 49.1708 245.852 49.6625C244.977 50.1542 244.011 50.4 242.952 50.4ZM243.602 48.3125C244.477 48.3125 245.248 48.1125 245.915 47.7125C246.59 47.3042 247.119 46.7458 247.502 46.0375C247.886 45.3292 248.077 44.5167 248.077 43.6C248.077 42.6833 247.886 41.8708 247.502 41.1625C247.119 40.4542 246.59 39.9 245.915 39.5C245.248 39.0917 244.477 38.8875 243.602 38.8875C242.736 38.8875 241.965 39.0917 241.29 39.5C240.615 39.9 240.082 40.4542 239.69 41.1625C239.307 41.8708 239.115 42.6833 239.115 43.6C239.115 44.5083 239.307 45.3208 239.69 46.0375C240.082 46.7458 240.615 47.3042 241.29 47.7125C241.965 48.1125 242.736 48.3125 243.602 48.3125ZM255.545 50V37.2H257.97V38.85C258.362 38.2667 258.924 37.7792 259.657 37.3875C260.391 36.9958 261.262 36.8 262.27 36.8C263.262 36.8 264.12 37.0083 264.845 37.425C265.57 37.8333 266.128 38.425 266.52 39.2C266.92 39.975 267.12 40.9 267.12 41.975V50H264.695V42.4625C264.695 41.2625 264.407 40.3417 263.832 39.7C263.257 39.0583 262.449 38.7375 261.407 38.7375C260.691 38.7375 260.074 38.8833 259.557 39.175C259.049 39.4583 258.657 39.8417 258.382 40.325C258.107 40.8 257.97 41.3208 257.97 41.8875V50H255.545ZM277.963 50.4C276.996 50.4 276.088 50.2292 275.238 49.8875C274.396 49.5458 273.654 49.0667 273.013 48.45C272.371 47.8333 271.867 47.1125 271.5 46.2875C271.142 45.4625 270.963 44.5667 270.963 43.6C270.963 42.65 271.138 41.7667 271.488 40.95C271.838 40.125 272.329 39.4042 272.963 38.7875C273.596 38.1625 274.338 37.675 275.188 37.325C276.038 36.975 276.958 36.8 277.95 36.8C278.792 36.8 279.592 36.925 280.35 37.175C281.108 37.4167 281.75 37.7458 282.275 38.1625L281.363 39.8C280.521 39.15 279.492 38.825 278.275 38.825C277.308 38.825 276.463 39.0417 275.738 39.475C275.013 39.9 274.45 40.475 274.05 41.2C273.658 41.925 273.463 42.725 273.463 43.6C273.463 44.5 273.667 45.3125 274.075 46.0375C274.483 46.7542 275.05 47.325 275.775 47.75C276.508 48.1667 277.35 48.375 278.3 48.375C278.892 48.375 279.45 48.2917 279.975 48.125C280.5 47.95 280.958 47.7083 281.35 47.4L282.275 49.0375C281.742 49.4458 281.1 49.775 280.35 50.025C279.6 50.275 278.804 50.4 277.963 50.4ZM277.513 56.8375C276.821 56.8375 276.188 56.6792 275.613 56.3625C275.046 56.0458 274.563 55.5958 274.163 55.0125L275.213 54.275C275.746 55.1083 276.5 55.525 277.475 55.525C278 55.525 278.421 55.3917 278.738 55.125C279.063 54.8667 279.225 54.525 279.225 54.1C279.225 53.6917 279.067 53.3625 278.75 53.1125C278.442 52.8625 278.038 52.7375 277.538 52.7375C277.271 52.7375 276.988 52.7708 276.688 52.8375C276.396 52.9125 276.158 53.0042 275.975 53.1125L275.838 53.0125L276.863 49.8375H278.05L277.4 51.85C277.675 51.8167 277.917 51.8083 278.125 51.825C278.342 51.85 278.542 51.8958 278.725 51.9625C279.3 52.0458 279.763 52.2833 280.113 52.675C280.471 53.0667 280.65 53.5542 280.65 54.1375C280.65 54.9208 280.354 55.5667 279.763 56.075C279.179 56.5833 278.429 56.8375 277.513 56.8375ZM291.414 50.4C290.223 50.4 289.143 50.1083 288.177 49.525C287.218 48.9333 286.456 48.125 285.889 47.1C285.331 46.075 285.052 44.9042 285.052 43.5875C285.052 42.2875 285.327 41.1292 285.877 40.1125C286.427 39.0875 287.181 38.2792 288.139 37.6875C289.098 37.0958 290.189 36.8 291.414 36.8C292.498 36.8 293.485 37.0417 294.377 37.525C295.277 38.0083 295.973 38.6792 296.464 39.5375V37.2H298.889V50H296.464V47.6C295.906 48.4833 295.189 49.1708 294.314 49.6625C293.439 50.1542 292.473 50.4 291.414 50.4ZM292.064 48.3125C292.939 48.3125 293.71 48.1125 294.377 47.7125C295.052 47.3042 295.581 46.7458 295.964 46.0375C296.348 45.3292 296.539 44.5167 296.539 43.6C296.539 42.6833 296.348 41.8708 295.964 41.1625C295.581 40.4542 295.052 39.9 294.377 39.5C293.71 39.0917 292.939 38.8875 292.064 38.8875C291.198 38.8875 290.427 39.0917 289.752 39.5C289.077 39.9 288.543 40.4542 288.152 41.1625C287.768 41.8708 287.577 42.6833 287.577 43.6C287.577 44.5083 287.768 45.3208 288.152 46.0375C288.543 46.7458 289.077 47.3042 289.752 47.7125C290.427 48.1125 291.198 48.3125 292.064 48.3125ZM307.322 50.4C306.255 50.4 305.309 50.1708 304.484 49.7125C303.668 49.2458 303.018 48.5833 302.534 47.725L303.697 46.225C304.138 46.9667 304.672 47.5417 305.297 47.95C305.922 48.3583 306.593 48.5625 307.309 48.5625C307.776 48.5625 308.197 48.4708 308.572 48.2875C308.955 48.1042 309.259 47.8417 309.484 47.5C309.709 47.15 309.822 46.7375 309.822 46.2625C309.822 45.8042 309.705 45.4458 309.472 45.1875C309.247 44.9208 308.909 44.6875 308.459 44.4875C308.018 44.2875 307.463 44.0583 306.797 43.8C306.263 43.5833 305.747 43.3375 305.247 43.0625C304.747 42.7875 304.334 42.4417 304.009 42.025C303.693 41.6 303.534 41.0625 303.534 40.4125C303.534 39.7125 303.722 39.0917 304.097 38.55C304.48 38.0083 305.005 37.5833 305.672 37.275C306.338 36.9667 307.097 36.8125 307.947 36.8125C308.638 36.8125 309.309 36.95 309.959 37.225C310.609 37.5 311.226 37.8958 311.809 38.4125L310.834 39.8875C309.968 38.9708 309.009 38.5125 307.959 38.5125C307.326 38.5125 306.813 38.675 306.422 39C306.03 39.3167 305.834 39.7292 305.834 40.2375C305.834 40.6292 305.976 40.9583 306.259 41.225C306.543 41.4833 306.905 41.7083 307.347 41.9C307.788 42.0917 308.247 42.2792 308.722 42.4625C309.438 42.7292 310.063 43.0042 310.597 43.2875C311.138 43.5708 311.559 43.9375 311.859 44.3875C312.159 44.8292 312.309 45.425 312.309 46.175C312.309 47.05 312.101 47.8042 311.684 48.4375C311.276 49.0708 310.697 49.5583 309.947 49.9C309.197 50.2333 308.322 50.4 307.322 50.4Z" fill="white"/>
</svg>
