<svg width="169" height="139" viewBox="0 0 169 139" fill="none" xmlns="http://www.w3.org/2000/svg">
<circle cx="19.5608" cy="149.439" r="138.765" fill="#133E68"/>
<circle cx="30.2349" cy="138.765" r="137.697" stroke="#85BFD6" stroke-width="2.13484"/>
<path d="M77.4901 69.5143C67.1269 55.3295 44.821 59.9756 40.668 76.7339L38.1793 71.9645C37.9883 71.6028 37.6614 71.3319 37.2705 71.2112C36.8796 71.0905 36.4568 71.1301 36.0951 71.3212C35.7335 71.5122 35.4625 71.8392 35.3418 72.23C35.2212 72.6209 35.2607 73.0437 35.4518 73.4054L40.2443 82.4895C40.4045 82.7868 40.6579 83.0232 40.9655 83.1624C41.2732 83.3016 41.618 83.3359 41.9471 83.26C42.0783 83.2219 42.2069 83.1756 42.3323 83.1213L51.455 78.3442C51.8177 78.1481 52.0877 77.8158 52.2054 77.4206C52.3232 77.0255 52.2791 76.5997 52.083 76.2369C51.8868 75.8742 51.5546 75.6043 51.1594 75.4865C50.7642 75.3688 50.3384 75.4128 49.9757 75.609L43.3494 79.107C45.6609 63.751 65.6938 58.658 75.0014 71.3327C83.5616 82.7515 75.0708 99.5252 60.7857 99.4019C57.0314 99.4093 53.3741 98.21 50.3532 95.9809C50.1908 95.8537 50.0046 95.7603 49.8055 95.7064C49.6063 95.6524 49.3984 95.639 49.194 95.6669C48.9896 95.6949 48.7929 95.7635 48.6155 95.8689C48.4382 95.9742 48.2838 96.1141 48.1615 96.2803C48.0392 96.4464 47.9515 96.6354 47.9036 96.8361C47.8557 97.0368 47.8486 97.245 47.8827 97.4485C47.9169 97.6519 47.9915 97.8465 48.1021 98.0206C48.2128 98.1947 48.3573 98.3447 48.5271 98.4619C52.0743 101.086 56.3733 102.497 60.7857 102.484C77.5672 102.63 87.5451 82.9287 77.4901 69.5143Z" fill="white"/>
</svg>
