<svg width="36" height="36" viewBox="0 0 36 36" fill="none" xmlns="http://www.w3.org/2000/svg">
<path d="M6.14313 27.6467C7.46569 31.0083 8.5506 33.1689 8.74466 33.4481C9.06458 33.9072 9.72411 34.1863 10.2507 34.0739C10.6908 33.9721 11.1186 33.8233 11.5269 33.6302C11.9373 33.4417 12.3268 33.2107 12.6892 32.9411C13.1152 32.6128 13.3374 31.9469 13.213 31.4252C13.1427 31.1039 12.2335 28.9748 10.9672 25.7546C9.7009 22.5343 8.92396 20.3532 8.75662 20.0706C8.49224 19.6037 7.87772 19.2669 7.34194 19.3154C6.89286 19.3645 6.45009 19.4602 6.02078 19.6009C5.58932 19.7368 5.17373 19.9188 4.78119 20.1437C4.31854 20.4193 4.02534 21.0725 4.10268 21.6266C4.1519 21.9619 4.82619 24.2829 6.14313 27.6467Z" fill="#092948"/>
<path d="M31.8977 21.6266C31.975 21.0725 31.6818 20.4193 31.2192 20.1437C30.8273 19.919 30.4124 19.737 29.9817 19.6009C29.5524 19.4602 29.1096 19.3645 28.6605 19.3154C28.1248 19.2669 27.5102 19.6037 27.2459 20.0706C27.0785 20.3518 26.2974 22.5315 25.0353 25.7546C23.7732 28.9777 22.8591 31.1039 22.7895 31.4266C22.6657 31.9483 22.8872 32.6142 23.3133 32.9425C23.6757 33.2121 24.0652 33.4431 24.4756 33.6316C24.8838 33.8247 25.3117 33.9735 25.7517 34.0753C26.2784 34.1878 26.9379 33.9086 27.2578 33.4495C27.4491 33.1682 28.534 31.0097 29.8593 27.6481C31.1847 24.2865 31.8513 21.9619 31.8977 21.6266Z" fill="#092948"/>
<path d="M35.2966 21.3229V19.1748C35.5093 19.0604 35.687 18.8905 35.8108 18.6831C35.9346 18.4757 35.9999 18.2386 35.9997 17.9971C35.9992 14.4375 34.9432 10.9579 32.9653 7.99837C30.9874 5.03881 28.1764 2.73215 24.8877 1.37001C21.599 0.00787073 17.9803 -0.348581 14.489 0.345721C10.9978 1.04002 7.79075 2.7539 5.27344 5.27067C3.59682 6.93805 2.26748 8.92135 1.36231 11.1058C0.457149 13.2903 -0.00586599 15.6325 5.60981e-05 17.9971C9.67456e-05 18.2384 0.0654888 18.4752 0.189287 18.6823C0.313086 18.8894 0.490668 19.0591 0.703174 19.1734V21.3229C0.421338 21.5265 0.209285 21.8122 0.0960148 22.1409C-0.0172556 22.4697 -0.0262128 22.8254 0.0703679 23.1594C1.254 27.2667 2.81915 31.2544 4.7454 35.0702C4.84505 35.2685 4.98283 35.4452 5.15086 35.5902C5.31889 35.7352 5.51387 35.8456 5.72462 35.9151C5.93538 35.9846 6.15778 36.0119 6.37909 35.9953C6.6004 35.9787 6.81627 35.9187 7.01433 35.8186C7.2124 35.7185 7.38878 35.5803 7.53337 35.412C7.67797 35.2436 7.78793 35.0484 7.85696 34.8375C7.926 34.6265 7.95276 34.4041 7.9357 34.1828C7.91864 33.9615 7.8581 33.7458 7.75756 33.548C5.92661 29.9214 4.43889 26.1315 3.31385 22.2278C3.22552 21.9224 3.05274 21.6482 2.81539 21.4367C2.57805 21.2252 2.2858 21.0851 1.9723 21.0325V19.1748C2.18436 19.06 2.36137 18.8898 2.48454 18.6825C2.60772 18.4751 2.67246 18.2383 2.6719 17.9971C2.67161 14.9652 3.57046 12.0013 5.25479 9.48035C6.93912 6.95936 9.33325 4.9945 12.1344 3.8343C14.9355 2.67409 18.0178 2.37066 20.9914 2.96238C23.9649 3.5541 26.6963 5.01439 28.8398 7.15855C30.2672 8.57883 31.3988 10.268 32.1691 12.1284C32.9395 13.9888 33.3333 15.9835 33.3278 17.9971C33.3279 18.2384 33.3933 18.4752 33.5171 18.6823C33.6409 18.8894 33.8185 19.0591 34.031 19.1734V21.0275C33.7175 21.0802 33.4252 21.2203 33.1879 21.4318C32.9505 21.6433 32.7777 21.9175 32.6894 22.2229C31.5644 26.1265 30.0767 29.9165 28.2457 33.543C28.0438 33.9426 28.009 34.4059 28.1487 34.8312C28.2885 35.2564 28.5915 35.6087 28.991 35.8106C29.3905 36.0125 29.8539 36.0474 30.2791 35.9076C30.7044 35.7678 31.0567 35.4648 31.2586 35.0653C33.1843 31.2493 34.7492 27.2617 35.9329 23.1545C36.028 22.8208 36.0179 22.4659 35.9041 22.1382C35.7902 21.8104 35.5781 21.5257 35.2966 21.3229Z" fill="#092948"/>
</svg>
