<svg width="240" height="240" viewBox="0 0 240 240" fill="none" xmlns="http://www.w3.org/2000/svg">
<path fill-rule="evenodd" clip-rule="evenodd" d="M240 120C240 143.734 232.961 166.935 219.776 186.669C206.591 206.403 187.849 221.784 165.922 230.866C143.995 239.948 119.867 242.324 96.5892 237.694C73.3115 233.064 51.9293 221.636 35.1469 204.853C18.3647 188.071 6.93603 166.689 2.30578 143.411C-2.32446 120.134 0.0521269 96.0052 9.13466 74.0779C18.2172 52.1507 33.598 33.4098 53.3318 20.2238C73.0657 7.03816 96.2664 0 120 0C151.826 0 182.348 12.6428 204.853 35.1472C227.357 57.6516 240 88.1741 240 120Z" fill="url(#paint0_linear_41_1174)"/>
<defs>
<linearGradient id="paint0_linear_41_1174" x1="2.82359e-05" y1="-3.74333e-07" x2="240.001" y2="240" gradientUnits="userSpaceOnUse">
<stop stop-color="#FFB545"/>
<stop offset="0.973958" stop-color="#FFE39B"/>
</linearGradient>
</defs>
</svg>
