<svg width="270" height="294" viewBox="0 0 270 294" fill="none" xmlns="http://www.w3.org/2000/svg">
<path d="M187.827 293.478C194.31 293.478 199.566 288.222 199.566 281.739C199.566 275.255 194.31 270 187.827 270C181.344 270 176.088 275.255 176.088 281.739C176.088 288.222 181.344 293.478 187.827 293.478Z" fill="#DBECF9"/>
<path d="M135 293.478C141.484 293.478 146.739 288.222 146.739 281.739C146.739 275.255 141.484 270 135 270C128.517 270 123.261 275.255 123.261 281.739C123.261 288.222 128.517 293.478 135 293.478Z" fill="#DBECF9"/>
<path d="M82.1737 293.478C88.657 293.478 93.9128 288.222 93.9128 281.739C93.9128 275.255 88.657 270 82.1737 270C75.6904 270 70.4346 275.255 70.4346 281.739C70.4346 288.222 75.6904 293.478 82.1737 293.478Z" fill="#DBECF9"/>
<path d="M214.239 252.391C220.722 252.391 225.978 247.135 225.978 240.652C225.978 234.169 220.722 228.913 214.239 228.913C207.756 228.913 202.5 234.169 202.5 240.652C202.5 247.135 207.756 252.391 214.239 252.391Z" fill="#DBECF9"/>
<path d="M161.413 252.391C167.897 252.391 173.153 247.135 173.153 240.652C173.153 234.169 167.897 228.913 161.413 228.913C154.93 228.913 149.674 234.169 149.674 240.652C149.674 247.135 154.93 252.391 161.413 252.391Z" fill="#DBECF9"/>
<path d="M108.587 252.391C115.07 252.391 120.326 247.135 120.326 240.652C120.326 234.169 115.07 228.913 108.587 228.913C102.103 228.913 96.8477 234.169 96.8477 240.652C96.8477 247.135 102.103 252.391 108.587 252.391Z" fill="#DBECF9"/>
<path d="M55.7621 252.391C62.2454 252.391 67.5012 247.135 67.5012 240.652C67.5012 234.169 62.2454 228.913 55.7621 228.913C49.2787 228.913 44.0229 234.169 44.0229 240.652C44.0229 247.135 49.2787 252.391 55.7621 252.391Z" fill="#DBECF9"/>
<path d="M229.752 140.869C229.752 140.869 169.671 140.869 152.609 140.869C113.709 140.869 82.1743 109.335 82.1743 70.4347C82.1743 31.5348 113.709 0 152.609 0C188.323 0 217.829 26.5809 222.422 61.0384C224.799 60.6012 227.249 60.3725 229.752 60.3725C251.981 60.3725 270 78.3924 270 100.621C270 122.85 251.981 140.869 229.752 140.869Z" fill="url(#paint0_linear_41_1162)"/>
<path d="M208.79 205.435C208.79 205.435 126.178 205.435 102.718 205.435C49.2308 205.435 5.87061 160.76 5.87061 105.652C5.87061 50.5436 49.2308 5.86951 102.718 5.86951C151.825 5.86951 192.395 43.5257 198.712 92.3404C201.98 91.7212 205.348 91.3975 208.79 91.3975C239.354 91.3975 264.131 116.925 264.131 148.416C264.131 179.906 239.354 205.435 208.79 205.435Z" fill="black" fill-opacity="0.15"/>
<path d="M202.919 199.565C202.919 199.565 120.308 199.565 96.8477 199.565C43.3602 199.565 0 154.891 0 99.7825C0 44.6741 43.3602 0 96.8477 0C145.954 0 186.525 37.6562 192.841 86.4709C196.109 85.8514 199.477 85.528 202.919 85.528C233.483 85.528 258.26 111.056 258.26 142.546C258.26 174.037 233.483 199.565 202.919 199.565Z" fill="url(#paint1_linear_41_1162)"/>
<defs>
<linearGradient id="paint0_linear_41_1162" x1="82.1743" y1="0" x2="270.42" y2="142.334" gradientUnits="userSpaceOnUse">
<stop stop-color="#6A869C"/>
<stop offset="1" stop-color="#BDD2E2"/>
</linearGradient>
<linearGradient id="paint1_linear_41_1162" x1="0" y1="0" x2="260.925" y2="196.017" gradientUnits="userSpaceOnUse">
<stop stop-color="#DFDFDF"/>
<stop offset="1" stop-color="white"/>
</linearGradient>
</defs>
</svg>
