<svg width="82" height="82" viewBox="0 0 82 82" fill="none" xmlns="http://www.w3.org/2000/svg">
<rect width="81.2258" height="81.2258" rx="7.49777" fill="#133E68"/>
<path d="M23.8053 51.9446C22.7634 51.9446 21.9109 51.0921 21.9109 50.0502V25.423C21.9109 23.3391 23.6159 21.6342 25.6997 21.6342H50.3269C51.3688 21.6342 52.2213 22.4867 52.2213 23.5286C52.2213 24.5705 51.3688 25.423 50.3269 25.423H27.5941C26.5522 25.423 25.6997 26.2755 25.6997 27.3174V50.0502C25.6997 51.0921 24.8472 51.9446 23.8053 51.9446ZM56.0101 59.5222H33.2773C31.1935 59.5222 29.4885 57.8173 29.4885 55.7334V33.0006C29.4885 30.9167 31.1935 29.2118 33.2773 29.2118H56.0101C58.094 29.2118 59.7989 30.9167 59.7989 33.0006V55.7334C59.7989 57.8173 58.094 59.5222 56.0101 59.5222ZM52.2213 42.4726H46.5381V36.7894C46.5381 35.7475 45.6856 34.895 44.6437 34.895C43.6018 34.895 42.7493 35.7475 42.7493 36.7894V42.4726H37.0661C36.0242 42.4726 35.1717 43.3251 35.1717 44.367C35.1717 45.4089 36.0242 46.2614 37.0661 46.2614H42.7493V51.9446C42.7493 52.9865 43.6018 53.839 44.6437 53.839C45.6856 53.839 46.5381 52.9865 46.5381 51.9446V46.2614H52.2213C53.2632 46.2614 54.1157 45.4089 54.1157 44.367C54.1157 43.3251 53.2632 42.4726 52.2213 42.4726Z" fill="white"/>
</svg>
