<svg width="36" height="30" viewBox="0 0 36 30" fill="none" xmlns="http://www.w3.org/2000/svg">
<path d="M36.0001 10.4533C36.0001 10.1687 35.8628 9.902 35.6315 9.73667L22.2635 0.188C22.0921 0.0659997 21.8868 0 21.6768 0C21.1188 0 20.6668 0.452 20.6668 1.01V6H0.00012207V11.3333H35.1201C35.6061 11.3333 36.0001 10.9393 36.0001 10.4533Z" fill="#092948"/>
<path d="M0.00012207 18.8801C0.00012207 19.1648 0.137455 19.4315 0.36879 19.5968L13.7368 29.1455C13.9081 29.2675 14.1135 29.3335 14.3235 29.3335C14.8815 29.3335 15.3335 28.8815 15.3335 28.3235V23.3335H36.0001V18.0001H0.880119C0.394119 18.0001 0.00012207 18.3941 0.00012207 18.8801Z" fill="#092948"/>
</svg>
