<svg width="280" height="70" viewBox="0 0 280 70" fill="none" xmlns="http://www.w3.org/2000/svg">
<rect x="1.5" y="1.5" width="277" height="67" rx="3.5" fill="white" stroke="#092948" stroke-width="3"/>
<path d="M114.584 46V22.9H121.136C122.648 22.9 123.964 23.1613 125.084 23.684C126.204 24.2067 127.072 24.9627 127.688 25.952C128.313 26.9413 128.626 28.1453 128.626 29.564C128.626 30.964 128.313 32.1867 127.688 33.232C127.072 34.268 126.204 35.0707 125.084 35.64C123.964 36.2093 122.648 36.494 121.136 36.494H117.426V46H114.584ZM117.426 34.156H120.366C121.411 34.156 122.331 33.9787 123.124 33.624C123.927 33.2693 124.552 32.756 125 32.084C125.457 31.412 125.686 30.5953 125.686 29.634C125.686 28.6633 125.457 27.8513 125 27.198C124.552 26.5353 123.927 26.036 123.124 25.7C122.331 25.364 121.411 25.196 120.366 25.196H117.426V34.156ZM133.229 46V21.92H135.945V46H133.229ZM147.755 46.448C146.42 46.448 145.211 46.1213 144.129 45.468C143.055 44.8053 142.201 43.9 141.567 42.752C140.941 41.604 140.629 40.2927 140.629 38.818C140.629 37.362 140.937 36.0647 141.553 34.926C142.169 33.778 143.013 32.8727 144.087 32.21C145.16 31.5473 146.383 31.216 147.755 31.216C148.968 31.216 150.074 31.4867 151.073 32.028C152.081 32.5693 152.86 33.3207 153.411 34.282V31.664H156.127V46H153.411V43.312C152.785 44.3013 151.983 45.0713 151.003 45.622C150.023 46.1727 148.94 46.448 147.755 46.448ZM148.483 44.11C149.463 44.11 150.326 43.886 151.073 43.438C151.829 42.9807 152.421 42.3553 152.851 41.562C153.28 40.7687 153.495 39.8587 153.495 38.832C153.495 37.8053 153.28 36.8953 152.851 36.102C152.421 35.3087 151.829 34.688 151.073 34.24C150.326 33.7827 149.463 33.554 148.483 33.554C147.512 33.554 146.649 33.7827 145.893 34.24C145.137 34.688 144.539 35.3087 144.101 36.102C143.671 36.8953 143.457 37.8053 143.457 38.832C143.457 39.8493 143.671 40.7593 144.101 41.562C144.539 42.3553 145.137 42.9807 145.893 43.438C146.649 43.886 147.512 44.11 148.483 44.11ZM162.393 53.28L166.243 45.216L159.425 31.664H162.519L167.811 42.514L172.557 31.664H175.651L165.473 53.28H162.393ZM179.112 46V21.92H181.828V46H179.112ZM187.547 46V31.664H190.263V46H187.547ZM188.905 28.766C188.597 28.766 188.313 28.6913 188.051 28.542C187.799 28.3833 187.594 28.1733 187.435 27.912C187.286 27.6507 187.211 27.366 187.211 27.058C187.211 26.7407 187.286 26.456 187.435 26.204C187.594 25.952 187.799 25.7513 188.051 25.602C188.313 25.4433 188.597 25.364 188.905 25.364C189.223 25.364 189.507 25.4433 189.759 25.602C190.011 25.7513 190.212 25.952 190.361 26.204C190.52 26.456 190.599 26.7407 190.599 27.058C190.599 27.366 190.52 27.6507 190.361 27.912C190.212 28.1733 190.011 28.3833 189.759 28.542C189.507 28.6913 189.223 28.766 188.905 28.766ZM199.833 46.448C198.638 46.448 197.579 46.1913 196.655 45.678C195.74 45.1553 195.012 44.4133 194.471 43.452L195.773 41.772C196.267 42.6027 196.865 43.2467 197.565 43.704C198.265 44.1613 199.016 44.39 199.819 44.39C200.341 44.39 200.813 44.2873 201.233 44.082C201.662 43.8767 202.003 43.5827 202.255 43.2C202.507 42.808 202.633 42.346 202.633 41.814C202.633 41.3007 202.502 40.8993 202.241 40.61C201.989 40.3113 201.611 40.05 201.107 39.826C200.612 39.602 199.991 39.3453 199.245 39.056C198.647 38.8133 198.069 38.538 197.509 38.23C196.949 37.922 196.487 37.5347 196.123 37.068C195.768 36.592 195.591 35.99 195.591 35.262C195.591 34.478 195.801 33.7827 196.221 33.176C196.65 32.5693 197.238 32.0933 197.985 31.748C198.731 31.4027 199.581 31.23 200.533 31.23C201.307 31.23 202.059 31.384 202.787 31.692C203.515 32 204.205 32.4433 204.859 33.022L203.767 34.674C202.796 33.6473 201.723 33.134 200.547 33.134C199.837 33.134 199.263 33.316 198.825 33.68C198.386 34.0347 198.167 34.4967 198.167 35.066C198.167 35.5047 198.325 35.8733 198.643 36.172C198.96 36.4613 199.366 36.7133 199.861 36.928C200.355 37.1427 200.869 37.3527 201.401 37.558C202.203 37.8567 202.903 38.1647 203.501 38.482C204.107 38.7993 204.579 39.21 204.915 39.714C205.251 40.2087 205.419 40.876 205.419 41.716C205.419 42.696 205.185 43.5407 204.719 44.25C204.261 44.9593 203.613 45.5053 202.773 45.888C201.933 46.2613 200.953 46.448 199.833 46.448ZM213.768 46.448C212.592 46.448 211.677 46.0607 211.024 45.286C210.371 44.502 210.044 43.4053 210.044 41.996V33.722H208.448V31.664H210.044V26.302H212.76V31.664H216.204V33.722H212.76V41.828C212.76 42.5373 212.9 43.0833 213.18 43.466C213.46 43.8487 213.861 44.04 214.384 44.04C214.907 44.04 215.373 43.886 215.784 43.578L216.47 45.748C216.106 45.9627 215.681 46.1307 215.196 46.252C214.72 46.3827 214.244 46.448 213.768 46.448ZM224.524 46.448C223.329 46.448 222.27 46.1913 221.346 45.678C220.431 45.1553 219.703 44.4133 219.162 43.452L220.464 41.772C220.959 42.6027 221.556 43.2467 222.256 43.704C222.956 44.1613 223.707 44.39 224.51 44.39C225.033 44.39 225.504 44.2873 225.924 44.082C226.353 43.8767 226.694 43.5827 226.946 43.2C227.198 42.808 227.324 42.346 227.324 41.814C227.324 41.3007 227.193 40.8993 226.932 40.61C226.68 40.3113 226.302 40.05 225.798 39.826C225.303 39.602 224.683 39.3453 223.936 39.056C223.339 38.8133 222.76 38.538 222.2 38.23C221.64 37.922 221.178 37.5347 220.814 37.068C220.459 36.592 220.282 35.99 220.282 35.262C220.282 34.478 220.492 33.7827 220.912 33.176C221.341 32.5693 221.929 32.0933 222.676 31.748C223.423 31.4027 224.272 31.23 225.224 31.23C225.999 31.23 226.75 31.384 227.478 31.692C228.206 32 228.897 32.4433 229.55 33.022L228.458 34.674C227.487 33.6473 226.414 33.134 225.238 33.134C224.529 33.134 223.955 33.316 223.516 33.68C223.077 34.0347 222.858 34.4967 222.858 35.066C222.858 35.5047 223.017 35.8733 223.334 36.172C223.651 36.4613 224.057 36.7133 224.552 36.928C225.047 37.1427 225.56 37.3527 226.092 37.558C226.895 37.8567 227.595 38.1647 228.192 38.482C228.799 38.7993 229.27 39.21 229.606 39.714C229.942 40.2087 230.11 40.876 230.11 41.716C230.11 42.696 229.877 43.5407 229.41 44.25C228.953 44.9593 228.304 45.5053 227.464 45.888C226.624 46.2613 225.644 46.448 224.524 46.448Z" fill="#595E60"/>
<rect x="94" y="21" width="2" height="28" fill="#595E60"/>
<path d="M74.3273 20.3142C74.3273 19.5884 73.7389 19 73.0131 19H48.3142C47.5884 19 47 19.5884 47 20.3142V45.013C47 45.7388 47.5884 46.3272 48.3142 46.3272C49.04 46.3272 49.6284 45.7388 49.6284 45.013V21.6284H73.0131C73.7389 21.6284 74.3273 21.04 74.3273 20.3142Z" fill="#092948"/>
<path d="M77.6859 23.6727H52.9871C52.2612 23.6727 51.6729 24.2611 51.6729 24.9869V49.6858C51.6729 50.4116 52.2612 51 52.9871 51H77.6859C78.4117 51 79.0001 50.4116 79.0001 49.6858V24.9869C79.0001 24.2611 78.4117 23.6727 77.6859 23.6727ZM70.851 34.9202C70.5263 35.5693 69.7369 35.8323 69.0877 35.5079L66.9845 34.4563V40.3402C66.9845 42.5372 65.1971 44.3246 63.0001 44.3246C60.8031 44.3246 59.0157 42.5372 59.0157 40.3402C59.0157 38.1433 60.8031 36.3559 63.0001 36.3559H64.3561V32.3298C64.3561 31.3531 65.3857 30.7183 66.258 31.1543L70.2633 33.1569C70.9124 33.4815 71.1755 34.271 70.851 34.9202Z" fill="#092948"/>
</svg>
