<svg width="33" height="33" viewBox="0 0 33 33" fill="none" xmlns="http://www.w3.org/2000/svg">
<path d="M1.48242 23.9443H11.3662C13.273 23.9443 14.8242 25.5108 14.8242 27.4365C14.8242 28.8116 13.7162 29.9304 12.3544 29.9304C11.4285 29.9304 10.6752 29.1695 10.6752 28.2344C10.6752 27.4079 10.0115 26.7379 9.19279 26.7379C8.3741 26.7379 7.71037 27.4079 7.71037 28.2344C7.71037 30.8199 9.79366 32.9234 12.3544 32.9234C15.3511 32.9234 17.7891 30.4619 17.7891 27.4365C17.7891 23.8605 14.9078 20.9512 11.3662 20.9512H1.48242C0.663729 20.9512 0 21.6213 0 22.4478C0 23.2742 0.663729 23.9443 1.48242 23.9443Z" fill="white"/>
<path d="M1.48242 16.9606H23.4442C28.5 16.9606 32.6133 12.8081 32.6133 7.7041C32.6133 3.45607 29.1897 0 24.9816 0C21.4514 0 18.5796 2.89916 18.5796 6.46258C18.5796 9.47847 21.0101 11.9322 23.9973 11.9322C24.816 11.9322 25.4798 11.2621 25.4798 10.4357C25.4798 9.60917 24.816 8.93913 23.9973 8.93913C22.6448 8.93913 21.5444 7.82811 21.5444 6.46258C21.5444 4.54943 23.0863 2.99305 24.9816 2.99305C27.5548 2.99305 29.6484 5.10643 29.6484 7.7041C29.6484 11.1578 26.8652 13.9675 23.4442 13.9675H1.48242C0.663729 13.9675 0 14.6376 0 15.4641C0 16.2905 0.663729 16.9606 1.48242 16.9606Z" fill="white"/>
</svg>
