<svg width="280" height="70" viewBox="0 0 280 70" fill="none" xmlns="http://www.w3.org/2000/svg">
<rect x="1.5" y="1.5" width="277" height="67" rx="3.5" fill="white" stroke="#092948" stroke-width="3"/>
<path d="M99.162 46L92.358 22.9H95.522L100.884 42.206L107.1 22.9H109.27L115.5 42.206L120.848 22.9H124.012L117.208 46H114.03L108.192 28.444L102.354 46H99.162ZM128.241 46V21.906H130.957V33.512C131.396 32.8587 132.026 32.3127 132.847 31.874C133.668 31.4353 134.644 31.216 135.773 31.216C136.884 31.216 137.845 31.4493 138.657 31.916C139.469 32.3733 140.094 33.036 140.533 33.904C140.981 34.772 141.205 35.808 141.205 37.012V46H138.489V37.558C138.489 36.214 138.167 35.1827 137.523 34.464C136.879 33.736 135.974 33.372 134.807 33.372C134.004 33.372 133.314 33.5353 132.735 33.862C132.166 34.1887 131.727 34.6227 131.419 35.164C131.111 35.696 130.957 36.2793 130.957 36.914V46H128.241ZM152.747 46.448C151.412 46.448 150.203 46.1213 149.121 45.468C148.047 44.8053 147.193 43.9 146.559 42.752C145.933 41.604 145.621 40.2927 145.621 38.818C145.621 37.362 145.929 36.0647 146.545 34.926C147.161 33.778 148.005 32.8727 149.079 32.21C150.152 31.5473 151.375 31.216 152.747 31.216C153.96 31.216 155.066 31.4867 156.065 32.028C157.073 32.5693 157.852 33.3207 158.403 34.282V31.664H161.119V46H158.403V43.312C157.777 44.3013 156.975 45.0713 155.995 45.622C155.015 46.1727 153.932 46.448 152.747 46.448ZM153.475 44.11C154.455 44.11 155.318 43.886 156.065 43.438C156.821 42.9807 157.413 42.3553 157.843 41.562C158.272 40.7687 158.487 39.8587 158.487 38.832C158.487 37.8053 158.272 36.8953 157.843 36.102C157.413 35.3087 156.821 34.688 156.065 34.24C155.318 33.7827 154.455 33.554 153.475 33.554C152.504 33.554 151.641 33.7827 150.885 34.24C150.129 34.688 149.531 35.3087 149.093 36.102C148.663 36.8953 148.449 37.8053 148.449 38.832C148.449 39.8493 148.663 40.7593 149.093 41.562C149.531 42.3553 150.129 42.9807 150.885 43.438C151.641 43.886 152.504 44.11 153.475 44.11ZM170.635 46.448C169.459 46.448 168.544 46.0607 167.891 45.286C167.238 44.502 166.911 43.4053 166.911 41.996V33.722H165.315V31.664H166.911V26.302H169.627V31.664H173.071V33.722H169.627V41.828C169.627 42.5373 169.767 43.0833 170.047 43.466C170.327 43.8487 170.728 44.04 171.251 44.04C171.774 44.04 172.24 43.886 172.651 43.578L173.337 45.748C172.973 45.9627 172.548 46.1307 172.063 46.252C171.587 46.3827 171.111 46.448 170.635 46.448ZM181.391 46.448C180.197 46.448 179.137 46.1913 178.213 45.678C177.299 45.1553 176.571 44.4133 176.029 43.452L177.331 41.772C177.826 42.6027 178.423 43.2467 179.123 43.704C179.823 44.1613 180.575 44.39 181.377 44.39C181.9 44.39 182.371 44.2873 182.791 44.082C183.221 43.8767 183.561 43.5827 183.813 43.2C184.065 42.808 184.191 42.346 184.191 41.814C184.191 41.3007 184.061 40.8993 183.799 40.61C183.547 40.3113 183.169 40.05 182.665 39.826C182.171 39.602 181.55 39.3453 180.803 39.056C180.206 38.8133 179.627 38.538 179.067 38.23C178.507 37.922 178.045 37.5347 177.681 37.068C177.327 36.592 177.149 35.99 177.149 35.262C177.149 34.478 177.359 33.7827 177.779 33.176C178.209 32.5693 178.797 32.0933 179.543 31.748C180.29 31.4027 181.139 31.23 182.091 31.23C182.866 31.23 183.617 31.384 184.345 31.692C185.073 32 185.764 32.4433 186.417 33.022L185.325 34.674C184.355 33.6473 183.281 33.134 182.105 33.134C181.396 33.134 180.822 33.316 180.383 33.68C179.945 34.0347 179.725 34.4967 179.725 35.066C179.725 35.5047 179.884 35.8733 180.201 36.172C180.519 36.4613 180.925 36.7133 181.419 36.928C181.914 37.1427 182.427 37.3527 182.959 37.558C183.762 37.8567 184.462 38.1647 185.059 38.482C185.666 38.7993 186.137 39.21 186.473 39.714C186.809 40.2087 186.977 40.876 186.977 41.716C186.977 42.696 186.744 43.5407 186.277 44.25C185.82 44.9593 185.171 45.5053 184.331 45.888C183.491 46.2613 182.511 46.448 181.391 46.448ZM189.875 46L199.017 22.9H201.663L210.805 46H207.739L205.177 39.266H195.503L192.927 46H189.875ZM196.469 36.76H204.211L200.333 26.694L196.469 36.76ZM214.811 53.28V31.664H217.527V34.268C218.106 33.3067 218.885 32.56 219.865 32.028C220.855 31.4867 221.942 31.216 223.127 31.216C224.509 31.216 225.736 31.5473 226.809 32.21C227.892 32.8727 228.746 33.778 229.371 34.926C229.997 36.0647 230.309 37.3667 230.309 38.832C230.309 40.2787 229.997 41.5807 229.371 42.738C228.755 43.886 227.911 44.7913 226.837 45.454C225.764 46.1167 224.546 46.448 223.183 46.448C222.007 46.448 220.925 46.1727 219.935 45.622C218.946 45.0713 218.143 44.3013 217.527 43.312V53.28H214.811ZM222.469 44.11C223.44 44.11 224.303 43.886 225.059 43.438C225.815 42.9807 226.408 42.3553 226.837 41.562C227.267 40.7687 227.481 39.8633 227.481 38.846C227.481 37.8193 227.262 36.9093 226.823 36.116C226.394 35.3133 225.801 34.688 225.045 34.24C224.299 33.7827 223.44 33.554 222.469 33.554C221.499 33.554 220.631 33.7827 219.865 34.24C219.109 34.688 218.512 35.3087 218.073 36.102C217.644 36.8953 217.429 37.8053 217.429 38.832C217.429 39.8587 217.644 40.7687 218.073 41.562C218.512 42.3553 219.109 42.9807 219.865 43.438C220.631 43.886 221.499 44.11 222.469 44.11ZM234.991 53.28V31.664H237.707V34.268C238.286 33.3067 239.065 32.56 240.045 32.028C241.034 31.4867 242.122 31.216 243.307 31.216C244.688 31.216 245.916 31.5473 246.989 32.21C248.072 32.8727 248.926 33.778 249.551 34.926C250.176 36.0647 250.489 37.3667 250.489 38.832C250.489 40.2787 250.176 41.5807 249.551 42.738C248.935 43.886 248.09 44.7913 247.017 45.454C245.944 46.1167 244.726 46.448 243.363 46.448C242.187 46.448 241.104 46.1727 240.115 45.622C239.126 45.0713 238.323 44.3013 237.707 43.312V53.28H234.991ZM242.649 44.11C243.62 44.11 244.483 43.886 245.239 43.438C245.995 42.9807 246.588 42.3553 247.017 41.562C247.446 40.7687 247.661 39.8633 247.661 38.846C247.661 37.8193 247.442 36.9093 247.003 36.116C246.574 35.3133 245.981 34.688 245.225 34.24C244.478 33.7827 243.62 33.554 242.649 33.554C241.678 33.554 240.81 33.7827 240.045 34.24C239.289 34.688 238.692 35.3087 238.253 36.102C237.824 36.8953 237.609 37.8053 237.609 38.832C237.609 39.8587 237.824 40.7687 238.253 41.562C238.692 42.3553 239.289 42.9807 240.045 43.438C240.81 43.886 241.678 44.11 242.649 44.11Z" fill="#595E60"/>
<path d="M43.004 19H42.996C34.174 19 27 26.176 27 35C27 38.5 28.128 41.744 30.046 44.378L28.052 50.322L34.202 48.356C36.732 50.032 39.75 51 43.004 51C51.826 51 59 43.822 59 35C59 26.178 51.826 19 43.004 19ZM52.314 41.594C51.928 42.684 50.396 43.588 49.174 43.852C48.338 44.03 47.246 44.172 43.57 42.648C38.868 40.7 35.84 35.922 35.604 35.612C35.378 35.302 33.704 33.082 33.704 30.786C33.704 28.49 34.87 27.372 35.34 26.892C35.726 26.498 36.364 26.318 36.976 26.318C37.174 26.318 37.352 26.328 37.512 26.336C37.982 26.356 38.218 26.384 38.528 27.126C38.914 28.056 39.854 30.352 39.966 30.588C40.08 30.824 40.194 31.144 40.034 31.454C39.884 31.774 39.752 31.916 39.516 32.188C39.28 32.46 39.056 32.668 38.82 32.96C38.604 33.214 38.36 33.486 38.632 33.956C38.904 34.416 39.844 35.95 41.228 37.182C43.014 38.772 44.462 39.28 44.98 39.496C45.366 39.656 45.826 39.618 46.108 39.318C46.466 38.932 46.908 38.292 47.358 37.662C47.678 37.21 48.082 37.154 48.506 37.314C48.938 37.464 51.224 38.594 51.694 38.828C52.164 39.064 52.474 39.176 52.588 39.374C52.7 39.572 52.7 40.502 52.314 41.594Z" fill="#092948"/>
<rect x="74" y="21" width="2" height="28" fill="#595E60"/>
</svg>
