<svg width="280" height="70" viewBox="0 0 280 70" fill="none" xmlns="http://www.w3.org/2000/svg">
<rect x="1.5" y="1.5" width="277" height="67" rx="3.5" fill="white" stroke="#092948" stroke-width="3"/>
<path d="M141.762 46.448C140.026 46.448 138.407 46.1447 136.904 45.538C135.411 44.922 134.099 44.0727 132.97 42.99C131.85 41.898 130.977 40.624 130.352 39.168C129.727 37.712 129.414 36.144 129.414 34.464C129.414 32.784 129.727 31.216 130.352 29.76C130.987 28.304 131.864 27.0347 132.984 25.952C134.104 24.86 135.411 24.0107 136.904 23.404C138.397 22.788 140.012 22.48 141.748 22.48C143.185 22.48 144.539 22.69 145.808 23.11C147.087 23.5207 148.202 24.0853 149.154 24.804L147.866 27.198C147.101 26.582 146.205 26.1107 145.178 25.784C144.151 25.448 143.069 25.28 141.93 25.28C140.558 25.28 139.298 25.5133 138.15 25.98C137.002 26.4467 136.003 27.1 135.154 27.94C134.314 28.7707 133.661 29.746 133.194 30.866C132.737 31.9767 132.508 33.176 132.508 34.464C132.508 35.752 132.737 36.956 133.194 38.076C133.661 39.1867 134.314 40.162 135.154 41.002C136.003 41.8327 137.002 42.4813 138.15 42.948C139.298 43.4147 140.558 43.648 141.93 43.648C143.069 43.648 144.151 43.4847 145.178 43.158C146.205 42.822 147.101 42.346 147.866 41.73L149.154 44.124C148.221 44.824 147.119 45.3887 145.85 45.818C144.581 46.238 143.218 46.448 141.762 46.448ZM153.073 46V21.92H155.789V46H153.073ZM161.508 46V31.664H164.224V46H161.508ZM162.866 28.766C162.558 28.766 162.274 28.6913 162.012 28.542C161.76 28.3833 161.555 28.1733 161.396 27.912C161.247 27.6507 161.172 27.366 161.172 27.058C161.172 26.7407 161.247 26.456 161.396 26.204C161.555 25.952 161.76 25.7513 162.012 25.602C162.274 25.4433 162.558 25.364 162.866 25.364C163.184 25.364 163.468 25.4433 163.72 25.602C163.972 25.7513 164.173 25.952 164.322 26.204C164.481 26.456 164.56 26.7407 164.56 27.058C164.56 27.366 164.481 27.6507 164.322 27.912C164.173 28.1733 163.972 28.3833 163.72 28.542C163.468 28.6913 163.184 28.766 162.866 28.766ZM169.972 46V31.664H172.688V33.512C173.294 32.7467 173.98 32.1727 174.746 31.79C175.511 31.4073 176.36 31.216 177.294 31.216C178.451 31.216 179.468 31.482 180.346 32.014C181.223 32.5367 181.834 33.2507 182.18 34.156C182.777 33.2413 183.496 32.5227 184.336 32C185.176 31.4773 186.16 31.216 187.29 31.216C188.316 31.216 189.226 31.426 190.02 31.846C190.813 32.266 191.438 32.8727 191.896 33.666C192.353 34.4593 192.582 35.4207 192.582 36.55V46H189.866V37.306C189.866 36.1113 189.553 35.164 188.928 34.464C188.302 33.764 187.472 33.414 186.436 33.414C185.717 33.414 185.068 33.5727 184.49 33.89C183.92 34.198 183.468 34.604 183.132 35.108C182.805 35.6027 182.642 36.1253 182.642 36.676V46H179.926V37.124C179.926 35.9947 179.618 35.094 179.002 34.422C178.386 33.75 177.564 33.414 176.538 33.414C175.819 33.414 175.166 33.568 174.578 33.876C173.999 34.1747 173.537 34.5667 173.192 35.052C172.856 35.5373 172.688 36.046 172.688 36.578V46H169.972ZM204.157 46.448C202.822 46.448 201.614 46.1213 200.531 45.468C199.458 44.8053 198.604 43.9 197.969 42.752C197.344 41.604 197.031 40.2927 197.031 38.818C197.031 37.362 197.339 36.0647 197.955 34.926C198.571 33.778 199.416 32.8727 200.489 32.21C201.562 31.5473 202.785 31.216 204.157 31.216C205.37 31.216 206.476 31.4867 207.475 32.028C208.483 32.5693 209.262 33.3207 209.813 34.282V31.664H212.529V46H209.813V43.312C209.188 44.3013 208.385 45.0713 207.405 45.622C206.425 46.1727 205.342 46.448 204.157 46.448ZM204.885 44.11C205.865 44.11 206.728 43.886 207.475 43.438C208.231 42.9807 208.824 42.3553 209.253 41.562C209.682 40.7687 209.897 39.8587 209.897 38.832C209.897 37.8053 209.682 36.8953 209.253 36.102C208.824 35.3087 208.231 34.688 207.475 34.24C206.728 33.7827 205.865 33.554 204.885 33.554C203.914 33.554 203.051 33.7827 202.295 34.24C201.539 34.688 200.942 35.3087 200.503 36.102C200.074 36.8953 199.859 37.8053 199.859 38.832C199.859 39.8493 200.074 40.7593 200.503 41.562C200.942 42.3553 201.539 42.9807 202.295 43.438C203.051 43.886 203.914 44.11 204.885 44.11Z" fill="#595E60"/>
<rect x="111" y="21" width="2" height="28" fill="#595E60"/>
<path d="M77.0947 48.0909C76.2948 48.0909 75.6439 47.4401 75.6439 46.6401C75.6439 45.8369 74.9927 45.1856 74.1894 45.1856C73.3861 45.1856 72.7348 45.8369 72.7348 46.6401C72.7348 49.0442 74.6906 51 77.0947 51C79.4988 51 81.4546 49.0442 81.4546 46.6401V40.3333H91.6365C92.4397 40.3333 93.091 39.682 93.091 38.8788C93.091 31.6604 87.2184 25.7878 80.0001 25.7878C72.7818 25.7878 66.9092 31.6604 66.9092 38.8788C66.9092 39.682 67.5604 40.3333 68.3637 40.3333H78.5455V46.6401C78.5455 47.4401 77.8947 48.0909 77.0947 48.0909Z" fill="#092948"/>
<path d="M65.4545 23.8485C66.2578 23.8485 66.9091 23.1972 66.9091 22.3939V20.4545C66.9091 19.6512 66.2578 19 65.4545 19C64.6512 19 64 19.6512 64 20.4545V22.3939C64 23.1972 64.6512 23.8485 65.4545 23.8485Z" fill="#092948"/>
<path d="M95.9999 20.4545C95.9999 19.6512 95.3487 19 94.5454 19C93.7421 19 93.0908 19.6512 93.0908 20.4545V22.3939C93.0908 23.1972 93.7421 23.8485 94.5454 23.8485C95.3487 23.8485 95.9999 23.1972 95.9999 22.3939V20.4545Z" fill="#092948"/>
<path d="M65.4545 31.6061C66.2578 31.6061 66.9091 30.9548 66.9091 30.1515V28.2121C66.9091 27.4088 66.2578 26.7576 65.4545 26.7576C64.6512 26.7576 64 27.4088 64 28.2121V30.1515C64 30.9548 64.6512 31.6061 65.4545 31.6061Z" fill="#092948"/>
<path d="M94.5454 26.7576C93.7421 26.7576 93.0908 27.4088 93.0908 28.2121V30.1515C93.0908 30.9548 93.7421 31.6061 94.5454 31.6061C95.3487 31.6061 95.9999 30.9548 95.9999 30.1515V28.2121C95.9999 27.4088 95.3487 26.7576 94.5454 26.7576Z" fill="#092948"/>
<path d="M81.4545 22.3939V20.4545C81.4545 19.6512 80.8033 19 80 19C79.1967 19 78.5454 19.6512 78.5454 20.4545V22.3939C78.5454 23.1972 79.1967 23.8485 80 23.8485C80.8033 23.8485 81.4545 23.1972 81.4545 22.3939Z" fill="#092948"/>
<path d="M74.1816 24.3331V22.3938C74.1816 21.5905 73.5303 20.9392 72.727 20.9392C71.9237 20.9392 71.2725 21.5905 71.2725 22.3938V24.3331C71.2725 25.1364 71.9237 25.7877 72.727 25.7877C73.5303 25.7877 74.1816 25.1364 74.1816 24.3331Z" fill="#092948"/>
<path d="M88.727 24.3331V22.3938C88.727 21.5905 88.0757 20.9392 87.2724 20.9392C86.4691 20.9392 85.8179 21.5905 85.8179 22.3938V24.3331C85.8179 25.1364 86.4691 25.7877 87.2724 25.7877C88.0757 25.7877 88.727 25.1364 88.727 24.3331Z" fill="#092948"/>
</svg>
