<svg width="270" height="312" viewBox="0 0 270 312" fill="none" xmlns="http://www.w3.org/2000/svg">
<path d="M179.022 281.739C187.126 281.739 193.696 288.31 193.696 296.413C193.696 304.516 187.126 311.087 179.022 311.087C170.918 311.087 164.348 304.516 164.348 296.413C164.348 295.409 164.449 294.426 164.641 293.478H49.8915C46.6498 293.478 44.022 290.851 44.022 287.608C44.022 284.366 46.6498 281.739 49.8915 281.739H179.022Z" fill="url(#paint0_linear_41_1133)"/>
<path d="M231.848 270C241.573 270 249.456 262.117 249.456 252.391C249.456 242.666 241.573 234.782 231.848 234.782C222.123 234.782 214.239 242.666 214.239 252.391C214.239 254.449 214.592 256.425 215.241 258.261H85.1088C81.8671 258.261 79.2393 260.887 79.2393 264.13C79.2393 267.373 81.8671 270 85.1088 270H231.848Z" fill="url(#paint1_linear_41_1133)"/>
<path d="M184.891 246.522C192.995 246.522 199.564 239.952 199.564 231.848C199.564 223.744 192.995 217.174 184.891 217.174C176.786 217.174 170.217 223.744 170.217 231.848C170.217 232.853 170.318 233.834 170.51 234.782H26.4125C23.1708 234.782 20.543 237.41 20.543 240.652C20.543 243.894 23.1708 246.522 26.4125 246.522H184.891Z" fill="url(#paint2_linear_41_1133)"/>
<path d="M229.752 140.869C229.752 140.869 169.671 140.869 152.609 140.869C113.709 140.869 82.1743 109.335 82.1743 70.4347C82.1743 31.5348 113.709 0 152.609 0C188.323 0 217.829 26.5809 222.422 61.0384C224.799 60.6012 227.249 60.3725 229.752 60.3725C251.981 60.3725 270 78.3924 270 100.621C270 122.85 251.981 140.869 229.752 140.869Z" fill="url(#paint3_linear_41_1133)"/>
<path d="M208.789 205.435C208.789 205.435 126.177 205.435 102.717 205.435C49.2298 205.435 5.86963 160.76 5.86963 105.652C5.86963 50.5436 49.2298 5.86951 102.717 5.86951C151.824 5.86951 192.394 43.5257 198.711 92.3404C201.978 91.7212 205.347 91.3975 208.789 91.3975C239.353 91.3975 264.13 116.925 264.13 148.416C264.13 179.906 239.353 205.435 208.789 205.435Z" fill="black" fill-opacity="0.15"/>
<path d="M202.919 199.565C202.919 199.565 120.308 199.565 96.8476 199.565C43.3602 199.565 0 154.891 0 99.7825C0 44.6741 43.3602 0 96.8476 0C145.954 0 186.525 37.6562 192.841 86.4709C196.109 85.8514 199.477 85.528 202.919 85.528C233.483 85.528 258.26 111.056 258.26 142.546C258.26 174.037 233.483 199.565 202.919 199.565Z" fill="url(#paint4_linear_41_1133)"/>
<defs>
<linearGradient id="paint0_linear_41_1133" x1="44.022" y1="296.413" x2="193.696" y2="296.413" gradientUnits="userSpaceOnUse">
<stop stop-color="#BDD2E2"/>
<stop offset="1" stop-color="#99CBF1"/>
</linearGradient>
<linearGradient id="paint1_linear_41_1133" x1="79.2393" y1="252.391" x2="249.456" y2="252.391" gradientUnits="userSpaceOnUse">
<stop stop-color="#BDD2E2"/>
<stop offset="1" stop-color="#99CBF1"/>
</linearGradient>
<linearGradient id="paint2_linear_41_1133" x1="20.543" y1="231.848" x2="199.564" y2="231.848" gradientUnits="userSpaceOnUse">
<stop stop-color="#BDD2E2"/>
<stop offset="1" stop-color="#99CBF1"/>
</linearGradient>
<linearGradient id="paint3_linear_41_1133" x1="82.1743" y1="0" x2="270.42" y2="142.334" gradientUnits="userSpaceOnUse">
<stop stop-color="#6A869C"/>
<stop offset="1" stop-color="#BDD2E2"/>
</linearGradient>
<linearGradient id="paint4_linear_41_1133" x1="0" y1="0" x2="260.925" y2="196.017" gradientUnits="userSpaceOnUse">
<stop stop-color="#DFDFDF"/>
<stop offset="1" stop-color="white"/>
</linearGradient>
</defs>
</svg>
