<svg width="280" height="70" viewBox="0 0 280 70" fill="none" xmlns="http://www.w3.org/2000/svg">
<rect x="1.5" y="1.50003" width="277" height="67" rx="3.5" fill="white" stroke="#092948" stroke-width="3"/>
<path d="M101.032 46.448C99.875 46.448 98.8437 46.2893 97.9384 45.972C97.033 45.6453 96.2537 45.2487 95.6004 44.782C94.947 44.3153 94.4104 43.858 93.9904 43.41C93.5704 42.9527 93.2624 42.5933 93.0664 42.332L94.6204 40.12C94.835 40.3813 95.1244 40.7173 95.4884 41.128C95.8524 41.5387 96.3004 41.9493 96.8324 42.36C97.3644 42.7707 97.985 43.116 98.6944 43.396C99.4037 43.676 100.206 43.816 101.102 43.816C101.952 43.816 102.722 43.6667 103.412 43.368C104.103 43.0693 104.654 42.626 105.064 42.038C105.484 41.45 105.694 40.722 105.694 39.854C105.694 39.1167 105.545 38.4913 105.246 37.978C104.948 37.4553 104.532 37.0073 104 36.634C103.468 36.2607 102.848 35.92 102.138 35.612C101.429 35.2947 100.664 34.9773 99.8424 34.66C99.2637 34.4267 98.6757 34.156 98.0784 33.848C97.481 33.5307 96.9304 33.148 96.4264 32.7C95.9224 32.2427 95.5164 31.7013 95.2084 31.076C94.9004 30.4507 94.7464 29.7133 94.7464 28.864C94.7464 28.0053 94.9097 27.1933 95.2364 26.428C95.563 25.6627 96.025 24.986 96.6224 24.398C97.2197 23.8007 97.929 23.334 98.7504 22.998C99.581 22.6527 100.5 22.48 101.508 22.48C102.404 22.48 103.249 22.62 104.042 22.9C104.845 23.18 105.559 23.5393 106.184 23.978C106.81 24.4073 107.309 24.86 107.682 25.336L106.352 27.422C106.044 27.0207 105.652 26.6427 105.176 26.288C104.7 25.924 104.154 25.63 103.538 25.406C102.922 25.182 102.26 25.07 101.55 25.07C100.682 25.07 99.945 25.252 99.3384 25.616C98.741 25.9707 98.2837 26.4327 97.9664 27.002C97.649 27.5713 97.4904 28.178 97.4904 28.822C97.4904 29.4007 97.607 29.8907 97.8404 30.292C98.083 30.6933 98.405 31.034 98.8064 31.314C99.2077 31.594 99.6604 31.8413 100.164 32.056C100.668 32.2707 101.186 32.476 101.718 32.672C102.67 33.0453 103.571 33.4327 104.42 33.834C105.27 34.226 106.016 34.688 106.66 35.22C107.304 35.7427 107.808 36.3727 108.172 37.11C108.546 37.8473 108.732 38.7387 108.732 39.784C108.732 41.1933 108.396 42.3973 107.724 43.396C107.062 44.3853 106.152 45.1413 104.994 45.664C103.837 46.1867 102.516 46.448 101.032 46.448ZM119.754 46.448C117.448 46.448 115.796 45.9533 114.798 44.964C113.799 43.9653 113.3 42.3087 113.3 39.994V31.664H116.016V39.434C116.016 41.1513 116.3 42.374 116.87 43.102C117.439 43.83 118.4 44.194 119.754 44.194C121.116 44.194 122.082 43.83 122.652 43.102C123.221 42.374 123.506 41.1513 123.506 39.434V31.664H126.222V39.994C126.222 42.3087 125.722 43.9653 124.724 44.964C123.725 45.9533 122.068 46.448 119.754 46.448ZM138.164 53.7C136.316 53.7 134.757 53.3453 133.488 52.636C132.219 51.9267 131.281 50.8907 130.674 49.528L132.928 48.464C133.357 49.3507 134.043 50.0553 134.986 50.578C135.929 51.11 136.988 51.376 138.164 51.376C139.172 51.376 140.068 51.1753 140.852 50.774C141.645 50.3727 142.266 49.7987 142.714 49.052C143.171 48.3053 143.4 47.414 143.4 46.378V43.312C142.793 44.292 141.995 45.062 141.006 45.622C140.017 46.1727 138.925 46.448 137.73 46.448C136.405 46.448 135.205 46.1213 134.132 45.468C133.059 44.8147 132.205 43.914 131.57 42.766C130.935 41.618 130.618 40.3067 130.618 38.832C130.618 37.3667 130.931 36.0647 131.556 34.926C132.181 33.778 133.031 32.8727 134.104 32.21C135.187 31.5473 136.414 31.216 137.786 31.216C138.981 31.216 140.073 31.4867 141.062 32.028C142.051 32.5693 142.831 33.3207 143.4 34.282V31.664H146.116V46.392C146.116 47.9227 145.803 49.234 145.178 50.326C144.562 51.418 143.661 52.2533 142.476 52.832C141.291 53.4107 139.853 53.7 138.164 53.7ZM138.458 44.11C139.438 44.11 140.306 43.886 141.062 43.438C141.827 42.9807 142.425 42.3553 142.854 41.562C143.283 40.7687 143.498 39.8633 143.498 38.846C143.498 37.8193 143.279 36.9093 142.84 36.116C142.411 35.3133 141.818 34.688 141.062 34.24C140.306 33.7827 139.443 33.554 138.472 33.554C137.501 33.554 136.638 33.7827 135.882 34.24C135.126 34.688 134.529 35.3133 134.09 36.116C133.661 36.9093 133.446 37.8193 133.446 38.846C133.446 39.8633 133.661 40.7687 134.09 41.562C134.519 42.3553 135.112 42.9807 135.868 43.438C136.624 43.886 137.487 44.11 138.458 44.11ZM158.473 46.448C156.97 46.448 155.621 46.1167 154.427 45.454C153.232 44.7913 152.289 43.8907 151.599 42.752C150.908 41.604 150.563 40.3113 150.563 38.874C150.563 37.81 150.759 36.816 151.151 35.892C151.543 34.968 152.089 34.156 152.789 33.456C153.489 32.7467 154.301 32.196 155.225 31.804C156.149 31.412 157.138 31.216 158.193 31.216C159.686 31.216 160.993 31.524 162.113 32.14C163.242 32.756 164.119 33.6147 164.745 34.716C165.379 35.8173 165.697 37.096 165.697 38.552C165.697 38.6733 165.692 38.7713 165.683 38.846C165.673 38.9207 165.655 39.0187 165.627 39.14H153.307C153.307 40.1387 153.531 41.0207 153.979 41.786C154.436 42.5513 155.061 43.1533 155.855 43.592C156.657 44.0213 157.577 44.236 158.613 44.236C159.593 44.236 160.47 44.0353 161.245 43.634C162.019 43.2327 162.691 42.6353 163.261 41.842L165.249 42.878C164.567 44.0073 163.629 44.8847 162.435 45.51C161.249 46.1353 159.929 46.448 158.473 46.448ZM153.447 37.138H162.967C162.836 36.4007 162.547 35.7567 162.099 35.206C161.66 34.646 161.105 34.212 160.433 33.904C159.77 33.5867 159.037 33.428 158.235 33.428C157.395 33.428 156.634 33.582 155.953 33.89C155.281 34.1887 154.725 34.618 154.287 35.178C153.857 35.7287 153.577 36.382 153.447 37.138ZM173.935 46.448C172.74 46.448 171.681 46.1913 170.757 45.678C169.842 45.1553 169.114 44.4133 168.573 43.452L169.875 41.772C170.37 42.6027 170.967 43.2467 171.667 43.704C172.367 44.1613 173.118 44.39 173.921 44.39C174.444 44.39 174.915 44.2873 175.335 44.082C175.764 43.8767 176.105 43.5827 176.357 43.2C176.609 42.808 176.735 42.346 176.735 41.814C176.735 41.3007 176.604 40.8993 176.343 40.61C176.091 40.3113 175.713 40.05 175.209 39.826C174.714 39.602 174.094 39.3453 173.347 39.056C172.75 38.8133 172.171 38.538 171.611 38.23C171.051 37.922 170.589 37.5347 170.225 37.068C169.87 36.592 169.693 35.99 169.693 35.262C169.693 34.478 169.903 33.7827 170.323 33.176C170.752 32.5693 171.34 32.0933 172.087 31.748C172.834 31.4027 173.683 31.23 174.635 31.23C175.41 31.23 176.161 31.384 176.889 31.692C177.617 32 178.308 32.4433 178.961 33.022L177.869 34.674C176.898 33.6473 175.825 33.134 174.649 33.134C173.94 33.134 173.366 33.316 172.927 33.68C172.488 34.0347 172.269 34.4967 172.269 35.066C172.269 35.5047 172.428 35.8733 172.745 36.172C173.062 36.4613 173.468 36.7133 173.963 36.928C174.458 37.1427 174.971 37.3527 175.503 37.558C176.306 37.8567 177.006 38.1647 177.603 38.482C178.21 38.7993 178.681 39.21 179.017 39.714C179.353 40.2087 179.521 40.876 179.521 41.716C179.521 42.696 179.288 43.5407 178.821 44.25C178.364 44.9593 177.715 45.5053 176.875 45.888C176.035 46.2613 175.055 46.448 173.935 46.448ZM187.87 46.448C186.694 46.448 185.78 46.0607 185.126 45.286C184.473 44.502 184.146 43.4053 184.146 41.996V33.722H182.55V31.664H184.146V26.302H186.862V31.664H190.306V33.722H186.862V41.828C186.862 42.5373 187.002 43.0833 187.282 43.466C187.562 43.8487 187.964 44.04 188.486 44.04C189.009 44.04 189.476 43.886 189.886 43.578L190.572 45.748C190.208 45.9627 189.784 46.1307 189.298 46.252C188.822 46.3827 188.346 46.448 187.87 46.448ZM201.735 46.448C200.213 46.448 198.841 46.126 197.619 45.482C196.405 44.838 195.439 43.942 194.721 42.794C194.011 41.646 193.657 40.3253 193.657 38.832C193.657 37.3293 194.011 36.0087 194.721 34.87C195.439 33.722 196.405 32.826 197.619 32.182C198.841 31.538 200.213 31.216 201.735 31.216C203.256 31.216 204.623 31.538 205.837 32.182C207.059 32.826 208.025 33.722 208.735 34.87C209.453 36.0087 209.813 37.3293 209.813 38.832C209.813 40.3253 209.453 41.646 208.735 42.794C208.025 43.942 207.059 44.838 205.837 45.482C204.623 46.126 203.256 46.448 201.735 46.448ZM201.749 44.082C202.747 44.082 203.643 43.858 204.437 43.41C205.23 42.962 205.855 42.3413 206.313 41.548C206.77 40.7547 206.999 39.8493 206.999 38.832C206.999 37.8053 206.77 36.9 206.313 36.116C205.855 35.3227 205.23 34.702 204.437 34.254C203.643 33.806 202.747 33.582 201.749 33.582C200.741 33.582 199.84 33.806 199.047 34.254C198.253 34.702 197.628 35.3227 197.171 36.116C196.713 36.9 196.485 37.8053 196.485 38.832C196.485 39.8493 196.713 40.7547 197.171 41.548C197.628 42.3413 198.253 42.962 199.047 43.41C199.84 43.858 200.741 44.082 201.749 44.082ZM204.563 28.22C203.993 28.22 203.475 28.108 203.009 27.884C202.542 27.6507 202.094 27.3847 201.665 27.086C201.235 26.7873 200.797 26.526 200.349 26.302C199.91 26.0687 199.425 25.952 198.893 25.952C198.183 25.952 197.591 26.1713 197.115 26.61C196.648 27.0487 196.284 27.5433 196.023 28.094L194.595 26.834C195.043 26.0033 195.635 25.3033 196.373 24.734C197.11 24.1553 197.936 23.866 198.851 23.866C199.467 23.866 200.027 23.9827 200.531 24.216C201.044 24.44 201.525 24.7013 201.973 25C202.43 25.2987 202.878 25.5647 203.317 25.798C203.755 26.022 204.203 26.134 204.661 26.134C205.239 26.134 205.776 25.9333 206.271 25.532C206.775 25.1307 207.171 24.6173 207.461 23.992L208.875 25.252C208.557 25.8493 208.161 26.372 207.685 26.82C207.209 27.268 206.7 27.6133 206.159 27.856C205.617 28.0987 205.085 28.22 204.563 28.22ZM221.172 46.448C219.669 46.448 218.321 46.1167 217.126 45.454C215.931 44.7913 214.989 43.8907 214.298 42.752C213.607 41.604 213.262 40.3113 213.262 38.874C213.262 37.81 213.458 36.816 213.85 35.892C214.242 34.968 214.788 34.156 215.488 33.456C216.188 32.7467 217 32.196 217.924 31.804C218.848 31.412 219.837 31.216 220.892 31.216C222.385 31.216 223.692 31.524 224.812 32.14C225.941 32.756 226.819 33.6147 227.444 34.716C228.079 35.8173 228.396 37.096 228.396 38.552C228.396 38.6733 228.391 38.7713 228.382 38.846C228.373 38.9207 228.354 39.0187 228.326 39.14H216.006C216.006 40.1387 216.23 41.0207 216.678 41.786C217.135 42.5513 217.761 43.1533 218.554 43.592C219.357 44.0213 220.276 44.236 221.312 44.236C222.292 44.236 223.169 44.0353 223.944 43.634C224.719 43.2327 225.391 42.6353 225.96 41.842L227.948 42.878C227.267 44.0073 226.329 44.8847 225.134 45.51C223.949 46.1353 222.628 46.448 221.172 46.448ZM216.146 37.138H225.666C225.535 36.4007 225.246 35.7567 224.798 35.206C224.359 34.646 223.804 34.212 223.132 33.904C222.469 33.5867 221.737 33.428 220.934 33.428C220.094 33.428 219.333 33.582 218.652 33.89C217.98 34.1887 217.425 34.618 216.986 35.178C216.557 35.7287 216.277 36.382 216.146 37.138ZM236.634 46.448C235.44 46.448 234.38 46.1913 233.456 45.678C232.542 45.1553 231.814 44.4133 231.272 43.452L232.574 41.772C233.069 42.6027 233.666 43.2467 234.366 43.704C235.066 44.1613 235.818 44.39 236.62 44.39C237.143 44.39 237.614 44.2873 238.034 44.082C238.464 43.8767 238.804 43.5827 239.056 43.2C239.308 42.808 239.434 42.346 239.434 41.814C239.434 41.3007 239.304 40.8993 239.042 40.61C238.79 40.3113 238.412 40.05 237.908 39.826C237.414 39.602 236.793 39.3453 236.046 39.056C235.449 38.8133 234.87 38.538 234.31 38.23C233.75 37.922 233.288 37.5347 232.924 37.068C232.57 36.592 232.392 35.99 232.392 35.262C232.392 34.478 232.602 33.7827 233.022 33.176C233.452 32.5693 234.04 32.0933 234.786 31.748C235.533 31.4027 236.382 31.23 237.334 31.23C238.109 31.23 238.86 31.384 239.588 31.692C240.316 32 241.007 32.4433 241.66 33.022L240.568 34.674C239.598 33.6473 238.524 33.134 237.348 33.134C236.639 33.134 236.065 33.316 235.626 33.68C235.188 34.0347 234.968 34.4967 234.968 35.066C234.968 35.5047 235.127 35.8733 235.444 36.172C235.762 36.4613 236.168 36.7133 236.662 36.928C237.157 37.1427 237.67 37.3527 238.202 37.558C239.005 37.8567 239.705 38.1647 240.302 38.482C240.909 38.7993 241.38 39.21 241.716 39.714C242.052 40.2087 242.22 40.876 242.22 41.716C242.22 42.696 241.987 43.5407 241.52 44.25C241.063 44.9593 240.414 45.5053 239.574 45.888C238.734 46.2613 237.754 46.448 236.634 46.448Z" fill="#595E60"/>
<rect x="74.6104" y="21" width="2" height="28" fill="#6E6464"/>
<path d="M39.3554 38.6966C40.2523 39.4563 40.8469 40.4855 41.0618 41.609H46.2797V34.3012C44.5126 33.8447 43.2034 32.237 43.2034 30.3292H45.2542C45.2542 31.4601 46.1743 32.3801 47.3051 32.3801C48.4359 32.3801 49.356 31.4601 49.356 30.3292H51.4068C51.4068 32.237 50.0976 33.8447 48.3305 34.3012V41.609H53.5496C53.7667 40.4857 54.3671 39.4513 55.2724 38.6815C58.0292 36.3374 59.6103 32.9193 59.6103 29.3038C59.6103 18.2735 46.1579 12.8564 38.4971 20.7266C33.4973 25.8632 33.9247 34.0962 39.3554 38.6966Z" fill="#092948"/>
<path d="M47.3053 52C49.567 52 51.4071 50.16 51.4071 47.8983H43.2036C43.2036 50.16 45.0436 52 47.3053 52Z" fill="#092948"/>
<path d="M41.1528 43.6599H53.458V45.8474H41.1528V43.6599Z" fill="#092948"/>
</svg>
