<svg width="47" height="25" viewBox="0 0 47 25" fill="none" xmlns="http://www.w3.org/2000/svg">
<path d="M17.3913 12.5C17.3849 15.3531 18.111 18.1601 19.5 20.6522H8.15218C5.99008 20.6522 3.91655 19.7933 2.38772 18.2645C0.858887 16.7356 0 14.6621 0 12.5C0 10.3379 0.858887 8.26438 2.38772 6.73556C3.91655 5.20673 5.99008 4.34784 8.15218 4.34784H19.5C18.111 6.83996 17.3849 9.64693 17.3913 12.5Z" fill="#092948"/>
<path d="M34.2393 0C31.767 0 29.3502 0.733113 27.2946 2.10663C25.239 3.48015 23.6369 5.43238 22.6908 7.71646C21.7447 10.0005 21.4971 12.5139 21.9794 14.9386C22.4618 17.3634 23.6523 19.5907 25.4004 21.3388C27.1486 23.087 29.3759 24.2775 31.8006 24.7598C34.2254 25.2421 36.7387 24.9946 39.0228 24.0485C41.3069 23.1024 43.2591 21.5002 44.6326 19.4446C46.0061 17.389 46.7393 14.9723 46.7393 12.5C46.7352 9.18603 45.417 6.00894 43.0736 3.66561C40.7303 1.32228 37.5532 0.00402705 34.2393 0ZM38.1523 13.3696L33.8045 16.6304C33.6186 16.7757 33.3882 16.8525 33.1523 16.8478C32.987 16.8453 32.8241 16.8083 32.674 16.7391C32.493 16.6471 32.3406 16.5073 32.2333 16.3349C32.126 16.1625 32.0679 15.9639 32.0653 15.7609V9.23913C32.0653 9.03727 32.1216 8.83939 32.2277 8.66768C32.3338 8.49597 32.4857 8.3572 32.6662 8.26693C32.8468 8.17665 33.0489 8.13844 33.2499 8.15656C33.451 8.17469 33.643 8.24845 33.8045 8.36957L38.1523 11.6304C38.2873 11.7317 38.3969 11.863 38.4723 12.0139C38.5478 12.1648 38.5871 12.3313 38.5871 12.5C38.5871 12.6687 38.5478 12.8352 38.4723 12.9861C38.3969 13.137 38.2873 13.2683 38.1523 13.3696Z" fill="#092948"/>
</svg>
