<svg width="280" height="70" viewBox="0 0 280 70" fill="none" xmlns="http://www.w3.org/2000/svg">
<rect x="1.5" y="1.5" width="277" height="67" rx="3.5" fill="white" stroke="#092948" stroke-width="3"/>
<path d="M95.762 46.448C94.026 46.448 92.4067 46.1447 90.904 45.538C89.4107 44.922 88.0993 44.0727 86.97 42.99C85.85 41.898 84.9773 40.624 84.352 39.168C83.7267 37.712 83.414 36.144 83.414 34.464C83.414 32.784 83.7267 31.216 84.352 29.76C84.9867 28.304 85.864 27.0347 86.984 25.952C88.104 24.86 89.4107 24.0107 90.904 23.404C92.3973 22.788 94.012 22.48 95.748 22.48C97.1853 22.48 98.5387 22.69 99.808 23.11C101.087 23.5207 102.202 24.0853 103.154 24.804L101.866 27.198C101.101 26.582 100.205 26.1107 99.178 25.784C98.1513 25.448 97.0687 25.28 95.93 25.28C94.558 25.28 93.298 25.5133 92.15 25.98C91.002 26.4467 90.0033 27.1 89.154 27.94C88.314 28.7707 87.6607 29.746 87.194 30.866C86.7367 31.9767 86.508 33.176 86.508 34.464C86.508 35.752 86.7367 36.956 87.194 38.076C87.6607 39.1867 88.314 40.162 89.154 41.002C90.0033 41.8327 91.002 42.4813 92.15 42.948C93.298 43.4147 94.558 43.648 95.93 43.648C97.0687 43.648 98.1513 43.4847 99.178 43.158C100.205 42.822 101.101 42.346 101.866 41.73L103.154 44.124C102.221 44.824 101.119 45.3887 99.85 45.818C98.5807 46.238 97.218 46.448 95.762 46.448ZM107.073 46V21.906H109.789V33.512C110.228 32.8587 110.858 32.3127 111.679 31.874C112.5 31.4353 113.476 31.216 114.605 31.216C115.716 31.216 116.677 31.4493 117.489 31.916C118.301 32.3733 118.926 33.036 119.365 33.904C119.813 34.772 120.037 35.808 120.037 37.012V46H117.321V37.558C117.321 36.214 116.999 35.1827 116.355 34.464C115.711 33.736 114.806 33.372 113.639 33.372C112.836 33.372 112.146 33.5353 111.567 33.862C110.998 34.1887 110.559 34.6227 110.251 35.164C109.943 35.696 109.789 36.2793 109.789 36.914V46H107.073ZM125.503 46V31.664H128.219V33.764C128.695 32.9333 129.301 32.3033 130.039 31.874C130.776 31.4353 131.611 31.216 132.545 31.216C132.993 31.216 133.445 31.272 133.903 31.384C134.369 31.4867 134.771 31.6267 135.107 31.804L133.987 34.1C133.697 33.9413 133.361 33.8153 132.979 33.722C132.596 33.6287 132.237 33.582 131.901 33.582C131.275 33.582 130.678 33.7453 130.109 34.072C129.549 34.3893 129.091 34.8047 128.737 35.318C128.391 35.8313 128.219 36.382 128.219 36.97V46H125.503ZM145.23 46.448C143.708 46.448 142.336 46.126 141.114 45.482C139.9 44.838 138.934 43.942 138.216 42.794C137.506 41.646 137.152 40.3253 137.152 38.832C137.152 37.3293 137.506 36.0087 138.216 34.87C138.934 33.722 139.9 32.826 141.114 32.182C142.336 31.538 143.708 31.216 145.23 31.216C146.751 31.216 148.118 31.538 149.332 32.182C150.554 32.826 151.52 33.722 152.23 34.87C152.948 36.0087 153.308 37.3293 153.308 38.832C153.308 40.3253 152.948 41.646 152.23 42.794C151.52 43.942 150.554 44.838 149.332 45.482C148.118 46.126 146.751 46.448 145.23 46.448ZM145.244 44.082C146.242 44.082 147.138 43.858 147.932 43.41C148.725 42.962 149.35 42.3413 149.808 41.548C150.265 40.7547 150.494 39.8493 150.494 38.832C150.494 37.8053 150.265 36.9 149.808 36.116C149.35 35.3227 148.725 34.702 147.932 34.254C147.138 33.806 146.242 33.582 145.244 33.582C144.236 33.582 143.335 33.806 142.542 34.254C141.748 34.702 141.123 35.3227 140.666 36.116C140.208 36.9 139.98 37.8053 139.98 38.832C139.98 39.8493 140.208 40.7547 140.666 41.548C141.123 42.3413 141.748 42.962 142.542 43.41C143.335 43.858 144.236 44.082 145.244 44.082ZM157.85 46V31.664H160.566V33.512C161.173 32.7467 161.859 32.1727 162.624 31.79C163.39 31.4073 164.239 31.216 165.172 31.216C166.33 31.216 167.347 31.482 168.224 32.014C169.102 32.5367 169.713 33.2507 170.058 34.156C170.656 33.2413 171.374 32.5227 172.214 32C173.054 31.4773 174.039 31.216 175.168 31.216C176.195 31.216 177.105 31.426 177.898 31.846C178.692 32.266 179.317 32.8727 179.774 33.666C180.232 34.4593 180.46 35.4207 180.46 36.55V46H177.744V37.306C177.744 36.1113 177.432 35.164 176.806 34.464C176.181 33.764 175.35 33.414 174.314 33.414C173.596 33.414 172.947 33.5727 172.368 33.89C171.799 34.198 171.346 34.604 171.01 35.108C170.684 35.6027 170.52 36.1253 170.52 36.676V46H167.804V37.124C167.804 35.9947 167.496 35.094 166.88 34.422C166.264 33.75 165.443 33.414 164.416 33.414C163.698 33.414 163.044 33.568 162.456 33.876C161.878 34.1747 161.416 34.5667 161.07 35.052C160.734 35.5373 160.566 36.046 160.566 36.578V46H157.85ZM192.722 46.448C191.219 46.448 189.871 46.1167 188.676 45.454C187.481 44.7913 186.539 43.8907 185.848 42.752C185.157 41.604 184.812 40.3113 184.812 38.874C184.812 37.81 185.008 36.816 185.4 35.892C185.792 34.968 186.338 34.156 187.038 33.456C187.738 32.7467 188.55 32.196 189.474 31.804C190.398 31.412 191.387 31.216 192.442 31.216C193.935 31.216 195.242 31.524 196.362 32.14C197.491 32.756 198.369 33.6147 198.994 34.716C199.629 35.8173 199.946 37.096 199.946 38.552C199.946 38.6733 199.941 38.7713 199.932 38.846C199.923 38.9207 199.904 39.0187 199.876 39.14H187.556C187.556 40.1387 187.78 41.0207 188.228 41.786C188.685 42.5513 189.311 43.1533 190.104 43.592C190.907 44.0213 191.826 44.236 192.862 44.236C193.842 44.236 194.719 44.0353 195.494 43.634C196.269 43.2327 196.941 42.6353 197.51 41.842L199.498 42.878C198.817 44.0073 197.879 44.8847 196.684 45.51C195.499 46.1353 194.178 46.448 192.722 46.448ZM187.696 37.138H197.216C197.085 36.4007 196.796 35.7567 196.348 35.206C195.909 34.646 195.354 34.212 194.682 33.904C194.019 33.5867 193.287 33.428 192.484 33.428C191.644 33.428 190.883 33.582 190.202 33.89C189.53 34.1887 188.975 34.618 188.536 35.178C188.107 35.7287 187.827 36.382 187.696 37.138ZM211.15 46.448C210.067 46.448 209.05 46.2567 208.098 45.874C207.155 45.4913 206.324 44.9547 205.606 44.264C204.887 43.5733 204.322 42.766 203.912 41.842C203.51 40.918 203.31 39.9147 203.31 38.832C203.31 37.768 203.506 36.7787 203.898 35.864C204.29 34.94 204.84 34.1327 205.55 33.442C206.259 32.742 207.09 32.196 208.042 31.804C208.994 31.412 210.025 31.216 211.136 31.216C212.078 31.216 212.974 31.356 213.824 31.636C214.673 31.9067 215.392 32.2753 215.98 32.742L214.958 34.576C214.015 33.848 212.862 33.484 211.5 33.484C210.417 33.484 209.47 33.7267 208.658 34.212C207.846 34.688 207.216 35.332 206.768 36.144C206.329 36.956 206.11 37.852 206.11 38.832C206.11 39.84 206.338 40.75 206.796 41.562C207.253 42.3647 207.888 43.004 208.7 43.48C209.521 43.9467 210.464 44.18 211.528 44.18C212.19 44.18 212.816 44.0867 213.404 43.9C213.992 43.704 214.505 43.4333 214.944 43.088L215.98 44.922C215.382 45.3793 214.664 45.748 213.824 46.028C212.984 46.308 212.092 46.448 211.15 46.448ZM226.079 46.448C224.744 46.448 223.535 46.1213 222.453 45.468C221.379 44.8053 220.525 43.9 219.891 42.752C219.265 41.604 218.953 40.2927 218.953 38.818C218.953 37.362 219.261 36.0647 219.877 34.926C220.493 33.778 221.337 32.8727 222.411 32.21C223.484 31.5473 224.707 31.216 226.079 31.216C227.292 31.216 228.398 31.4867 229.397 32.028C230.405 32.5693 231.184 33.3207 231.735 34.282V31.664H234.451V46H231.735V43.312C231.109 44.3013 230.307 45.0713 229.327 45.622C228.347 46.1727 227.264 46.448 226.079 46.448ZM226.807 44.11C227.787 44.11 228.65 43.886 229.397 43.438C230.153 42.9807 230.745 42.3553 231.175 41.562C231.604 40.7687 231.819 39.8587 231.819 38.832C231.819 37.8053 231.604 36.8953 231.175 36.102C230.745 35.3087 230.153 34.688 229.397 34.24C228.65 33.7827 227.787 33.554 226.807 33.554C225.836 33.554 224.973 33.7827 224.217 34.24C223.461 34.688 222.863 35.3087 222.425 36.102C221.995 36.8953 221.781 37.8053 221.781 38.832C221.781 39.8493 221.995 40.7593 222.425 41.562C222.863 42.3553 223.461 42.9807 224.217 43.438C224.973 43.886 225.836 44.11 226.807 44.11ZM243.895 46.448C242.7 46.448 241.641 46.1913 240.717 45.678C239.802 45.1553 239.074 44.4133 238.533 43.452L239.835 41.772C240.33 42.6027 240.927 43.2467 241.627 43.704C242.327 44.1613 243.078 44.39 243.881 44.39C244.404 44.39 244.875 44.2873 245.295 44.082C245.724 43.8767 246.065 43.5827 246.317 43.2C246.569 42.808 246.695 42.346 246.695 41.814C246.695 41.3007 246.564 40.8993 246.303 40.61C246.051 40.3113 245.673 40.05 245.169 39.826C244.674 39.602 244.054 39.3453 243.307 39.056C242.71 38.8133 242.131 38.538 241.571 38.23C241.011 37.922 240.549 37.5347 240.185 37.068C239.83 36.592 239.653 35.99 239.653 35.262C239.653 34.478 239.863 33.7827 240.283 33.176C240.712 32.5693 241.3 32.0933 242.047 31.748C242.794 31.4027 243.643 31.23 244.595 31.23C245.37 31.23 246.121 31.384 246.849 31.692C247.577 32 248.268 32.4433 248.921 33.022L247.829 34.674C246.858 33.6473 245.785 33.134 244.609 33.134C243.9 33.134 243.326 33.316 242.887 33.68C242.448 34.0347 242.229 34.4967 242.229 35.066C242.229 35.5047 242.388 35.8733 242.705 36.172C243.022 36.4613 243.428 36.7133 243.923 36.928C244.418 37.1427 244.931 37.3527 245.463 37.558C246.266 37.8567 246.966 38.1647 247.563 38.482C248.17 38.7993 248.641 39.21 248.977 39.714C249.313 40.2087 249.481 40.876 249.481 41.716C249.481 42.696 249.248 43.5407 248.781 44.25C248.324 44.9593 247.675 45.5053 246.835 45.888C245.995 46.2613 245.015 46.448 243.895 46.448ZM257.83 46.448C256.654 46.448 255.74 46.0607 255.086 45.286C254.433 44.502 254.106 43.4053 254.106 41.996V33.722H252.51V31.664H254.106V26.302H256.822V31.664H260.266V33.722H256.822V41.828C256.822 42.5373 256.962 43.0833 257.242 43.466C257.522 43.8487 257.924 44.04 258.446 44.04C258.969 44.04 259.436 43.886 259.846 43.578L260.532 45.748C260.168 45.9627 259.744 46.1307 259.258 46.252C258.782 46.3827 258.306 46.448 257.83 46.448Z" fill="#595E60"/>
<rect x="65" y="21" width="2" height="28" fill="#595E60"/>
<path d="M21.4286 46.3043C21.4286 46.6397 21.328 46.9676 21.1397 47.2464C20.9513 47.5252 20.6836 47.7426 20.3703 47.8709C20.0571 47.9993 19.7124 48.0328 19.3798 47.9674C19.0473 47.902 18.7419 47.7405 18.5021 47.5034C18.2624 47.2662 18.0991 46.9641 18.0329 46.6352C17.9668 46.3062 18.0007 45.9653 18.1305 45.6555C18.2602 45.3456 18.48 45.0808 18.7619 44.8945C19.0438 44.7081 19.3752 44.6087 19.7143 44.6087C20.1689 44.6087 20.605 44.7873 20.9265 45.1053C21.248 45.4233 21.4286 45.8546 21.4286 46.3043ZM19.1429 40.087C18.8398 40.087 18.5491 40.2061 18.3347 40.4181C18.1204 40.63 18 40.9176 18 41.2174C18 41.5172 18.1204 41.8047 18.3347 42.0167C18.5491 42.2287 18.8398 42.3478 19.1429 42.3478C20.3553 42.3478 21.518 42.8242 22.3753 43.6722C23.2327 44.5202 23.7143 45.6703 23.7143 46.8696C23.7143 47.1694 23.8347 47.4569 24.049 47.6689C24.2633 47.8809 24.554 48 24.8571 48C25.1602 48 25.4509 47.8809 25.6653 47.6689C25.8796 47.4569 26 47.1694 26 46.8696C26 45.0707 25.2776 43.3455 23.9916 42.0735C22.7056 40.8015 20.9615 40.087 19.1429 40.087ZM19.1429 35.5652C18.8398 35.5652 18.5491 35.6843 18.3347 35.8963C18.1204 36.1083 18 36.3958 18 36.6957C18 36.9955 18.1204 37.283 18.3347 37.495C18.5491 37.707 18.8398 37.8261 19.1429 37.8261C21.5677 37.8261 23.8932 38.7789 25.6078 40.4749C27.3225 42.1708 28.2857 44.4711 28.2857 46.8696C28.2857 47.1694 28.4061 47.4569 28.6205 47.6689C28.8348 47.8809 29.1255 48 29.4286 48C29.7317 48 30.0224 47.8809 30.2367 47.6689C30.451 47.4569 30.5714 47.1694 30.5714 46.8696C30.5714 43.8715 29.3674 40.9962 27.2241 38.8762C25.0808 36.7562 22.1739 35.5652 19.1429 35.5652ZM46.5714 22H21.4286C20.5193 22 19.6472 22.3573 19.0042 22.9933C18.3612 23.6293 18 24.4919 18 25.3913V32.7391C18 33.0389 18.1204 33.3265 18.3347 33.5385C18.5491 33.7505 18.8398 33.8696 19.1429 33.8696H19.7143C23.1991 33.8726 26.5402 35.2432 29.0043 37.6805C31.4685 40.1178 32.8541 43.4227 32.8571 46.8696C32.8571 47.1694 32.9776 47.4569 33.1919 47.6689C33.4062 47.8809 33.6969 48 34 48H46.5714C47.4807 48 48.3528 47.6427 48.9958 47.0067C49.6388 46.3707 50 45.5081 50 44.6087V25.3913C50 24.4919 49.6388 23.6293 48.9958 22.9933C48.3528 22.3573 47.4807 22 46.5714 22Z" fill="#092948"/>
</svg>
