<svg width="280" height="70" viewBox="0 0 280 70" fill="none" xmlns="http://www.w3.org/2000/svg">
<rect x="1.5" y="1.5" width="277" height="67" rx="3.5" fill="white" stroke="#092948" stroke-width="3"/>
<path d="M83.0573 20.7963L80.0285 20.3552L78.6884 17.6201C78.4496 17.1425 77.9354 16.9415 77.4774 17.0146C77.1473 17.0694 76.8537 17.2717 76.6879 17.6201L75.3295 20.3552L72.319 20.7963C71.4017 20.9241 71.0337 22.0438 71.6953 22.6871L73.898 24.8167L73.3656 27.8454C73.256 28.524 73.7688 29.0746 74.3573 29.149C74.5596 29.1673 74.7801 29.1308 74.9811 29.0198L77.6797 27.6066L80.3782 29.0198C81.2043 29.4413 82.1582 28.7445 81.9937 27.8454L81.4796 24.8167L83.664 22.6871C84.323 22.0438 83.9563 20.9241 83.0573 20.7963Z" fill="#092948"/>
<path d="M60.024 45.1543H52.4737C52.2127 45.1543 52 45.367 52 45.628V52.4292H60.499V45.628C60.4977 45.367 60.285 45.1543 60.024 45.1543Z" fill="#092948"/>
<path d="M70.7403 39.3086H63.19C62.929 39.3086 62.7163 39.5226 62.7163 39.7836V52.4282H71.214V39.7836C71.2153 39.5226 71.0013 39.3086 70.7403 39.3086Z" fill="#092948"/>
<path d="M81.4571 34.9259H73.9068C73.6458 34.9259 73.4331 35.1386 73.4331 35.3996V52.4288H81.9308V35.3996C81.9295 35.1386 81.7181 34.9259 81.4571 34.9259Z" fill="#092948"/>
<path d="M117.148 46L126.29 22.9H128.936L138.078 46H135.012L132.45 39.266H122.776L120.2 46H117.148ZM123.742 36.76H131.484L127.606 26.694L123.742 36.76ZM146.751 46L139.625 31.664H142.817L147.661 42.262L152.505 31.664H155.697L148.557 46H146.751ZM165.005 46.448C163.67 46.448 162.461 46.1213 161.379 45.468C160.305 44.8053 159.451 43.9 158.817 42.752C158.191 41.604 157.879 40.2927 157.879 38.818C157.879 37.362 158.187 36.0647 158.803 34.926C159.419 33.778 160.263 32.8727 161.337 32.21C162.41 31.5473 163.633 31.216 165.005 31.216C166.218 31.216 167.324 31.4867 168.323 32.028C169.331 32.5693 170.11 33.3207 170.661 34.282V31.664H173.377V46H170.661V43.312C170.035 44.3013 169.233 45.0713 168.253 45.622C167.273 46.1727 166.19 46.448 165.005 46.448ZM165.733 44.11C166.713 44.11 167.576 43.886 168.323 43.438C169.079 42.9807 169.671 42.3553 170.101 41.562C170.53 40.7687 170.745 39.8587 170.745 38.832C170.745 37.8053 170.53 36.8953 170.101 36.102C169.671 35.3087 169.079 34.688 168.323 34.24C167.576 33.7827 166.713 33.554 165.733 33.554C164.762 33.554 163.899 33.7827 163.143 34.24C162.387 34.688 161.789 35.3087 161.351 36.102C160.921 36.8953 160.707 37.8053 160.707 38.832C160.707 39.8493 160.921 40.7593 161.351 41.562C161.789 42.3553 162.387 42.9807 163.143 43.438C163.899 43.886 164.762 44.11 165.733 44.11ZM179.108 46V21.92H181.824V46H179.108ZM187.544 46V31.664H190.26V46H187.544ZM188.902 28.766C188.594 28.766 188.309 28.6913 188.048 28.542C187.796 28.3833 187.59 28.1733 187.432 27.912C187.282 27.6507 187.208 27.366 187.208 27.058C187.208 26.7407 187.282 26.456 187.432 26.204C187.59 25.952 187.796 25.7513 188.048 25.602C188.309 25.4433 188.594 25.364 188.902 25.364C189.219 25.364 189.504 25.4433 189.756 25.602C190.008 25.7513 190.208 25.952 190.358 26.204C190.516 26.456 190.596 26.7407 190.596 27.058C190.596 27.366 190.516 27.6507 190.358 27.912C190.208 28.1733 190.008 28.3833 189.756 28.542C189.504 28.6913 189.219 28.766 188.902 28.766ZM202.083 46.448C200.748 46.448 199.539 46.1213 198.457 45.468C197.383 44.8053 196.529 43.9 195.895 42.752C195.269 41.604 194.957 40.2927 194.957 38.818C194.957 37.362 195.265 36.0647 195.881 34.926C196.497 33.778 197.341 32.8727 198.415 32.21C199.488 31.5473 200.711 31.216 202.083 31.216C203.296 31.216 204.402 31.4867 205.401 32.028C206.409 32.5693 207.188 33.3207 207.739 34.282V31.664H210.455V46H207.739V43.312C207.113 44.3013 206.311 45.0713 205.331 45.622C204.351 46.1727 203.268 46.448 202.083 46.448ZM202.811 44.11C203.791 44.11 204.654 43.886 205.401 43.438C206.157 42.9807 206.749 42.3553 207.179 41.562C207.608 40.7687 207.823 39.8587 207.823 38.832C207.823 37.8053 207.608 36.8953 207.179 36.102C206.749 35.3087 206.157 34.688 205.401 34.24C204.654 33.7827 203.791 33.554 202.811 33.554C201.84 33.554 200.977 33.7827 200.221 34.24C199.465 34.688 198.867 35.3087 198.429 36.102C197.999 36.8953 197.785 37.8053 197.785 38.832C197.785 39.8493 197.999 40.7593 198.429 41.562C198.867 42.3553 199.465 42.9807 200.221 43.438C200.977 43.886 201.84 44.11 202.811 44.11ZM216.186 46V31.664H218.902V33.764C219.378 32.9333 219.985 32.3033 220.722 31.874C221.46 31.4353 222.295 31.216 223.228 31.216C223.676 31.216 224.129 31.272 224.586 31.384C225.053 31.4867 225.454 31.6267 225.79 31.804L224.67 34.1C224.381 33.9413 224.045 33.8153 223.662 33.722C223.28 33.6287 222.92 33.582 222.584 33.582C221.959 33.582 221.362 33.7453 220.792 34.072C220.232 34.3893 219.775 34.8047 219.42 35.318C219.075 35.8313 218.902 36.382 218.902 36.97V46H216.186Z" fill="#595E60"/>
<rect x="99" y="21" width="2" height="28" fill="#6E6464"/>
</svg>
