<svg width="45" height="45" viewBox="0 0 45 45" fill="none" xmlns="http://www.w3.org/2000/svg">
<path d="M2.25 36C1.0125 36 0 34.9875 0 33.75V4.5C0 2.025 2.025 0 4.5 0H33.75C34.9875 0 36 1.0125 36 2.25C36 3.4875 34.9875 4.5 33.75 4.5H6.75C5.5125 4.5 4.5 5.5125 4.5 6.75V33.75C4.5 34.9875 3.4875 36 2.25 36ZM40.5 45H13.5C11.025 45 9 42.975 9 40.5V13.5C9 11.025 11.025 9 13.5 9H40.5C42.975 9 45 11.025 45 13.5V40.5C45 42.975 42.975 45 40.5 45ZM36 24.75H29.25V18C29.25 16.7625 28.2375 15.75 27 15.75C25.7625 15.75 24.75 16.7625 24.75 18V24.75H18C16.7625 24.75 15.75 25.7625 15.75 27C15.75 28.2375 16.7625 29.25 18 29.25H24.75V36C24.75 37.2375 25.7625 38.25 27 38.25C28.2375 38.25 29.25 37.2375 29.25 36V29.25H36C37.2375 29.25 38.25 28.2375 38.25 27C38.25 25.7625 37.2375 24.75 36 24.75Z" fill="#133E68"/>
</svg>
