<svg width="205" height="65" viewBox="0 0 205 65" fill="none" xmlns="http://www.w3.org/2000/svg">
<rect x="5" y="5" width="200" height="60" rx="5" fill="#85BFD6"/>
<rect width="200" height="60" rx="5" fill="#133E68"/>
<path d="M87.6918 41.4457C85.9646 41.4457 84.3536 41.1439 82.8586 40.5404C81.3729 39.9275 80.0682 39.0825 78.9446 38.0054C77.8304 36.9189 76.9621 35.6514 76.34 34.2029C75.7179 32.7543 75.4068 31.1943 75.4068 29.5229C75.4068 27.8514 75.7179 26.2914 76.34 24.8429C76.9714 23.3943 77.8443 22.1314 78.9586 21.0543C80.0729 19.9679 81.3729 19.1229 82.8586 18.5193C84.3443 17.9064 85.9507 17.6 87.6779 17.6C89.1079 17.6 90.4543 17.8089 91.7171 18.2268C92.9893 18.6354 94.0989 19.1971 95.0461 19.9121L93.7646 22.2939C93.0032 21.6811 92.1118 21.2121 91.0904 20.8871C90.0689 20.5529 88.9918 20.3857 87.8589 20.3857C86.4939 20.3857 85.2404 20.6179 84.0982 21.0821C82.9561 21.5464 81.9625 22.1964 81.1175 23.0321C80.2818 23.8586 79.6318 24.8289 79.1675 25.9432C78.7125 27.0482 78.485 28.2414 78.485 29.5229C78.485 30.8043 78.7125 32.0021 79.1675 33.1164C79.6318 34.2214 80.2818 35.1918 81.1175 36.0275C81.9625 36.8539 82.9561 37.4993 84.0982 37.9636C85.2404 38.4279 86.4939 38.66 87.8589 38.66C88.9918 38.66 90.0689 38.4975 91.0904 38.1725C92.1118 37.8382 93.0032 37.3646 93.7646 36.7518L95.0461 39.1336C94.1175 39.83 93.0218 40.3918 91.7589 40.8189C90.4961 41.2368 89.1404 41.4457 87.6918 41.4457ZM105.84 41.4457C104.326 41.4457 102.961 41.1254 101.745 40.4846C100.538 39.8439 99.5766 38.9525 98.8616 37.8104C98.1559 36.6682 97.8031 35.3543 97.8031 33.8686C97.8031 32.3736 98.1559 31.0596 98.8616 29.9268C99.5766 28.7846 100.538 27.8932 101.745 27.2525C102.961 26.6118 104.326 26.2914 105.84 26.2914C107.353 26.2914 108.714 26.6118 109.921 27.2525C111.137 27.8932 112.098 28.7846 112.804 29.9268C113.519 31.0596 113.877 32.3736 113.877 33.8686C113.877 35.3543 113.519 36.6682 112.804 37.8104C112.098 38.9525 111.137 39.8439 109.921 40.4846C108.714 41.1254 107.353 41.4457 105.84 41.4457ZM105.854 39.0918C106.847 39.0918 107.739 38.8689 108.528 38.4232C109.317 37.9775 109.939 37.36 110.394 36.5707C110.849 35.7814 111.077 34.8807 111.077 33.8686C111.077 32.8471 110.849 31.9464 110.394 31.1664C109.939 30.3771 109.317 29.7596 108.528 29.3139C107.739 28.8682 106.847 28.6454 105.854 28.6454C104.851 28.6454 103.955 28.8682 103.166 29.3139C102.376 29.7596 101.754 30.3771 101.299 31.1664C100.844 31.9464 100.617 32.8471 100.617 33.8686C100.617 34.8807 100.844 35.7814 101.299 36.5707C101.754 37.36 102.376 37.9775 103.166 38.4232C103.955 38.8689 104.851 39.0918 105.854 39.0918ZM118.396 41V26.7371H121.098V28.5757C121.535 27.9257 122.162 27.3825 122.979 26.9461C123.796 26.5096 124.766 26.2914 125.89 26.2914C126.995 26.2914 127.951 26.5236 128.759 26.9879C129.567 27.4429 130.189 28.1021 130.626 28.9657C131.071 29.8293 131.294 30.86 131.294 32.0579V41H128.592V32.6011C128.592 31.2639 128.272 30.2379 127.631 29.5229C126.99 28.8079 126.089 28.4504 124.929 28.4504C124.13 28.4504 123.443 28.6129 122.867 28.9379C122.301 29.2536 121.864 29.6807 121.558 30.2193C121.252 30.7486 121.098 31.3289 121.098 31.9604V41H118.396ZM137.066 41V28.7846H135.492V26.7371H137.066V22.0989C137.066 20.9011 137.243 19.8982 137.595 19.0904C137.948 18.2732 138.45 17.6604 139.1 17.2518C139.759 16.8339 140.53 16.625 141.412 16.625C142.062 16.625 142.679 16.7179 143.264 16.9036C143.849 17.08 144.369 17.3168 144.824 17.6139C145.289 17.9111 145.665 18.2454 145.953 18.6168L144.824 20.3579C144.564 19.9771 144.174 19.6521 143.654 19.3829C143.144 19.1136 142.633 18.9789 142.122 18.9789C141.314 18.9789 140.72 19.2204 140.339 19.7032C139.959 20.1861 139.768 20.98 139.768 22.085V26.7371H146.997V41H144.295V28.7846H139.768V41H137.066ZM158.511 48.6607C156.672 48.6607 155.121 48.3079 153.859 47.6021C152.596 46.8964 151.663 45.8657 151.059 44.51L153.301 43.4514C153.729 44.3336 154.411 45.0346 155.349 45.5546C156.287 46.0839 157.341 46.3486 158.511 46.3486C159.514 46.3486 160.405 46.1489 161.185 45.7496C161.974 45.3504 162.592 44.7793 163.038 44.0364C163.493 43.2936 163.72 42.4068 163.72 41.3761V38.3257C163.116 39.3007 162.323 40.0668 161.338 40.6239C160.354 41.1718 159.268 41.4457 158.079 41.4457C156.76 41.4457 155.567 41.1207 154.499 40.4707C153.431 39.8207 152.582 38.9246 151.95 37.7825C151.319 36.6404 151.003 35.3357 151.003 33.8686C151.003 32.4107 151.314 31.1154 151.936 29.9825C152.559 28.8404 153.404 27.9396 154.471 27.2804C155.549 26.6211 156.77 26.2914 158.135 26.2914C159.323 26.2914 160.41 26.5607 161.394 27.0993C162.378 27.6379 163.154 28.3854 163.72 29.3418V26.7371H166.422V41.39C166.422 42.9129 166.111 44.2175 165.489 45.3039C164.876 46.3904 163.98 47.2214 162.801 47.7971C161.621 48.3729 160.191 48.6607 158.511 48.6607ZM158.803 39.1196C159.778 39.1196 160.642 38.8968 161.394 38.4511C162.155 37.9961 162.75 37.3739 163.177 36.5846C163.604 35.7954 163.818 34.8946 163.818 33.8825C163.818 32.8611 163.599 31.9557 163.163 31.1664C162.736 30.3679 162.146 29.7457 161.394 29.3C160.642 28.845 159.783 28.6175 158.817 28.6175C157.851 28.6175 156.993 28.845 156.24 29.3C155.488 29.7457 154.894 30.3679 154.458 31.1664C154.03 31.9557 153.817 32.8611 153.817 33.8825C153.817 34.8946 154.03 35.7954 154.458 36.5846C154.885 37.3739 155.474 37.9961 156.226 38.4511C156.979 38.8968 157.838 39.1196 158.803 39.1196ZM174.973 41.4457C174.63 41.4457 174.319 41.3621 174.04 41.195C173.762 41.0279 173.539 40.805 173.372 40.5264C173.205 40.2479 173.121 39.9414 173.121 39.6071C173.121 39.2729 173.205 38.9664 173.372 38.6879C173.539 38.4093 173.762 38.1911 174.04 38.0332C174.319 37.8661 174.625 37.7825 174.96 37.7825C175.303 37.7825 175.61 37.8661 175.879 38.0332C176.157 38.1911 176.376 38.4093 176.533 38.6879C176.701 38.9664 176.784 39.2729 176.784 39.6071C176.784 39.9414 176.701 40.2479 176.533 40.5264C176.376 40.805 176.157 41.0279 175.879 41.195C175.61 41.3621 175.308 41.4457 174.973 41.4457Z" fill="white"/>
<path d="M52.6875 26.8867L50.7975 26.6971C50.6706 26.0423 50.4985 25.3992 50.2871 24.7779L51.8271 23.671C52.4367 23.2321 52.6146 22.4096 52.2383 21.7577L51.0746 19.7438C50.6998 19.0933 49.8992 18.8352 49.2123 19.1429L47.4885 19.9217C47.0525 19.4215 46.58 18.949 46.0798 18.5129L46.8585 16.7877C47.1663 16.1023 46.9081 15.3017 46.2577 14.9254L44.2437 13.7631C43.5904 13.3869 42.7694 13.5648 42.3304 14.1744L41.2235 15.7144C40.6023 15.5015 39.9592 15.3308 39.3044 15.204L39.1148 13.314C39.039 12.5644 38.4148 12 37.6623 12H35.3363C34.5837 12 33.9596 12.5644 33.8852 13.3125L33.6956 15.2025C33.0408 15.3294 32.3977 15.5015 31.7765 15.7129L30.6696 14.1744C30.2321 13.5648 29.4096 13.3869 28.7563 13.7631L26.7438 14.9254C26.0919 15.3017 25.8337 16.1023 26.1429 16.7892L26.9217 18.5129C26.42 18.949 25.949 19.42 25.5129 19.9217L23.7877 19.1415C23.1023 18.8337 22.3017 19.0919 21.9254 19.7438L20.7631 21.7563C20.3869 22.4096 20.5648 23.2321 21.1744 23.6696L22.7144 24.7765C22.5015 25.3977 22.3308 26.0408 22.204 26.6956L20.314 26.8852C19.5644 26.961 19 27.5852 19 28.3377V30.6638C19 31.4163 19.5644 32.0404 20.3125 32.1148L22.2025 32.3044C22.3294 32.9592 22.5015 33.6023 22.7129 34.2235L21.1729 35.3304C20.5633 35.7694 20.3854 36.5919 20.7617 37.2437L21.924 39.2577C22.3002 39.9096 23.1023 40.1692 23.7863 39.8585L25.51 39.0798C25.946 39.58 26.4185 40.0525 26.9187 40.4885L26.14 42.2138C25.8323 42.8992 26.0904 43.6998 26.7408 44.076L28.7548 45.2383C29.4081 45.616 30.2306 45.4381 30.6681 44.8271L31.775 43.2871C32.3963 43.5 33.0394 43.6706 33.6942 43.7975L33.8838 45.6875C33.961 46.4356 34.5852 47 35.3377 47H37.6638C38.4163 47 39.0404 46.4356 39.1148 45.6875L39.3044 43.7975C39.9592 43.6706 40.6023 43.4985 41.2235 43.2871L42.3304 44.8271C42.7694 45.4367 43.589 45.6131 44.2437 45.2383L46.2577 44.076C46.9081 43.6998 47.1677 42.8992 46.8585 42.2138L46.0798 40.49C46.58 40.054 47.0525 39.5815 47.4885 39.0813L49.2138 39.86C49.8992 40.1677 50.7013 39.911 51.076 39.2592L52.2383 37.2452C52.6146 36.5933 52.4367 35.7708 51.8271 35.3319L50.2871 34.225C50.5 33.6038 50.6706 32.9606 50.7975 32.3058L52.6875 32.1163C53.4356 32.039 54 31.4148 54 30.6623V28.3363C54 27.5852 53.4356 26.961 52.6875 26.8867ZM36.5 19.2917C41.6319 19.2917 45.88 23.1023 46.5917 28.0417H39.8367C39.2723 26.7569 37.9919 25.8542 36.5 25.8542C36.3644 25.8542 36.2346 25.8804 36.1019 25.895L32.7156 20.0267C33.8867 19.5571 35.1627 19.2917 36.5 19.2917ZM26.2917 29.5C26.2917 26.2523 27.8215 23.3604 30.1912 21.4894L33.5731 27.346C33.1269 27.9527 32.8542 28.6921 32.8542 29.5C32.8542 30.3079 33.1269 31.0473 33.5731 31.6525L30.1912 37.5092C27.8215 35.6381 26.2917 32.7477 26.2917 29.5ZM36.5 39.7083C35.1627 39.7083 33.8867 39.4429 32.7156 38.9719L36.1033 33.105C36.2346 33.1196 36.3644 33.1458 36.5 33.1458C37.9919 33.1458 39.2723 32.2431 39.8367 30.9583H46.5917C45.88 35.8977 41.6319 39.7083 36.5 39.7083Z" fill="white"/>
</svg>
