<svg width="280" height="70" viewBox="0 0 280 70" fill="none" xmlns="http://www.w3.org/2000/svg">
<rect x="1.5" y="1.5" width="277" height="67" rx="3.5" fill="white" stroke="#092948" stroke-width="3"/>
<path d="M97.584 46V22.9H100.426V46H97.584ZM106.878 46V31.664H109.594V33.512C110.032 32.8587 110.662 32.3127 111.484 31.874C112.305 31.4353 113.28 31.216 114.41 31.216C115.52 31.216 116.482 31.4493 117.294 31.916C118.106 32.3733 118.731 33.036 119.17 33.904C119.618 34.772 119.842 35.808 119.842 37.012V46H117.126V37.558C117.126 36.214 116.804 35.1827 116.16 34.464C115.516 33.7453 114.61 33.386 113.444 33.386C112.641 33.386 111.95 33.5493 111.372 33.876C110.802 34.1933 110.364 34.6227 110.056 35.164C109.748 35.696 109.594 36.2793 109.594 36.914V46H106.878ZM128.993 46.448C127.798 46.448 126.739 46.1913 125.815 45.678C124.9 45.1553 124.172 44.4133 123.631 43.452L124.933 41.772C125.427 42.6027 126.025 43.2467 126.725 43.704C127.425 44.1613 128.176 44.39 128.979 44.39C129.501 44.39 129.973 44.2873 130.393 44.082C130.822 43.8767 131.163 43.5827 131.415 43.2C131.667 42.808 131.793 42.346 131.793 41.814C131.793 41.3007 131.662 40.8993 131.401 40.61C131.149 40.3113 130.771 40.05 130.267 39.826C129.772 39.602 129.151 39.3453 128.405 39.056C127.807 38.8133 127.229 38.538 126.669 38.23C126.109 37.922 125.647 37.5347 125.283 37.068C124.928 36.592 124.751 35.99 124.751 35.262C124.751 34.478 124.961 33.7827 125.381 33.176C125.81 32.5693 126.398 32.0933 127.145 31.748C127.891 31.4027 128.741 31.23 129.693 31.23C130.467 31.23 131.219 31.384 131.947 31.692C132.675 32 133.365 32.4433 134.019 33.022L132.927 34.674C131.956 33.6473 130.883 33.134 129.707 33.134C128.997 33.134 128.423 33.316 127.985 33.68C127.546 34.0347 127.327 34.4967 127.327 35.066C127.327 35.5047 127.485 35.8733 127.803 36.172C128.12 36.4613 128.526 36.7133 129.021 36.928C129.515 37.1427 130.029 37.3527 130.561 37.558C131.363 37.8567 132.063 38.1647 132.661 38.482C133.267 38.7993 133.739 39.21 134.075 39.714C134.411 40.2087 134.579 40.876 134.579 41.716C134.579 42.696 134.345 43.5407 133.879 44.25C133.421 44.9593 132.773 45.5053 131.933 45.888C131.093 46.2613 130.113 46.448 128.993 46.448ZM142.928 46.448C141.752 46.448 140.837 46.0607 140.184 45.286C139.531 44.502 139.204 43.4053 139.204 41.996V33.722H137.608V31.664H139.204V26.302H141.92V31.664H145.364V33.722H141.92V41.828C141.92 42.5373 142.06 43.0833 142.34 43.466C142.62 43.8487 143.021 44.04 143.544 44.04C144.067 44.04 144.533 43.886 144.944 43.578L145.63 45.748C145.266 45.9627 144.841 46.1307 144.356 46.252C143.88 46.3827 143.404 46.448 142.928 46.448ZM155.884 46.448C154.549 46.448 153.34 46.1213 152.258 45.468C151.184 44.8053 150.33 43.9 149.696 42.752C149.07 41.604 148.758 40.2927 148.758 38.818C148.758 37.362 149.066 36.0647 149.682 34.926C150.298 33.778 151.142 32.8727 152.216 32.21C153.289 31.5473 154.512 31.216 155.884 31.216C157.097 31.216 158.203 31.4867 159.202 32.028C160.21 32.5693 160.989 33.3207 161.54 34.282V31.664H164.256V46H161.54V43.312C160.914 44.3013 160.112 45.0713 159.132 45.622C158.152 46.1727 157.069 46.448 155.884 46.448ZM156.612 44.11C157.592 44.11 158.455 43.886 159.202 43.438C159.958 42.9807 160.55 42.3553 160.98 41.562C161.409 40.7687 161.624 39.8587 161.624 38.832C161.624 37.8053 161.409 36.8953 160.98 36.102C160.55 35.3087 159.958 34.688 159.202 34.24C158.455 33.7827 157.592 33.554 156.612 33.554C155.641 33.554 154.778 33.7827 154.022 34.24C153.266 34.688 152.668 35.3087 152.23 36.102C151.8 36.8953 151.586 37.8053 151.586 38.832C151.586 39.8493 151.8 40.7593 152.23 41.562C152.668 42.3553 153.266 42.9807 154.022 43.438C154.778 43.886 155.641 44.11 156.612 44.11ZM176.483 53.7C174.635 53.7 173.077 53.3453 171.807 52.636C170.538 51.9267 169.6 50.8907 168.993 49.528L171.247 48.464C171.677 49.3507 172.363 50.0553 173.305 50.578C174.248 51.11 175.307 51.376 176.483 51.376C177.491 51.376 178.387 51.1753 179.171 50.774C179.965 50.3727 180.585 49.7987 181.033 49.052C181.491 48.3053 181.719 47.414 181.719 46.378V43.312C181.113 44.292 180.315 45.062 179.325 45.622C178.336 46.1727 177.244 46.448 176.049 46.448C174.724 46.448 173.525 46.1213 172.451 45.468C171.378 44.8147 170.524 43.914 169.889 42.766C169.255 41.618 168.937 40.3067 168.937 38.832C168.937 37.3667 169.25 36.0647 169.875 34.926C170.501 33.778 171.35 32.8727 172.423 32.21C173.506 31.5473 174.733 31.216 176.105 31.216C177.3 31.216 178.392 31.4867 179.381 32.028C180.371 32.5693 181.15 33.3207 181.719 34.282V31.664H184.435V46.392C184.435 47.9227 184.123 49.234 183.497 50.326C182.881 51.418 181.981 52.2533 180.795 52.832C179.61 53.4107 178.173 53.7 176.483 53.7ZM176.777 44.11C177.757 44.11 178.625 43.886 179.381 43.438C180.147 42.9807 180.744 42.3553 181.173 41.562C181.603 40.7687 181.817 39.8633 181.817 38.846C181.817 37.8193 181.598 36.9093 181.159 36.116C180.73 35.3133 180.137 34.688 179.381 34.24C178.625 33.7827 177.762 33.554 176.791 33.554C175.821 33.554 174.957 33.7827 174.201 34.24C173.445 34.688 172.848 35.3133 172.409 36.116C171.98 36.9093 171.765 37.8193 171.765 38.846C171.765 39.8633 171.98 40.7687 172.409 41.562C172.839 42.3553 173.431 42.9807 174.187 43.438C174.943 43.886 175.807 44.11 176.777 44.11ZM190.167 46V31.664H192.883V33.764C193.359 32.9333 193.966 32.3033 194.703 31.874C195.44 31.4353 196.276 31.216 197.209 31.216C197.657 31.216 198.11 31.272 198.567 31.384C199.034 31.4867 199.435 31.6267 199.771 31.804L198.651 34.1C198.362 33.9413 198.026 33.8153 197.643 33.722C197.26 33.6287 196.901 33.582 196.565 33.582C195.94 33.582 195.342 33.7453 194.773 34.072C194.213 34.3893 193.756 34.8047 193.401 35.318C193.056 35.8313 192.883 36.382 192.883 36.97V46H190.167ZM208.985 46.448C207.65 46.448 206.442 46.1213 205.359 45.468C204.286 44.8053 203.432 43.9 202.797 42.752C202.172 41.604 201.859 40.2927 201.859 38.818C201.859 37.362 202.167 36.0647 202.783 34.926C203.399 33.778 204.244 32.8727 205.317 32.21C206.39 31.5473 207.613 31.216 208.985 31.216C210.198 31.216 211.304 31.4867 212.303 32.028C213.311 32.5693 214.09 33.3207 214.641 34.282V31.664H217.357V46H214.641V43.312C214.016 44.3013 213.213 45.0713 212.233 45.622C211.253 46.1727 210.17 46.448 208.985 46.448ZM209.713 44.11C210.693 44.11 211.556 43.886 212.303 43.438C213.059 42.9807 213.652 42.3553 214.081 41.562C214.51 40.7687 214.725 39.8587 214.725 38.832C214.725 37.8053 214.51 36.8953 214.081 36.102C213.652 35.3087 213.059 34.688 212.303 34.24C211.556 33.7827 210.693 33.554 209.713 33.554C208.742 33.554 207.879 33.7827 207.123 34.24C206.367 34.688 205.77 35.3087 205.331 36.102C204.902 36.8953 204.687 37.8053 204.687 38.832C204.687 39.8493 204.902 40.7593 205.331 41.562C205.77 42.3553 206.367 42.9807 207.123 43.438C207.879 43.886 208.742 44.11 209.713 44.11ZM223.089 46V31.664H225.805V33.512C226.411 32.7467 227.097 32.1727 227.863 31.79C228.628 31.4073 229.477 31.216 230.411 31.216C231.568 31.216 232.585 31.482 233.463 32.014C234.34 32.5367 234.951 33.2507 235.297 34.156C235.894 33.2413 236.613 32.5227 237.453 32C238.293 31.4773 239.277 31.216 240.407 31.216C241.433 31.216 242.343 31.426 243.137 31.846C243.93 32.266 244.555 32.8727 245.013 33.666C245.47 34.4593 245.699 35.4207 245.699 36.55V46H242.983V37.306C242.983 36.1113 242.67 35.164 242.045 34.464C241.419 33.764 240.589 33.414 239.553 33.414C238.834 33.414 238.185 33.5727 237.607 33.89C237.037 34.198 236.585 34.604 236.249 35.108C235.922 35.6027 235.759 36.1253 235.759 36.676V46H233.043V37.124C233.043 35.9947 232.735 35.094 232.119 34.422C231.503 33.75 230.681 33.414 229.655 33.414C228.936 33.414 228.283 33.568 227.695 33.876C227.116 34.1747 226.654 34.5667 226.309 35.052C225.973 35.5373 225.805 36.046 225.805 36.578V46H223.089Z" fill="#595E60"/>
<path d="M54 19H38C33.584 19 30 22.584 30 27V43C30 47.416 33.584 51 38 51H54C58.416 51 62 47.416 62 43V27C62 22.584 58.416 19 54 19ZM46 43C41.584 43 38 39.416 38 35C38 30.584 41.584 27 46 27C50.416 27 54 30.584 54 35C54 39.416 50.416 43 46 43ZM54.56 27.992C53.68 27.992 52.96 27.272 52.96 26.392C52.96 25.512 53.68 24.792 54.56 24.792C55.44 24.792 56.16 25.512 56.16 26.392C56.16 27.272 55.44 27.992 54.56 27.992Z" fill="#092948"/>
<path d="M46.0002 39.8C48.6512 39.8 50.8002 37.651 50.8002 35C50.8002 32.349 48.6512 30.2 46.0002 30.2C43.3492 30.2 41.2002 32.349 41.2002 35C41.2002 37.651 43.3492 39.8 46.0002 39.8Z" fill="#092948"/>
<rect x="77" y="21" width="2" height="28" fill="#595E60"/>
</svg>
