<svg width="32" height="37" viewBox="0 0 32 37" fill="none" xmlns="http://www.w3.org/2000/svg">
<path d="M15.9999 0C9.60242 0 4.2666 5.15343 4.2666 11.7333C4.2666 14.2366 5.01881 16.4688 6.46244 18.5604L15.102 32.0417C15.5211 32.6971 16.4796 32.6958 16.8979 32.0417L25.5749 18.5146C26.9875 16.5177 27.7333 14.173 27.7333 11.7333C27.7333 5.26358 22.4697 0 15.9999 0ZM15.9999 17.0667C13.0593 17.0667 10.6666 14.674 10.6666 11.7333C10.6666 8.79269 13.0593 6.40001 15.9999 6.40001C18.9406 6.40001 21.3333 8.79269 21.3333 11.7333C21.3333 14.674 18.9406 17.0667 15.9999 17.0667Z" fill="#092948"/>
<path d="M24.3388 24.5116L18.9677 32.9089C17.5774 35.0765 14.4149 35.0694 13.0313 32.911L7.65141 24.5138C2.91797 25.6082 0 27.613 0 30.0088C0 34.1662 8.24377 36.4089 16 36.4089C23.7562 36.4089 32 34.1662 32 30.0088C32 27.6113 29.078 25.6054 24.3388 24.5116Z" fill="#092948"/>
</svg>
