<svg width="47" height="45" viewBox="0 0 47 45" fill="none" xmlns="http://www.w3.org/2000/svg">
<path d="M25.8855 44.5823C26.2585 44.8658 26.721 45 27.1835 45C27.5267 45 27.8848 44.9254 28.1981 44.7613C28.9441 44.3734 29.4215 43.5976 29.4215 42.7621V2.24041C29.4215 1.40491 28.9441 0.629057 28.1981 0.241132C27.467 -0.131859 26.5569 -0.0721208 25.8855 0.420256L10.1304 11.6547H2.23794C0.999585 11.6547 0 12.6692 0 13.8926V31.1098C0 32.3333 0.999585 33.3478 2.23794 33.3478H10.1304L25.8855 44.5823Z" fill="#595E60"/>
<path d="M45.5952 16.6186C44.721 15.7444 43.3048 15.7444 42.4306 16.6186L39.7126 19.3363L36.9946 16.6186C36.1204 15.7444 34.7042 15.7444 33.83 16.6186C32.9558 17.4928 32.9558 18.9097 33.83 19.7832L36.5479 22.5008L33.83 25.2185C32.9558 26.0927 32.9558 27.5089 33.83 28.3831C34.2671 28.8202 34.8397 29.0387 35.4123 29.0387C35.9849 29.0387 36.5575 28.8202 36.9946 28.3831L39.7126 25.6653L42.4306 28.3831C42.8677 28.8202 43.4403 29.0387 44.0129 29.0387C44.5855 29.0387 45.1581 28.8202 45.5952 28.3831C46.4694 27.5089 46.4694 26.0927 45.5952 25.2185L42.8773 22.5008L45.5952 19.7832C46.4694 18.9097 46.4694 17.4928 45.5952 16.6186Z" fill="#595E60"/>
</svg>
