<svg width="48" height="48" viewBox="0 0 48 48" fill="none" xmlns="http://www.w3.org/2000/svg">
<path d="M38.1445 13.7745C38.1445 14.0555 38.0328 14.325 37.8342 14.5237C37.6355 14.7224 37.3659 14.8341 37.0849 14.8341H34.9658V16.9532C34.9658 17.2342 34.8541 17.5038 34.6554 17.7025C34.4567 17.9011 34.1872 18.0128 33.9062 18.0128C33.6252 18.0128 33.3556 17.9011 33.1569 17.7025C32.9583 17.5038 32.8466 17.2342 32.8466 16.9532V14.8341H30.7274C30.4464 14.8341 30.1768 14.7224 29.9782 14.5237C29.7795 14.325 29.6678 14.0555 29.6678 13.7745C29.6678 13.4934 29.7795 13.2239 29.9782 13.0252C30.1768 12.8265 30.4464 12.7149 30.7274 12.7149H32.8466V10.5957C32.8466 10.3147 32.9583 10.0452 33.1569 9.84646C33.3556 9.64776 33.6252 9.53612 33.9062 9.53612C34.1872 9.53612 34.4567 9.64776 34.6554 9.84646C34.8541 10.0452 34.9658 10.3147 34.9658 10.5957V12.7149H37.0849C37.3659 12.7149 37.6355 12.8265 37.8342 13.0252C38.0328 13.2239 38.1445 13.4934 38.1445 13.7745ZM34.9658 21.0856C34.6848 21.0856 34.4152 21.1973 34.2165 21.396C34.0179 21.5946 33.9062 21.8642 33.9062 22.1452V25.1783C33.125 24.6476 32.2015 24.366 31.2572 24.3703C30.3142 24.3703 29.3923 24.65 28.6081 25.1739C27.824 25.6979 27.2129 26.4426 26.852 27.3138C26.4911 28.1851 26.3967 29.1438 26.5807 30.0687C26.7647 30.9936 27.2188 31.8432 27.8856 32.5101C28.5525 33.1769 29.4021 33.631 30.327 33.815C31.2519 33.999 32.2106 33.9046 33.0819 33.5437C33.9531 33.1828 34.6978 32.5717 35.2218 31.7876C35.7457 31.0034 36.0253 30.0815 36.0253 29.1385V22.1452C36.0253 21.8642 35.9137 21.5946 35.715 21.396C35.5163 21.1973 35.2468 21.0856 34.9658 21.0856ZM28.9261 19.536C29.0685 19.4719 29.1947 19.3768 29.2956 19.2576C29.3964 19.1385 29.4693 18.9982 29.5089 18.8472C29.5537 18.6687 29.5529 18.4817 29.5065 18.3035C29.4604 18.1253 29.37 17.9616 29.244 17.8274C29.1431 17.733 29.0266 17.6568 28.8996 17.6022C28.1803 17.2532 27.5731 16.7096 27.1471 16.033C26.721 15.3564 26.493 14.574 26.4891 13.7745C26.4891 13.5663 26.5024 13.3584 26.5288 13.152C26.56 12.9895 26.5523 12.822 26.5062 12.6632C26.4602 12.5043 26.3772 12.3586 26.2639 12.2381C26.1339 12.1007 25.9697 12.0002 25.7883 11.9467C25.6069 11.8932 25.4145 11.8886 25.2308 11.9334L17.7607 13.801C17.5296 13.8575 17.3242 13.9901 17.1777 14.1775C17.0311 14.3649 16.9519 14.5962 16.9528 14.8341V29.4166C16.1716 28.886 15.2481 28.6043 14.3038 28.6087C13.3607 28.6087 12.4389 28.8883 11.6548 29.4123C10.8706 29.9362 10.2595 30.6809 9.8986 31.5521C9.53771 32.4234 9.44328 33.3821 9.62727 34.307C9.81125 35.232 10.2654 36.0815 10.9322 36.7484C11.599 37.4152 12.4486 37.8694 13.3736 38.0533C14.2985 38.2374 15.2572 38.143 16.1285 37.7821C16.9997 37.4212 17.7444 36.81 18.2683 36.0259C18.7923 35.2417 19.0719 34.3199 19.0719 33.3768V22.0128L28.7142 19.6022L28.9261 19.536Z" fill="#85BFD6"/>
<rect x="1.03655" y="1.03655" width="45.6084" height="45.6084" rx="2.07311" stroke="white" stroke-width="2.07311"/>
</svg>
