<svg width="60" height="60" viewBox="0 0 60 60" fill="none" xmlns="http://www.w3.org/2000/svg">
<rect x="1" y="1" width="58" height="58" rx="4" stroke="#133E68" stroke-opacity="0.3" stroke-width="2"/>
<path fill-rule="evenodd" clip-rule="evenodd" d="M25 17.5C25 16.1193 26.1192 15 27.5 15H47.5C48.8807 15 50 16.1193 50 17.5C50 18.8807 48.8807 20 47.5 20H27.5C26.1192 20 25 18.8807 25 17.5ZM10 30C10 28.6193 11.1193 27.5 12.5 27.5H47.5C48.8807 27.5 50 28.6193 50 30C50 31.3808 48.8807 32.5 47.5 32.5H12.5C11.1193 32.5 10 31.3808 10 30ZM10 42.5C10 41.1192 11.1193 40 12.5 40H32.5C33.8808 40 35 41.1192 35 42.5C35 43.8808 33.8808 45 32.5 45H12.5C11.1193 45 10 43.8808 10 42.5Z" fill="#595E60"/>
</svg>
