<svg width="205" height="65" viewBox="0 0 205 65" fill="none" xmlns="http://www.w3.org/2000/svg">
<rect x="5" y="5" width="200" height="60" rx="5" fill="#85BFD6"/>
<rect width="200" height="60" rx="5" fill="#133E68"/>
<path d="M87.3261 41.2143L90.0979 18.2322H93.1064L99.4857 35.1414L105.865 18.2322H108.874L111.645 41.2143H108.818L106.603 23.4136L100.433 40.0582H98.5386L92.3682 23.4136L90.1536 41.2143H87.3261ZM123.555 41.66C122.06 41.66 120.719 41.3304 119.53 40.6711C118.341 40.0118 117.404 39.1157 116.716 37.9829C116.029 36.8407 115.686 35.5547 115.686 34.1247C115.686 33.0661 115.881 32.0772 116.271 31.1579C116.661 30.2386 117.204 29.4307 117.9 28.7343C118.597 28.0286 119.405 27.4807 120.324 27.0907C121.243 26.7007 122.228 26.5057 123.277 26.5057C124.763 26.5057 126.063 26.8122 127.177 27.425C128.3 28.0379 129.173 28.8922 129.795 29.9879C130.427 31.0836 130.743 32.3557 130.743 33.8043C130.743 33.925 130.738 34.0225 130.729 34.0968C130.719 34.1711 130.701 34.2686 130.673 34.3893H118.416C118.416 35.3829 118.639 36.2604 119.084 37.0218C119.539 37.7832 120.161 38.3822 120.951 38.8186C121.749 39.2457 122.664 39.4593 123.695 39.4593C124.67 39.4593 125.543 39.2597 126.313 38.8604C127.084 38.4611 127.753 37.8668 128.319 37.0775L130.297 38.1082C129.619 39.2318 128.686 40.1047 127.497 40.7268C126.318 41.3489 125.004 41.66 123.555 41.66ZM118.555 32.3975H128.026C127.896 31.6639 127.609 31.0232 127.163 30.4754C126.726 29.9182 126.174 29.4864 125.505 29.18C124.846 28.8643 124.117 28.7064 123.319 28.7064C122.483 28.7064 121.726 28.8597 121.048 29.1661C120.38 29.4632 119.827 29.8904 119.391 30.4475C118.964 30.9954 118.685 31.6454 118.555 32.3975ZM135.191 41.2143V26.9514H137.893V28.79C138.329 28.14 138.956 27.5968 139.773 27.1604C140.59 26.7239 141.561 26.5057 142.684 26.5057C143.789 26.5057 144.746 26.7379 145.554 27.2022C146.361 27.6572 146.984 28.3164 147.42 29.18C147.866 30.0436 148.089 31.0743 148.089 32.2722V41.2143H145.386V32.8154C145.386 31.4782 145.066 30.4522 144.425 29.7372C143.785 29.0222 142.884 28.6647 141.723 28.6647C140.925 28.6647 140.238 28.8272 139.662 29.1522C139.095 29.4679 138.659 29.895 138.353 30.4336C138.046 30.9629 137.893 31.5432 137.893 32.1747V41.2143H135.191ZM159.655 41.66C157.361 41.66 155.718 41.1679 154.724 40.1836C153.731 39.19 153.234 37.5418 153.234 35.2389V26.9514H155.936V34.6818C155.936 36.3904 156.219 37.6068 156.786 38.3311C157.352 39.0554 158.309 39.4175 159.655 39.4175C161.011 39.4175 161.972 39.0554 162.538 38.3311C163.105 37.6068 163.388 36.3904 163.388 34.6818V26.9514H166.09V35.2389C166.09 37.5418 165.593 39.19 164.6 40.1836C163.606 41.1679 161.958 41.66 159.655 41.66Z" fill="white"/>
<path fill-rule="evenodd" clip-rule="evenodd" d="M43.125 19.1667C43.125 17.9701 44.1043 17 45.3125 17H62.8125C64.0207 17 65 17.9701 65 19.1667C65 20.3633 64.0207 21.3333 62.8125 21.3333H45.3125C44.1043 21.3333 43.125 20.3633 43.125 19.1667ZM30 30C30 28.8034 30.9794 27.8333 32.1875 27.8333H62.8125C64.0207 27.8333 65 28.8034 65 30C65 31.1967 64.0207 32.1667 62.8125 32.1667H32.1875C30.9794 32.1667 30 31.1967 30 30ZM30 40.8333C30 39.6367 30.9794 38.6667 32.1875 38.6667H49.6875C50.8957 38.6667 51.875 39.6367 51.875 40.8333C51.875 42.03 50.8957 43 49.6875 43H32.1875C30.9794 43 30 42.03 30 40.8333Z" fill="white"/>
</svg>
