<svg width="36" height="36" viewBox="0 0 36 36" fill="none" xmlns="http://www.w3.org/2000/svg">
<path d="M17.9999 0C13.6129 0 10.0464 3.56651 10.0464 7.95349V18C10.0464 22.387 13.6129 25.9535 17.9999 25.9535C22.3869 25.9535 25.9534 22.387 25.9534 18V7.95349C25.9534 3.56651 22.3869 0 17.9999 0Z" fill="#092948"/>
<path d="M18 35.9997C17.3134 35.9997 16.7441 35.4304 16.7441 34.7439V29.7207C16.7441 29.0341 17.3134 28.4648 18 28.4648C18.6865 28.4648 19.2558 29.0341 19.2558 29.7207V34.7439C19.2558 35.4304 18.6865 35.9997 18 35.9997Z" fill="#092948"/>
<path d="M24.6975 35.9999H11.3022C10.6157 35.9999 10.0464 35.4306 10.0464 34.7441C10.0464 34.0576 10.6157 33.4883 11.3022 33.4883H24.6975C25.3841 33.4883 25.9534 34.0576 25.9534 34.7441C25.9534 35.4306 25.3841 35.9999 24.6975 35.9999Z" fill="#092948"/>
<path d="M17.9997 30.9768C10.8499 30.9768 5.02295 25.1498 5.02295 18.0001C5.02295 17.3136 5.59225 16.7443 6.27876 16.7443C6.96527 16.7443 7.53458 17.3136 7.53458 18.0001C7.53458 23.7768 12.2229 28.4652 17.9997 28.4652C23.7764 28.4652 28.4648 23.7768 28.4648 18.0001C28.4648 17.3136 29.0341 16.7443 29.7206 16.7443C30.4071 16.7443 30.9764 17.3136 30.9764 18.0001C30.9764 25.1498 25.1495 30.9768 17.9997 30.9768Z" fill="#092948"/>
<path d="M29.7207 13.3948C29.0341 13.3948 28.4648 12.8255 28.4648 12.139V5.44136C28.4648 4.75485 29.0341 4.18555 29.7207 4.18555C30.4072 4.18555 30.9765 4.75485 30.9765 5.44136V12.139C30.9765 12.8255 30.4072 13.3948 29.7207 13.3948Z" fill="#092948"/>
<path d="M34.7441 11.7209C34.0576 11.7209 33.4883 11.1516 33.4883 10.4651V7.11623C33.4883 6.42971 34.0576 5.86041 34.7441 5.86041C35.4306 5.86041 35.9999 6.42971 35.9999 7.11623V10.4651C35.9999 11.1516 35.4306 11.7209 34.7441 11.7209Z" fill="#092948"/>
<path d="M6.27925 13.3948C5.59274 13.3948 5.02344 12.8255 5.02344 12.139V5.44136C5.02344 4.75485 5.59274 4.18555 6.27925 4.18555C6.96576 4.18555 7.53507 4.75485 7.53507 5.44136V12.139C7.53507 12.8255 6.96576 13.3948 6.27925 13.3948Z" fill="#092948"/>
<path d="M1.25581 11.7209C0.569302 11.7209 0 11.1516 0 10.4651V7.11623C0 6.42971 0.569302 5.86041 1.25581 5.86041C1.94233 5.86041 2.51163 6.42971 2.51163 7.11623V10.4651C2.51163 11.1516 1.94233 11.7209 1.25581 11.7209Z" fill="#092948"/>
</svg>
