<svg width="52" height="52" viewBox="0 0 52 52" fill="none" xmlns="http://www.w3.org/2000/svg">
<rect width="51.8277" height="51.8277" rx="2.07311" fill="#133E68"/>
<path d="M38.7552 17.0927C31.7863 7.50008 16.7863 10.642 13.9936 21.9749L12.32 18.7496C12.1915 18.505 11.9717 18.3218 11.7088 18.2402C11.446 18.1586 11.1617 18.1853 10.9185 18.3145C10.6752 18.4438 10.493 18.6648 10.4119 18.9292C10.3307 19.1935 10.3573 19.4794 10.4858 19.724L13.7086 25.8672C13.8163 26.0682 13.9868 26.2281 14.1936 26.3222C14.4005 26.4164 14.6324 26.4396 14.8537 26.3883C14.9419 26.3625 15.0284 26.3312 15.1128 26.2945L21.2475 23.064C21.4914 22.9313 21.6729 22.7066 21.7521 22.4394C21.8313 22.1721 21.8017 21.8842 21.6698 21.6389C21.5378 21.3936 21.3144 21.211 21.0487 21.1314C20.7829 21.0518 20.4966 21.0815 20.2527 21.2142L15.7967 23.5798C17.3511 13.1952 30.8226 9.75103 37.0817 18.3224C42.8382 26.0444 37.1283 37.3877 27.5221 37.3043C24.9974 37.3093 22.538 36.4983 20.5065 34.9909C20.3974 34.9048 20.2721 34.8417 20.1382 34.8052C20.0043 34.7687 19.8645 34.7596 19.727 34.7785C19.5896 34.7974 19.4573 34.8438 19.338 34.9151C19.2187 34.9863 19.1149 35.0809 19.0327 35.1933C18.9504 35.3057 18.8915 35.4335 18.8593 35.5692C18.8271 35.7049 18.8223 35.8457 18.8452 35.9833C18.8682 36.1209 18.9183 36.2524 18.9928 36.3702C19.0672 36.4879 19.1644 36.5894 19.2786 36.6687C21.6639 38.4434 24.5549 39.3972 27.5221 39.3886C38.8071 39.4876 45.5169 26.1642 38.7552 17.0927Z" fill="white"/>
</svg>
