<svg width="46" height="34" viewBox="0 0 46 34" fill="none" xmlns="http://www.w3.org/2000/svg">
<path fill-rule="evenodd" clip-rule="evenodd" d="M30.8871 28.5201C30.887 28.2001 30.7598 27.8932 30.5335 27.6669C30.3072 27.4406 30.0003 27.3134 29.6802 27.3133H25.9428C25.6226 27.3133 25.3156 27.4405 25.0892 27.6669C24.8628 27.8933 24.7356 28.2003 24.7356 28.5205C24.7356 28.8407 24.8628 29.1477 25.0892 29.3741C25.3156 29.6005 25.6226 29.7277 25.9428 29.7277H29.6802C29.8388 29.7278 29.9958 29.6966 30.1423 29.6359C30.2888 29.5752 30.4219 29.4862 30.534 29.3741C30.6461 29.2619 30.7349 29.1288 30.7955 28.9823C30.8561 28.8357 30.8872 28.6787 30.8871 28.5201ZM21.139 28.5201C21.1388 28.2001 21.0116 27.8933 20.7853 27.667C20.559 27.4407 20.2522 27.3135 19.9322 27.3133H19.2703V26.652C19.2703 26.3318 19.1431 26.0247 18.9167 25.7983C18.6903 25.5719 18.3833 25.4447 18.0631 25.4447C17.7429 25.4447 17.4358 25.5719 17.2094 25.7983C16.983 26.0247 16.8559 26.3318 16.8559 26.652V27.3131H16.194C15.8738 27.3131 15.5668 27.4403 15.3404 27.6667C15.114 27.8931 14.9868 28.2002 14.9868 28.5203C14.9868 28.8405 15.114 29.1476 15.3404 29.374C15.5668 29.6004 15.8738 29.7275 16.194 29.7275H16.8559V30.3894C16.8559 30.7096 16.983 31.0166 17.2094 31.243C17.4358 31.4694 17.7429 31.5966 18.0631 31.5966C18.3833 31.5966 18.6903 31.4694 18.9167 31.243C19.1431 31.0166 19.2703 30.7096 19.2703 30.3894V29.7275H19.9322C20.0907 29.7275 20.2477 29.6963 20.3942 29.6356C20.5406 29.5749 20.6737 29.486 20.7858 29.3738C20.8979 29.2617 20.9867 29.1285 21.0474 28.982C21.108 28.8355 21.1391 28.6785 21.139 28.52V28.5201ZM45.8734 24.8539C45.8744 26.9749 45.0545 29.014 43.5855 30.544L43.3191 30.8226L43.0294 30.5686C42.0407 29.7018 41.3565 28.2704 40.9413 27.0465C40.3114 25.189 40.0543 23.1555 40.0543 21.1998C40.0543 19.2441 40.3117 17.2106 40.9413 15.3532C41.3565 14.1292 42.0408 12.6985 43.0294 11.8321L43.3191 11.5781L43.5854 11.8566C45.0543 13.3862 45.8743 15.425 45.8734 17.5458V24.8539ZM8.23812 33.0912C7.17326 33.0915 6.1185 32.8846 5.13271 32.4819L4.59979 32.2644L4.9872 31.8386C5.85969 30.8793 6.50309 29.6837 6.97203 28.4815C7.86298 26.1968 8.23463 23.6433 8.23463 21.1996C8.23463 18.7558 7.86343 16.2001 6.97132 13.9164C6.5021 12.7153 5.8596 11.5203 4.9872 10.5615L4.59979 10.1357L5.13271 9.91814C6.11852 9.51552 7.17326 9.30859 8.23812 9.30889H37.636C38.7009 9.30844 39.7557 9.51538 40.7415 9.91814L41.2744 10.1358L40.8869 10.5615C40.0009 11.535 39.35 12.7531 38.879 13.9752C38.0045 16.2441 37.6394 18.7764 37.6394 21.1998C37.6394 23.6231 38.0046 26.1544 38.879 28.4228C39.3503 29.6457 40.0008 30.8643 40.887 31.8388L41.2741 32.2645L40.7415 32.4821C39.7557 32.8849 38.7009 33.0918 37.636 33.0914L8.23812 33.0912ZM2.84442 11.8368L2.55439 11.5797L2.2865 11.8599C0.818796 13.3889 -0.000546369 15.4263 2.81511e-07 17.5458V24.8539C-0.000554441 26.9737 0.818727 29.0115 2.28641 30.5411L2.5543 30.8214L2.84433 30.5641C3.82344 29.695 4.50894 28.2512 4.92341 27.0327C5.55399 25.1788 5.81938 23.1531 5.81938 21.1999C5.81938 19.2467 5.5539 17.2211 4.92341 15.3672C4.50894 14.1487 3.82344 12.705 2.84478 11.8371L2.84442 11.8368ZM4.19105 7.69212C5.28235 7.20562 6.45747 6.93484 7.65162 6.89471L8.3442 6.20679C10.7668 3.7915 14.0442 2.42901 17.4651 2.41498H28.4095C31.8329 2.42421 35.1136 3.78748 37.5354 6.20715L38.2253 6.89471C39.783 7.11201 40.9431 7.38116 41.7058 7.70215L41.6389 7.58882C38.8815 2.91968 33.8377 0 28.4091 0H17.4646C14.7686 0.0010377 12.1207 0.714607 9.7893 2.06842C7.52888 3.38482 5.63738 5.25059 4.29014 7.49277L4.28593 7.49958C4.27501 7.51771 4.26511 7.53643 4.25628 7.55566L4.19105 7.69212Z" fill="#092948"/>
</svg>
