<svg width="280" height="299" viewBox="0 0 280 299" fill="none" xmlns="http://www.w3.org/2000/svg">
<path d="M145.552 245.16C147.979 240.957 146.539 235.583 142.336 233.157C138.134 230.731 132.76 232.17 130.334 236.373L103.974 282.029C101.547 286.231 102.987 291.605 107.19 294.031C111.392 296.458 116.766 295.018 119.192 290.815L145.552 245.16Z" fill="#00B6F1"/>
<path d="M92.8345 245.16C95.2609 240.957 93.8211 235.583 89.6186 233.157C85.4161 230.731 80.0423 232.17 77.6159 236.373L51.2558 282.029C48.8294 286.231 50.2693 291.605 54.4718 294.031C58.6742 296.458 64.048 295.018 66.4744 290.815L92.8345 245.16Z" fill="#00B6F1"/>
<path d="M34.2564 243.589C36.6827 239.387 35.2429 234.013 31.0404 231.587C26.8379 229.16 21.4642 230.6 19.0378 234.803L4.3933 260.167C1.96692 264.369 3.40674 269.743 7.60923 272.17C11.8117 274.596 17.1855 273.156 19.6119 268.954L34.2564 243.589Z" fill="#00B6F1"/>
<path fill-rule="evenodd" clip-rule="evenodd" d="M252.379 162.591C253.297 160.507 251.785 158.161 249.525 158.161H206.511C205.219 158.161 204.06 158.964 203.597 160.18L174.771 235.79C173.984 237.853 175.494 240.071 177.686 240.071L199.517 240.071C201.788 240.071 203.299 242.439 202.36 244.525L179.947 294.27C178.52 297.436 182.484 300.257 184.961 297.837L264.398 220.282C266.416 218.313 265.034 214.868 262.228 214.868H234.153C231.894 214.868 230.382 212.521 231.3 210.438L252.379 162.591Z" fill="url(#paint0_linear_41_1149)"/>
<path d="M239.833 140.587C239.833 140.587 179.873 140.587 162.845 140.587C124.023 140.587 92.5513 109.116 92.5513 70.2937C92.5513 31.4717 124.023 0 162.845 0C198.488 0 227.934 26.5277 232.518 60.9163C234.89 60.4799 237.335 60.2517 239.833 60.2517C262.017 60.2517 280.001 78.2355 280.001 100.42C280.001 122.604 262.017 140.587 239.833 140.587Z" fill="url(#paint1_linear_41_1149)"/>
<path d="M218.912 205.023C218.912 205.023 136.466 205.023 113.053 205.023C59.6723 205.023 16.3989 160.439 16.3989 105.441C16.3989 50.4425 59.6723 5.85779 113.053 5.85779C162.061 5.85779 202.55 43.4386 208.854 92.1557C212.115 91.5377 215.477 91.2146 218.912 91.2146C249.415 91.2146 274.142 116.691 274.142 148.119C274.142 179.546 249.415 205.023 218.912 205.023Z" fill="black" fill-opacity="0.15"/>
<path d="M213.052 199.166C213.052 199.166 130.606 199.166 107.193 199.166C53.8129 199.166 10.5396 154.581 10.5396 99.5828C10.5396 44.5847 53.8129 0 107.193 0C156.202 0 196.691 37.5808 202.994 86.2979C206.256 85.6796 209.617 85.3568 213.052 85.3568C243.555 85.3568 268.283 110.834 268.283 142.261C268.283 173.689 243.555 199.166 213.052 199.166Z" fill="url(#paint2_linear_41_1149)"/>
<defs>
<linearGradient id="paint0_linear_41_1149" x1="226.226" y1="158.161" x2="226.226" y2="309.38" gradientUnits="userSpaceOnUse">
<stop stop-color="#FFB545"/>
<stop offset="1" stop-color="#FFE39B"/>
</linearGradient>
<linearGradient id="paint1_linear_41_1149" x1="92.5513" y1="0" x2="280.42" y2="142.049" gradientUnits="userSpaceOnUse">
<stop stop-color="#6A869C"/>
<stop offset="1" stop-color="#BDD2E2"/>
</linearGradient>
<linearGradient id="paint2_linear_41_1149" x1="10.5396" y1="0" x2="270.943" y2="195.624" gradientUnits="userSpaceOnUse">
<stop stop-color="#DFDFDF"/>
<stop offset="1" stop-color="white"/>
</linearGradient>
</defs>
</svg>
