<svg width="60" height="60" viewBox="0 0 60 60" fill="none" xmlns="http://www.w3.org/2000/svg">
<rect x="1" y="1" width="58" height="58" rx="4" stroke="#133E68" stroke-opacity="0.3" stroke-width="2"/>
<path d="M16.8258 40.7188C18.2954 44.454 19.5008 46.8548 19.7164 47.1649C20.0719 47.6751 20.8047 47.9852 21.3899 47.8602C21.8788 47.7471 22.3542 47.5819 22.8078 47.3673C23.2638 47.1578 23.6967 46.9012 24.0993 46.6016C24.5727 46.2368 24.8196 45.4969 24.6813 44.9173C24.6032 44.5602 23.593 42.1946 22.186 38.6165C20.7789 35.0384 19.9157 32.6149 19.7297 32.3009C19.436 31.7821 18.7532 31.4079 18.1579 31.4618C17.6589 31.5164 17.1669 31.6227 16.6899 31.779C16.2105 31.9301 15.7487 32.1323 15.3125 32.3821C14.7985 32.6884 14.4727 33.4142 14.5586 34.0298C14.6133 34.4024 15.3625 36.9813 16.8258 40.7188Z" fill="#595E60"/>
<path d="M45.4422 34.0298C45.5281 33.4142 45.2023 32.6884 44.6882 32.3821C44.2528 32.1324 43.7918 31.9302 43.3132 31.779C42.8362 31.6227 42.3443 31.5164 41.8453 31.4618C41.25 31.4079 40.5672 31.7821 40.2734 32.3009C40.0875 32.6134 39.2195 35.0352 37.8172 38.6165C36.4148 42.1977 35.3992 44.5602 35.3219 44.9188C35.1844 45.4985 35.4304 46.2384 35.9039 46.6032C36.3065 46.9027 36.7393 47.1593 37.1953 47.3688C37.6489 47.5834 38.1243 47.7487 38.6133 47.8618C39.1984 47.9868 39.9312 47.6766 40.2867 47.1665C40.4992 46.854 41.7047 44.4555 43.1773 40.7204C44.65 36.9852 45.3906 34.4024 45.4422 34.0298Z" fill="#595E60"/>
<path d="M49.2188 33.6923V31.3055C49.4551 31.1784 49.6526 30.9896 49.7901 30.7592C49.9277 30.5287 50.0002 30.2653 50 29.997C49.9994 26.0418 48.8261 22.1756 46.6284 18.8872C44.4308 15.5987 41.3074 13.0357 37.6533 11.5222C33.9991 10.0087 29.9783 9.61268 26.0991 10.3841C22.2198 11.1556 18.6565 13.0599 15.8594 15.8564C13.9965 17.709 12.5194 19.9127 11.5137 22.3399C10.5079 24.7671 9.99348 27.3696 10.0001 29.997C10.0001 30.2651 10.0728 30.5282 10.2103 30.7583C10.3479 30.9884 10.5452 31.177 10.7813 31.304V33.6923C10.4682 33.9185 10.2325 34.236 10.1067 34.6013C9.98083 34.9665 9.97087 35.3618 10.0782 35.7329C11.3933 40.2966 13.1324 44.7274 15.2727 48.9672C15.3834 49.1876 15.5365 49.3839 15.7232 49.545C15.9099 49.7061 16.1266 49.8287 16.3607 49.906C16.5949 49.9832 16.842 50.0135 17.0879 49.9951C17.3338 49.9767 17.5737 49.91 17.7938 49.7988C18.0139 49.6876 18.2098 49.534 18.3705 49.347C18.5311 49.1599 18.6533 48.943 18.73 48.7086C18.8067 48.4743 18.8365 48.2271 18.8175 47.9812C18.7986 47.7354 18.7313 47.4957 18.6196 47.2758C16.5852 43.2463 14.9321 39.0352 13.6821 34.6977C13.5839 34.3584 13.392 34.0537 13.1282 33.8188C12.8645 33.5838 12.5398 33.4281 12.1915 33.3696V31.3055C12.4271 31.1779 12.6238 30.9889 12.7606 30.7585C12.8975 30.5281 12.9694 30.2649 12.9688 29.997C12.9685 26.6282 13.9672 23.3349 15.8387 20.5338C17.7102 17.7327 20.3704 15.5495 23.4827 14.2604C26.5951 12.9712 30.0199 12.6341 33.3239 13.2916C36.6279 13.949 39.6628 15.5716 42.0445 17.954C43.6305 19.5321 44.8878 21.409 45.7438 23.4761C46.5997 25.5433 47.0373 27.7596 47.0313 29.997C47.0313 30.2651 47.104 30.5282 47.2415 30.7583C47.3791 30.9884 47.5764 31.177 47.8125 31.304V33.3641C47.4642 33.4226 47.1394 33.5783 46.8757 33.8133C46.612 34.0483 46.42 34.353 46.3219 34.6923C45.0718 39.0297 43.4188 43.2408 41.3844 47.2704C41.1601 47.7143 41.1213 48.2291 41.2766 48.7016C41.4319 49.1741 41.7686 49.5656 42.2125 49.7899C42.6564 50.0142 43.1713 50.0529 43.6438 49.8976C44.1163 49.7423 44.5077 49.4057 44.732 48.9618C46.8717 44.7217 48.6105 40.291 49.9258 35.7274C50.0315 35.3567 50.0203 34.9623 49.8938 34.5982C49.7672 34.234 49.5315 33.9177 49.2188 33.6923Z" fill="#595E60"/>
</svg>
