<svg width="227" height="87" viewBox="0 0 227 87" fill="none" xmlns="http://www.w3.org/2000/svg">
<path d="M25.3964 10.0697C25.8268 8.26968 27.4359 7 29.2867 7H221.931C224.516 7 226.422 9.41581 225.821 11.9303L208.604 83.9303C208.173 85.7303 206.564 87 204.713 87H12.0693C9.48393 87 7.57769 84.5842 8.17898 82.0697L25.3964 10.0697Z" fill="#85BFD6"/>
<path d="M18.3964 3.06971C18.8268 1.26968 20.4359 0 22.2867 0H214.931C217.516 0 219.422 2.41581 218.821 4.93029L201.604 76.9303C201.173 78.7303 199.564 80 197.713 80H5.0693C2.48393 80 0.577694 77.5842 1.17898 75.0697L18.3964 3.06971Z" fill="#133E68"/>
<path d="M41.338 55V25.3H50.59C52.522 25.3 54.22 25.636 55.684 26.308C57.16 26.98 58.312 27.964 59.14 29.26C59.968 30.556 60.382 32.158 60.382 34.066C60.382 35.95 59.968 37.576 59.14 38.944C58.312 40.3 57.16 41.35 55.684 42.094C54.22 42.826 52.522 43.192 50.59 43.192H46.054V55H41.338ZM46.054 39.376H49.204C50.392 39.376 51.454 39.184 52.39 38.8C53.338 38.416 54.088 37.846 54.64 37.09C55.192 36.322 55.468 35.356 55.468 34.192C55.468 33.028 55.192 32.068 54.64 31.312C54.088 30.556 53.338 29.998 52.39 29.638C51.454 29.266 50.392 29.08 49.204 29.08H46.054V39.376ZM66.5099 55V25.3H71.2259V50.86H82.5659V55H66.5099ZM85.186 55L97.012 25.3H101.386L113.23 55H108.154L105.238 47.26H93.178L90.244 55H85.186ZM94.78 43.12H103.636L99.19 31.636L94.78 43.12ZM122.112 55V41.896L111.528 25.3H117.216L124.452 37.054L131.706 25.3H137.394L126.81 41.896V55H122.112Z" fill="white"/>
<path d="M183 40L159 57.3205V22.6795L183 40Z" fill="white"/>
<path d="M162.5 59.3428V26.6572L185.146 43L162.5 59.3428Z" stroke="white"/>
</svg>
