<svg width="52" height="52" viewBox="0 0 52 52" fill="none" xmlns="http://www.w3.org/2000/svg">
<path d="M29.4721 12.8062L30.7448 11.5124C32.2491 9.98326 34.867 9.98326 36.3712 11.5124L37.3981 12.5563C38.1502 13.3208 38.5696 14.3353 38.5696 15.4086C38.5696 16.4819 38.1502 17.5111 37.3981 18.261L36.1253 19.5548L29.4721 12.7915V12.8062ZM27.9389 14.3647L14.7626 27.7591C14.3432 28.1854 14.0829 28.7441 14.0395 29.347L13.6489 33.6549C13.6056 34.1989 13.7936 34.7282 14.1696 35.1252C14.5168 35.4781 14.9651 35.6692 15.4424 35.6692H15.6015L19.8393 35.2722C20.4323 35.2134 20.982 34.9488 21.4014 34.5224L34.5777 21.1281L27.9245 14.3647H27.9389ZM41.4623 40.3594C41.4623 39.7566 40.9706 39.2567 40.3776 39.2567H11.4505C10.8575 39.2567 10.3657 39.7566 10.3657 40.3594C10.3657 40.9622 10.8575 41.4621 11.4505 41.4621H40.3776C40.9706 41.4621 41.4623 40.9622 41.4623 40.3594Z" fill="#595E60"/>
<rect x="1.03655" y="1.03655" width="49.7546" height="49.7546" rx="1.03655" stroke="#595E60" stroke-opacity="0.3" stroke-width="2.07311"/>
</svg>
