<svg width="150" height="122" viewBox="0 0 150 122" fill="none" xmlns="http://www.w3.org/2000/svg">
<circle cx="10" cy="140" r="130" fill="#092948"/>
<circle cx="20" cy="130" r="129" stroke="#85BFD6" stroke-width="2"/>
<path d="M69.4474 74.9474H54.0526V59.5526C54.0526 57.5936 52.459 56 50.5 56C48.541 56 46.9474 57.5936 46.9474 59.5526V74.9474H31.5526C29.5936 74.9474 28 76.541 28 78.5C28 80.459 29.5936 82.0526 31.5526 82.0526H46.9474V97.4474C46.9474 99.4064 48.541 101 50.5 101C52.459 101 54.0526 99.4064 54.0526 97.4474V82.0526H69.4474C71.4064 82.0526 73 80.459 73 78.5C73 76.541 71.4064 74.9474 69.4474 74.9474Z" fill="white"/>
</svg>
