<svg width="37" height="37" viewBox="0 0 37 37" fill="none" xmlns="http://www.w3.org/2000/svg">
<path d="M14.9816 33.1007C14.0664 33.1007 13.3217 32.3602 13.3217 31.4499C13.3217 30.536 12.5766 29.7949 11.6575 29.7949C10.7385 29.7949 9.99336 30.536 9.99336 31.4499C9.99336 34.1854 12.231 36.4108 14.9816 36.4108C17.7321 36.4108 19.9699 34.1854 19.9699 31.4499V24.2738H31.6191C32.5381 24.2738 33.2832 23.5328 33.2832 22.6188C33.2832 14.4055 26.5643 7.72345 18.3057 7.72345C10.0471 7.72345 3.32812 14.4055 3.32812 22.6188C3.32812 23.5328 4.07323 24.2738 4.9923 24.2738H16.6415V31.4499C16.6415 32.3602 15.8968 33.1007 14.9816 33.1007Z" fill="white"/>
<path d="M1.66438 5.51609C2.58357 5.51609 3.32877 4.77517 3.32877 3.86126V1.65483C3.32877 0.740921 2.58357 0 1.66438 0C0.745201 0 0 0.740921 0 1.65483V3.86126C0 4.77517 0.745201 5.51609 1.66438 5.51609Z" fill="white"/>
<path d="M36.612 1.65483C36.612 0.740921 35.8668 0 34.9476 0C34.0284 0 33.2832 0.740921 33.2832 1.65483V3.86126C33.2832 4.77517 34.0284 5.51609 34.9476 5.51609C35.8668 5.51609 36.612 4.77517 36.612 3.86126V1.65483Z" fill="white"/>
<path d="M1.66438 14.3421C2.58357 14.3421 3.32877 13.6012 3.32877 12.6872V10.4808C3.32877 9.56691 2.58357 8.82599 1.66438 8.82599C0.745201 8.82599 0 9.56691 0 10.4808V12.6872C0 13.6012 0.745201 14.3421 1.66438 14.3421Z" fill="white"/>
<path d="M34.9476 8.82599C34.0284 8.82599 33.2832 9.56691 33.2832 10.4808V12.6872C33.2832 13.6012 34.0284 14.3421 34.9476 14.3421C35.8668 14.3421 36.612 13.6012 36.612 12.6872V10.4808C36.612 9.56691 35.8668 8.82599 34.9476 8.82599Z" fill="white"/>
<path d="M19.9699 3.86126V1.65483C19.9699 0.740921 19.2247 0 18.3055 0C17.3863 0 16.6411 0.740921 16.6411 1.65483V3.86126C16.6411 4.77517 17.3863 5.51609 18.3055 5.51609C19.2247 5.51609 19.9699 4.77517 19.9699 3.86126Z" fill="white"/>
<path d="M11.6496 6.06713V3.8607C11.6496 2.94679 10.9044 2.20587 9.98519 2.20587C9.066 2.20587 8.3208 2.94679 8.3208 3.8607V6.06713C8.3208 6.98104 9.066 7.72196 9.98519 7.72196C10.9044 7.72196 11.6496 6.98104 11.6496 6.06713Z" fill="white"/>
<path d="M28.2907 6.06713V3.8607C28.2907 2.94679 27.5455 2.20587 26.6263 2.20587C25.7071 2.20587 24.9619 2.94679 24.9619 3.8607V6.06713C24.9619 6.98104 25.7071 7.72196 26.6263 7.72196C27.5455 7.72196 28.2907 6.98104 28.2907 6.06713Z" fill="white"/>
</svg>
