<svg width="280" height="70" viewBox="0 0 280 70" fill="none" xmlns="http://www.w3.org/2000/svg">
<rect x="1.5" y="1.5" width="277" height="67" rx="3.5" fill="white" stroke="#092948" stroke-width="3"/>
<path d="M72.625 23.25C72.6257 21.9436 72.9431 20.6569 73.55 19.5H61.1999C60.6167 19.5037 60.0522 19.7065 59.6001 20.075L52.9 25.6624C52.6168 25.8966 52.3892 26.1908 52.2336 26.5237C52.0779 26.8567 51.9981 27.22 52 27.5875V49.5C52.002 50.1625 52.266 50.7972 52.7344 51.2656C53.2028 51.7341 53.8376 51.9981 54.5 52H78.25C78.9125 51.9981 79.5473 51.7341 80.0157 51.2656C80.4841 50.7972 80.7481 50.1625 80.75 49.5V31.375C78.5964 31.3709 76.5322 30.5135 75.0094 28.9907C73.4865 27.4678 72.6292 25.4036 72.625 23.25ZM58.875 27H68.875C69.2066 27 69.5245 27.1317 69.7589 27.3661C69.9933 27.6005 70.125 27.9185 70.125 28.25C70.125 28.5815 69.9933 28.8995 69.7589 29.1339C69.5245 29.3683 69.2066 29.5 68.875 29.5H58.875C58.5435 29.5 58.2256 29.3683 57.9911 29.1339C57.7567 28.8995 57.625 28.5815 57.625 28.25C57.625 27.9185 57.7567 27.6005 57.9911 27.3661C58.2256 27.1317 58.5435 27 58.875 27ZM72 47H68.5125C68.2664 46.9999 68.0226 46.9513 67.7953 46.8569C67.5679 46.7625 67.3614 46.6243 67.1875 46.4501L65.9503 45.2126L64.8125 46.9124C64.6413 47.17 64.409 47.3812 64.1364 47.5274C63.8638 47.6735 63.5593 47.75 63.25 47.75C62.9407 47.75 62.6362 47.6735 62.3636 47.5274C62.091 47.3812 61.8588 47.17 61.6875 46.9124L60.5501 45.2126L59.1375 46.6375C58.9022 46.8729 58.5829 47.0051 58.25 47.0051C57.9172 47.0051 57.5979 46.8729 57.3625 46.6375C57.1272 46.4021 56.9949 46.0829 56.9949 45.75C56.9949 45.4171 57.1272 45.0979 57.3625 44.8625L59.3249 42.9C59.5236 42.707 59.7616 42.5591 60.0226 42.4663C60.2837 42.3736 60.5617 42.3382 60.8376 42.3625C61.1129 42.3919 61.3786 42.4809 61.616 42.6234C61.8534 42.7658 62.0569 42.9583 62.2124 43.1874L63.25 44.75L64.2876 43.1875C64.4431 42.9584 64.6466 42.7659 64.8841 42.6234C65.1215 42.4809 65.3871 42.3919 65.6624 42.3625C65.9384 42.3381 66.2164 42.3735 66.4774 42.4663C66.7385 42.559 66.9765 42.7069 67.1752 42.8999L68.7627 44.4999H72C72.3316 44.4999 72.6495 44.6316 72.8839 44.866C73.1183 45.1005 73.25 45.4184 73.25 45.7499C73.25 46.0814 73.1183 46.3994 72.8839 46.6338C72.6495 46.8682 72.3316 47 72 47ZM73.875 39.5H58.875C58.5435 39.5 58.2256 39.3683 57.9911 39.1339C57.7567 38.8995 57.625 38.5815 57.625 38.25C57.625 37.9185 57.7567 37.6005 57.9911 37.3661C58.2256 37.1317 58.5435 37 58.875 37H73.875C74.2066 37 74.5245 37.1317 74.7589 37.3661C74.9933 37.6005 75.125 37.9185 75.125 38.25C75.125 38.5815 74.9933 38.8995 74.7589 39.1339C74.5245 39.3683 74.2066 39.5 73.875 39.5ZM73.875 34.5H58.875C58.5435 34.5 58.2256 34.3683 57.9911 34.1339C57.7567 33.8995 57.625 33.5815 57.625 33.25C57.625 32.9185 57.7567 32.6005 57.9911 32.3661C58.2256 32.1317 58.5435 32 58.875 32H73.875C74.2066 32 74.5245 32.1317 74.7589 32.3661C74.9933 32.6005 75.125 32.9185 75.125 33.25C75.125 33.5815 74.9933 33.8995 74.7589 34.1339C74.5245 34.3683 74.2066 34.5 73.875 34.5Z" fill="#092948"/>
<path d="M80.75 17C79.5139 17 78.3055 17.3666 77.2777 18.0533C76.2499 18.7401 75.4488 19.7162 74.9758 20.8582C74.5027 22.0003 74.3789 23.2569 74.6201 24.4693C74.8613 25.6817 75.4565 26.7953 76.3306 27.6694C77.2047 28.5435 78.3183 29.1388 79.5307 29.3799C80.7431 29.6211 81.9997 29.4973 83.1418 29.0242C84.2838 28.5512 85.2599 27.7501 85.9467 26.7223C86.6334 25.6945 87 24.4861 87 23.25C86.9982 21.593 86.3391 20.0043 85.1674 18.8326C83.9957 17.6609 82.407 17.0018 80.75 17ZM84.2498 21.5001L80.4998 26.5001C80.3923 26.6434 80.2554 26.7619 80.0982 26.8476C79.9409 26.9334 79.7671 26.9843 79.5885 26.9969C79.5592 26.9987 79.5293 27 79.5 27C79.3358 27.0001 79.1733 26.9677 79.0216 26.9049C78.87 26.8421 78.7322 26.7499 78.6163 26.6337L76.7413 24.7587C76.5104 24.5236 76.3817 24.2069 76.3832 23.8773C76.3846 23.5478 76.5162 23.2322 76.7492 22.9992C76.9822 22.7662 77.2978 22.6346 77.6273 22.6332C77.9569 22.6317 78.2736 22.7604 78.5088 22.9913L79.3645 23.847L82.2503 19.9999C82.3488 19.8686 82.4722 19.758 82.6134 19.6744C82.7547 19.5908 82.911 19.5358 83.0735 19.5127C83.236 19.4895 83.4014 19.4985 83.5604 19.5393C83.7194 19.5801 83.8688 19.6517 84.0001 19.7503C84.1314 19.8488 84.242 19.9722 84.3256 20.1134C84.4092 20.2547 84.4642 20.411 84.4874 20.5735C84.5105 20.736 84.5015 20.9014 84.4607 21.0604C84.4199 21.2194 84.3483 21.3688 84.2498 21.5001Z" fill="#092948"/>
<path d="M125.952 46V25.448H119.26V22.9H135.5V25.448H128.794V46H125.952ZM144.202 46.448C142.7 46.448 141.351 46.1167 140.156 45.454C138.962 44.7913 138.019 43.8907 137.328 42.752C136.638 41.604 136.292 40.3113 136.292 38.874C136.292 37.81 136.488 36.816 136.88 35.892C137.272 34.968 137.818 34.156 138.518 33.456C139.218 32.7467 140.03 32.196 140.954 31.804C141.878 31.412 142.868 31.216 143.922 31.216C145.416 31.216 146.722 31.524 147.842 32.14C148.972 32.756 149.849 33.6147 150.474 34.716C151.109 35.8173 151.426 37.096 151.426 38.552C151.426 38.6733 151.422 38.7713 151.412 38.846C151.403 38.9207 151.384 39.0187 151.356 39.14H139.036C139.036 40.1387 139.26 41.0207 139.708 41.786C140.166 42.5513 140.791 43.1533 141.584 43.592C142.387 44.0213 143.306 44.236 144.342 44.236C145.322 44.236 146.2 44.0353 146.974 43.634C147.749 43.2327 148.421 42.6353 148.99 41.842L150.978 42.878C150.297 44.0073 149.359 44.8847 148.164 45.51C146.979 46.1353 145.658 46.448 144.202 46.448ZM139.176 37.138H148.696C148.566 36.4007 148.276 35.7567 147.828 35.206C147.39 34.646 146.834 34.212 146.162 33.904C145.5 33.5867 144.767 33.428 143.964 33.428C143.124 33.428 142.364 33.582 141.682 33.89C141.01 34.1887 140.455 34.618 140.016 35.178C139.587 35.7287 139.307 36.382 139.176 37.138ZM155.897 46V31.664H158.613V33.764C159.089 32.9333 159.696 32.3033 160.433 31.874C161.171 31.4353 162.006 31.216 162.939 31.216C163.387 31.216 163.84 31.272 164.297 31.384C164.764 31.4867 165.165 31.6267 165.501 31.804L164.381 34.1C164.092 33.9413 163.756 33.8153 163.373 33.722C162.991 33.6287 162.631 33.582 162.295 33.582C161.67 33.582 161.073 33.7453 160.503 34.072C159.943 34.3893 159.486 34.8047 159.131 35.318C158.786 35.8313 158.613 36.382 158.613 36.97V46H155.897ZM168.858 46V31.664H171.574V33.512C172.181 32.7467 172.867 32.1727 173.632 31.79C174.398 31.4073 175.247 31.216 176.18 31.216C177.338 31.216 178.355 31.482 179.232 32.014C180.11 32.5367 180.721 33.2507 181.066 34.156C181.664 33.2413 182.382 32.5227 183.222 32C184.062 31.4773 185.047 31.216 186.176 31.216C187.203 31.216 188.113 31.426 188.906 31.846C189.7 32.266 190.325 32.8727 190.782 33.666C191.24 34.4593 191.468 35.4207 191.468 36.55V46H188.752V37.306C188.752 36.1113 188.44 35.164 187.814 34.464C187.189 33.764 186.358 33.414 185.322 33.414C184.604 33.414 183.955 33.5727 183.376 33.89C182.807 34.198 182.354 34.604 182.018 35.108C181.692 35.6027 181.528 36.1253 181.528 36.676V46H178.812V37.124C178.812 35.9947 178.504 35.094 177.888 34.422C177.272 33.75 176.451 33.414 175.424 33.414C174.706 33.414 174.052 33.568 173.464 33.876C172.886 34.1747 172.424 34.5667 172.078 35.052C171.742 35.5373 171.574 36.046 171.574 36.578V46H168.858ZM203.898 46.448C202.376 46.448 201.004 46.126 199.782 45.482C198.568 44.838 197.602 43.942 196.884 42.794C196.174 41.646 195.82 40.3253 195.82 38.832C195.82 37.3293 196.174 36.0087 196.884 34.87C197.602 33.722 198.568 32.826 199.782 32.182C201.004 31.538 202.376 31.216 203.898 31.216C205.419 31.216 206.786 31.538 208 32.182C209.222 32.826 210.188 33.722 210.898 34.87C211.616 36.0087 211.976 37.3293 211.976 38.832C211.976 40.3253 211.616 41.646 210.898 42.794C210.188 43.942 209.222 44.838 208 45.482C206.786 46.126 205.419 46.448 203.898 46.448ZM203.912 44.082C204.91 44.082 205.806 43.858 206.6 43.41C207.393 42.962 208.018 42.3413 208.476 41.548C208.933 40.7547 209.162 39.8493 209.162 38.832C209.162 37.8053 208.933 36.9 208.476 36.116C208.018 35.3227 207.393 34.702 206.6 34.254C205.806 33.806 204.91 33.582 203.912 33.582C202.904 33.582 202.003 33.806 201.21 34.254C200.416 34.702 199.791 35.3227 199.334 36.116C198.876 36.9 198.648 37.8053 198.648 38.832C198.648 39.8493 198.876 40.7547 199.334 41.548C199.791 42.3413 200.416 42.962 201.21 43.41C202.003 43.858 202.904 44.082 203.912 44.082ZM220.286 46.448C219.091 46.448 218.032 46.1913 217.108 45.678C216.193 45.1553 215.465 44.4133 214.924 43.452L216.226 41.772C216.72 42.6027 217.318 43.2467 218.018 43.704C218.718 44.1613 219.469 44.39 220.272 44.39C220.794 44.39 221.266 44.2873 221.686 44.082C222.115 43.8767 222.456 43.5827 222.708 43.2C222.96 42.808 223.086 42.346 223.086 41.814C223.086 41.3007 222.955 40.8993 222.694 40.61C222.442 40.3113 222.064 40.05 221.56 39.826C221.065 39.602 220.444 39.3453 219.698 39.056C219.1 38.8133 218.522 38.538 217.962 38.23C217.402 37.922 216.94 37.5347 216.576 37.068C216.221 36.592 216.044 35.99 216.044 35.262C216.044 34.478 216.254 33.7827 216.674 33.176C217.103 32.5693 217.691 32.0933 218.438 31.748C219.184 31.4027 220.034 31.23 220.986 31.23C221.76 31.23 222.512 31.384 223.24 31.692C223.968 32 224.658 32.4433 225.312 33.022L224.22 34.674C223.249 33.6473 222.176 33.134 221 33.134C220.29 33.134 219.716 33.316 219.278 33.68C218.839 34.0347 218.62 34.4967 218.62 35.066C218.62 35.5047 218.778 35.8733 219.096 36.172C219.413 36.4613 219.819 36.7133 220.314 36.928C220.808 37.1427 221.322 37.3527 221.854 37.558C222.656 37.8567 223.356 38.1647 223.954 38.482C224.56 38.7993 225.032 39.21 225.368 39.714C225.704 40.2087 225.872 40.876 225.872 41.716C225.872 42.696 225.638 43.5407 225.172 44.25C224.714 44.9593 224.066 45.5053 223.226 45.888C222.386 46.2613 221.406 46.448 220.286 46.448Z" fill="#595E60"/>
<rect x="101.637" y="21" width="2" height="28" fill="#6E6464"/>
</svg>
