<svg width="280" height="70" viewBox="0 0 280 70" fill="none" xmlns="http://www.w3.org/2000/svg">
<rect x="1.5" y="1.5" width="277" height="67" rx="3.5" fill="white" stroke="#092948" stroke-width="3"/>
<path d="M118.162 46L111.358 22.9H114.522L119.884 42.206L126.1 22.9H128.27L134.5 42.206L139.848 22.9H143.012L136.208 46H133.03L127.192 28.444L121.354 46H118.162ZM152.034 46.448C150.532 46.448 149.183 46.1167 147.988 45.454C146.794 44.7913 145.851 43.8907 145.16 42.752C144.47 41.604 144.124 40.3113 144.124 38.874C144.124 37.81 144.32 36.816 144.712 35.892C145.104 34.968 145.65 34.156 146.35 33.456C147.05 32.7467 147.862 32.196 148.786 31.804C149.71 31.412 150.7 31.216 151.754 31.216C153.248 31.216 154.554 31.524 155.674 32.14C156.804 32.756 157.681 33.6147 158.306 34.716C158.941 35.8173 159.258 37.096 159.258 38.552C159.258 38.6733 159.254 38.7713 159.244 38.846C159.235 38.9207 159.216 39.0187 159.188 39.14H146.868C146.868 40.1387 147.092 41.0207 147.54 41.786C147.998 42.5513 148.623 43.1533 149.416 43.592C150.219 44.0213 151.138 44.236 152.174 44.236C153.154 44.236 154.032 44.0353 154.806 43.634C155.581 43.2327 156.253 42.6353 156.822 41.842L158.81 42.878C158.129 44.0073 157.191 44.8847 155.996 45.51C154.811 46.1353 153.49 46.448 152.034 46.448ZM147.008 37.138H156.528C156.398 36.4007 156.108 35.7567 155.66 35.206C155.222 34.646 154.666 34.212 153.994 33.904C153.332 33.5867 152.599 33.428 151.796 33.428C150.956 33.428 150.196 33.582 149.514 33.89C148.842 34.1887 148.287 34.618 147.848 35.178C147.419 35.7287 147.139 36.382 147.008 37.138ZM172.17 46.448C170.985 46.448 169.897 46.1727 168.908 45.622C167.919 45.062 167.116 44.292 166.5 43.312V46H163.784V21.92H166.5V34.282C167.079 33.3207 167.858 32.5693 168.838 32.028C169.827 31.4867 170.919 31.216 172.114 31.216C173.486 31.216 174.713 31.5473 175.796 32.21C176.879 32.8727 177.728 33.778 178.344 34.926C178.969 36.0647 179.282 37.3667 179.282 38.832C179.282 40.3067 178.965 41.618 178.33 42.766C177.705 43.914 176.855 44.8147 175.782 45.468C174.709 46.1213 173.505 46.448 172.17 46.448ZM171.442 44.11C172.422 44.11 173.285 43.886 174.032 43.438C174.788 42.9807 175.381 42.3553 175.81 41.562C176.239 40.7687 176.454 39.8633 176.454 38.846C176.454 37.8193 176.235 36.9093 175.796 36.116C175.367 35.3133 174.774 34.688 174.018 34.24C173.271 33.7827 172.413 33.554 171.442 33.554C170.471 33.554 169.603 33.7827 168.838 34.24C168.082 34.688 167.485 35.3133 167.046 36.116C166.617 36.9093 166.402 37.8193 166.402 38.846C166.402 39.8633 166.617 40.7687 167.046 41.562C167.475 42.3553 168.068 42.9807 168.824 43.438C169.589 43.886 170.462 44.11 171.442 44.11ZM187.649 46.448C186.454 46.448 185.395 46.1913 184.471 45.678C183.556 45.1553 182.828 44.4133 182.287 43.452L183.589 41.772C184.084 42.6027 184.681 43.2467 185.381 43.704C186.081 44.1613 186.832 44.39 187.635 44.39C188.158 44.39 188.629 44.2873 189.049 44.082C189.478 43.8767 189.819 43.5827 190.071 43.2C190.323 42.808 190.449 42.346 190.449 41.814C190.449 41.3007 190.318 40.8993 190.057 40.61C189.805 40.3113 189.427 40.05 188.923 39.826C188.428 39.602 187.808 39.3453 187.061 39.056C186.464 38.8133 185.885 38.538 185.325 38.23C184.765 37.922 184.303 37.5347 183.939 37.068C183.584 36.592 183.407 35.99 183.407 35.262C183.407 34.478 183.617 33.7827 184.037 33.176C184.466 32.5693 185.054 32.0933 185.801 31.748C186.548 31.4027 187.397 31.23 188.349 31.23C189.124 31.23 189.875 31.384 190.603 31.692C191.331 32 192.022 32.4433 192.675 33.022L191.583 34.674C190.612 33.6473 189.539 33.134 188.363 33.134C187.654 33.134 187.08 33.316 186.641 33.68C186.202 34.0347 185.983 34.4967 185.983 35.066C185.983 35.5047 186.142 35.8733 186.459 36.172C186.776 36.4613 187.182 36.7133 187.677 36.928C188.172 37.1427 188.685 37.3527 189.217 37.558C190.02 37.8567 190.72 38.1647 191.317 38.482C191.924 38.7993 192.395 39.21 192.731 39.714C193.067 40.2087 193.235 40.876 193.235 41.716C193.235 42.696 193.002 43.5407 192.535 44.25C192.078 44.9593 191.429 45.5053 190.589 45.888C189.749 46.2613 188.769 46.448 187.649 46.448ZM197.84 46V31.664H200.556V46H197.84ZM199.198 28.766C198.89 28.766 198.606 28.6913 198.344 28.542C198.092 28.3833 197.887 28.1733 197.728 27.912C197.579 27.6507 197.504 27.366 197.504 27.058C197.504 26.7407 197.579 26.456 197.728 26.204C197.887 25.952 198.092 25.7513 198.344 25.602C198.606 25.4433 198.89 25.364 199.198 25.364C199.516 25.364 199.8 25.4433 200.052 25.602C200.304 25.7513 200.505 25.952 200.654 26.204C200.813 26.456 200.892 26.7407 200.892 27.058C200.892 27.366 200.813 27.6507 200.654 27.912C200.505 28.1733 200.304 28.3833 200.052 28.542C199.8 28.6913 199.516 28.766 199.198 28.766ZM210.28 46.448C209.104 46.448 208.189 46.0607 207.536 45.286C206.882 44.502 206.556 43.4053 206.556 41.996V33.722H204.96V31.664H206.556V26.302H209.272V31.664H212.716V33.722H209.272V41.828C209.272 42.5373 209.412 43.0833 209.692 43.466C209.972 43.8487 210.373 44.04 210.896 44.04C211.418 44.04 211.885 43.886 212.296 43.578L212.982 45.748C212.618 45.9627 212.193 46.1307 211.708 46.252C211.232 46.3827 210.756 46.448 210.28 46.448ZM223.976 46.448C222.473 46.448 221.124 46.1167 219.93 45.454C218.735 44.7913 217.792 43.8907 217.102 42.752C216.411 41.604 216.066 40.3113 216.066 38.874C216.066 37.81 216.262 36.816 216.654 35.892C217.046 34.968 217.592 34.156 218.292 33.456C218.992 32.7467 219.804 32.196 220.728 31.804C221.652 31.412 222.641 31.216 223.696 31.216C225.189 31.216 226.496 31.524 227.616 32.14C228.745 32.756 229.622 33.6147 230.248 34.716C230.882 35.8173 231.2 37.096 231.2 38.552C231.2 38.6733 231.195 38.7713 231.186 38.846C231.176 38.9207 231.158 39.0187 231.13 39.14H218.81C218.81 40.1387 219.034 41.0207 219.482 41.786C219.939 42.5513 220.564 43.1533 221.358 43.592C222.16 44.0213 223.08 44.236 224.116 44.236C225.096 44.236 225.973 44.0353 226.748 43.634C227.522 43.2327 228.194 42.6353 228.764 41.842L230.752 42.878C230.07 44.0073 229.132 44.8847 227.938 45.51C226.752 46.1353 225.432 46.448 223.976 46.448ZM218.95 37.138H228.47C228.339 36.4007 228.05 35.7567 227.602 35.206C227.163 34.646 226.608 34.212 225.936 33.904C225.273 33.5867 224.54 33.428 223.738 33.428C222.898 33.428 222.137 33.582 221.456 33.89C220.784 34.1887 220.228 34.618 219.79 35.178C219.36 35.7287 219.08 36.382 218.95 37.138Z" fill="#595E60"/>
<rect x="93" y="21" width="2" height="28" fill="#595E60"/>
<path d="M67.7453 28.2016C66.6199 22.9746 64.2197 19.6677 61.9999 19.6677C59.78 19.6677 57.3798 22.9746 56.2544 28.2016H67.7453Z" fill="#092948"/>
<path d="M55.5996 34.6021C55.5993 36.0292 55.6945 37.4547 55.8844 38.8691H68.1157C68.3056 37.4547 68.4008 36.0292 68.4005 34.6021C68.4008 33.175 68.3056 31.7495 68.1157 30.3351H55.8844C55.6945 31.7495 55.5993 33.175 55.5996 34.6021Z" fill="#092948"/>
<path d="M56.2544 41.0026C57.3798 46.2296 59.78 49.5365 61.9999 49.5365C64.2197 49.5365 66.6199 46.2296 67.7453 41.0026H56.2544Z" fill="#092948"/>
<path d="M69.9303 28.2017H76.6508C75.641 25.9037 74.1067 23.8743 72.171 22.2763C70.2353 20.6783 67.9521 19.5562 65.5044 19C67.528 20.7804 69.1153 24.0724 69.9303 28.2017Z" fill="#092948"/>
<path d="M77.4178 30.3351H70.2706C70.4466 31.7506 70.5346 33.1757 70.5341 34.6021C70.5342 36.0285 70.4459 37.4536 70.2695 38.8691H77.4167C78.1946 36.0776 78.1957 33.1266 77.4178 30.3351Z" fill="#092948"/>
<path d="M65.5044 50.2043C67.9525 49.6483 70.2361 48.5264 72.1722 46.9284C74.1083 45.3304 75.6429 43.3008 76.6529 41.0026H69.9324C69.1153 45.1319 67.528 48.4239 65.5044 50.2043Z" fill="#092948"/>
<path d="M54.0701 41.0026H47.3496C48.3596 43.3008 49.8942 45.3304 51.8303 46.9284C53.7664 48.5264 56.0501 49.6483 58.4981 50.2043C56.4724 48.4239 54.8851 45.1319 54.0701 41.0026Z" fill="#092948"/>
<path d="M58.4957 19C56.0476 19.5559 53.7639 20.6779 51.8278 22.2759C49.8917 23.8739 48.3571 25.9034 47.3472 28.2017H54.0676C54.8848 24.0724 56.4721 20.7804 58.4957 19Z" fill="#092948"/>
<path d="M53.4661 34.6021C53.4659 33.1757 53.5543 31.7506 53.7306 30.3351H46.5835C45.8055 33.1266 45.8055 36.0776 46.5835 38.8691H53.7306C53.5543 37.4536 53.4659 36.0285 53.4661 34.6021Z" fill="#092948"/>
</svg>
