<svg width="308" height="41" viewBox="0 0 308 41" fill="none" xmlns="http://www.w3.org/2000/svg">
<path d="M58.52 32V9.98H51.35V7.25H68.75V9.98H61.565V32H58.52ZM78.2539 32.48C76.6239 32.48 75.1539 32.135 73.8439 31.445C72.5439 30.755 71.5089 29.795 70.7389 28.565C69.9789 27.335 69.5989 25.92 69.5989 24.32C69.5989 22.71 69.9789 21.295 70.7389 20.075C71.5089 18.845 72.5439 17.885 73.8439 17.195C75.1539 16.505 76.6239 16.16 78.2539 16.16C79.8839 16.16 81.3489 16.505 82.6489 17.195C83.9589 17.885 84.9939 18.845 85.7539 20.075C86.5239 21.295 86.9089 22.71 86.9089 24.32C86.9089 25.92 86.5239 27.335 85.7539 28.565C84.9939 29.795 83.9589 30.755 82.6489 31.445C81.3489 32.135 79.8839 32.48 78.2539 32.48ZM78.2689 29.945C79.3389 29.945 80.2989 29.705 81.1489 29.225C81.9989 28.745 82.6689 28.08 83.1589 27.23C83.6489 26.38 83.8939 25.41 83.8939 24.32C83.8939 23.22 83.6489 22.25 83.1589 21.41C82.6689 20.56 81.9989 19.895 81.1489 19.415C80.2989 18.935 79.3389 18.695 78.2689 18.695C77.1889 18.695 76.2239 18.935 75.3739 19.415C74.5239 19.895 73.8539 20.56 73.3639 21.41C72.8739 22.25 72.6289 23.22 72.6289 24.32C72.6289 25.41 72.8739 26.38 73.3639 27.23C73.8539 28.08 74.5239 28.745 75.3739 29.225C76.2239 29.705 77.1889 29.945 78.2689 29.945ZM98.9898 32.48C97.8298 32.48 96.7398 32.275 95.7198 31.865C94.7098 31.455 93.8198 30.88 93.0498 30.14C92.2798 29.4 91.6748 28.535 91.2348 27.545C90.8048 26.555 90.5898 25.48 90.5898 24.32C90.5898 23.18 90.7998 22.12 91.2198 21.14C91.6398 20.15 92.2298 19.285 92.9898 18.545C93.7498 17.795 94.6398 17.21 95.6598 16.79C96.6798 16.37 97.7848 16.16 98.9748 16.16C99.9848 16.16 100.945 16.31 101.855 16.61C102.765 16.9 103.535 17.295 104.165 17.795L103.07 19.76C102.06 18.98 100.825 18.59 99.3648 18.59C98.2048 18.59 97.1898 18.85 96.3198 19.37C95.4498 19.88 94.7748 20.57 94.2948 21.44C93.8248 22.31 93.5898 23.27 93.5898 24.32C93.5898 25.4 93.8348 26.375 94.3248 27.245C94.8148 28.105 95.4948 28.79 96.3648 29.3C97.2448 29.8 98.2548 30.05 99.3948 30.05C100.105 30.05 100.775 29.95 101.405 29.75C102.035 29.54 102.585 29.25 103.055 28.88L104.165 30.845C103.525 31.335 102.755 31.73 101.855 32.03C100.955 32.33 99.9998 32.48 98.9898 32.48ZM114.985 32.48C113.555 32.48 112.26 32.13 111.1 31.43C109.95 30.72 109.035 29.75 108.355 28.52C107.685 27.29 107.35 25.885 107.35 24.305C107.35 22.745 107.68 21.355 108.34 20.135C109 18.905 109.905 17.935 111.055 17.225C112.205 16.515 113.515 16.16 114.985 16.16C116.285 16.16 117.47 16.45 118.54 17.03C119.62 17.61 120.455 18.415 121.045 19.445V16.64H123.955V32H121.045V29.12C120.375 30.18 119.515 31.005 118.465 31.595C117.415 32.185 116.255 32.48 114.985 32.48ZM115.765 29.975C116.815 29.975 117.74 29.735 118.54 29.255C119.35 28.765 119.985 28.095 120.445 27.245C120.905 26.395 121.135 25.42 121.135 24.32C121.135 23.22 120.905 22.245 120.445 21.395C119.985 20.545 119.35 19.88 118.54 19.4C117.74 18.91 116.815 18.665 115.765 18.665C114.725 18.665 113.8 18.91 112.99 19.4C112.18 19.88 111.54 20.545 111.07 21.395C110.61 22.245 110.38 23.22 110.38 24.32C110.38 25.41 110.61 26.385 111.07 27.245C111.54 28.095 112.18 28.765 112.99 29.255C113.8 29.735 114.725 29.975 115.765 29.975ZM130.096 32V16.64H133.006V18.62C133.476 17.92 134.151 17.335 135.031 16.865C135.911 16.395 136.956 16.16 138.166 16.16C139.356 16.16 140.386 16.41 141.256 16.91C142.126 17.4 142.796 18.11 143.266 19.04C143.746 19.97 143.986 21.08 143.986 22.37V32H141.076V22.955C141.076 21.515 140.731 20.41 140.041 19.64C139.351 18.87 138.381 18.485 137.131 18.485C136.271 18.485 135.531 18.66 134.911 19.01C134.301 19.35 133.831 19.81 133.501 20.39C133.171 20.96 133.006 21.585 133.006 22.265V32H130.096ZM156.338 32.48C154.918 32.48 153.628 32.13 152.468 31.43C151.318 30.73 150.403 29.765 149.723 28.535C149.053 27.305 148.718 25.9 148.718 24.32C148.718 22.75 149.048 21.355 149.708 20.135C150.378 18.905 151.288 17.935 152.438 17.225C153.598 16.515 154.918 16.16 156.398 16.16C157.678 16.16 158.843 16.45 159.893 17.03C160.953 17.61 161.793 18.415 162.413 19.445V6.185H165.323V32H162.413V29.12C161.753 30.17 160.893 30.995 159.833 31.595C158.773 32.185 157.608 32.48 156.338 32.48ZM157.118 29.975C158.168 29.975 159.098 29.735 159.908 29.255C160.718 28.765 161.353 28.095 161.813 27.245C162.273 26.395 162.503 25.425 162.503 24.335C162.503 23.235 162.273 22.26 161.813 21.41C161.353 20.55 160.718 19.88 159.908 19.4C159.098 18.91 158.173 18.665 157.133 18.665C156.093 18.665 155.168 18.91 154.358 19.4C153.548 19.88 152.908 20.55 152.438 21.41C151.978 22.26 151.748 23.235 151.748 24.335C151.748 25.425 151.978 26.395 152.438 27.245C152.898 28.095 153.533 28.765 154.343 29.255C155.153 29.735 156.078 29.975 157.118 29.975ZM178.889 32.48C177.259 32.48 175.789 32.135 174.479 31.445C173.179 30.755 172.144 29.795 171.374 28.565C170.614 27.335 170.234 25.92 170.234 24.32C170.234 22.71 170.614 21.295 171.374 20.075C172.144 18.845 173.179 17.885 174.479 17.195C175.789 16.505 177.259 16.16 178.889 16.16C180.519 16.16 181.984 16.505 183.284 17.195C184.594 17.885 185.629 18.845 186.389 20.075C187.159 21.295 187.544 22.71 187.544 24.32C187.544 25.92 187.159 27.335 186.389 28.565C185.629 29.795 184.594 30.755 183.284 31.445C181.984 32.135 180.519 32.48 178.889 32.48ZM178.904 29.945C179.974 29.945 180.934 29.705 181.784 29.225C182.634 28.745 183.304 28.08 183.794 27.23C184.284 26.38 184.529 25.41 184.529 24.32C184.529 23.22 184.284 22.25 183.794 21.41C183.304 20.56 182.634 19.895 181.784 19.415C180.934 18.935 179.974 18.695 178.904 18.695C177.824 18.695 176.859 18.935 176.009 19.415C175.159 19.895 174.489 20.56 173.999 21.41C173.509 22.25 173.264 23.22 173.264 24.32C173.264 25.41 173.509 26.38 173.999 27.23C174.489 28.08 175.159 28.745 176.009 29.225C176.859 29.705 177.824 29.945 178.904 29.945ZM206.802 32.48C205.372 32.48 204.077 32.13 202.917 31.43C201.767 30.72 200.852 29.75 200.172 28.52C199.502 27.29 199.167 25.885 199.167 24.305C199.167 22.745 199.497 21.355 200.157 20.135C200.817 18.905 201.722 17.935 202.872 17.225C204.022 16.515 205.332 16.16 206.802 16.16C208.102 16.16 209.287 16.45 210.357 17.03C211.437 17.61 212.272 18.415 212.862 19.445V16.64H215.772V32H212.862V29.12C212.192 30.18 211.332 31.005 210.282 31.595C209.232 32.185 208.072 32.48 206.802 32.48ZM207.582 29.975C208.632 29.975 209.557 29.735 210.357 29.255C211.167 28.765 211.802 28.095 212.262 27.245C212.722 26.395 212.952 25.42 212.952 24.32C212.952 23.22 212.722 22.245 212.262 21.395C211.802 20.545 211.167 19.88 210.357 19.4C209.557 18.91 208.632 18.665 207.582 18.665C206.542 18.665 205.617 18.91 204.807 19.4C203.997 19.88 203.357 20.545 202.887 21.395C202.427 22.245 202.197 23.22 202.197 24.32C202.197 25.41 202.427 26.385 202.887 27.245C203.357 28.095 203.997 28.765 204.807 29.255C205.617 29.735 206.542 29.975 207.582 29.975ZM228.873 40.25C226.893 40.25 225.223 39.87 223.863 39.11C222.503 38.35 221.498 37.24 220.848 35.78L223.263 34.64C223.723 35.59 224.458 36.345 225.468 36.905C226.478 37.475 227.613 37.76 228.873 37.76C229.953 37.76 230.913 37.545 231.753 37.115C232.603 36.685 233.268 36.07 233.748 35.27C234.238 34.47 234.483 33.515 234.483 32.405V29.12C233.833 30.17 232.978 30.995 231.918 31.595C230.858 32.185 229.688 32.48 228.408 32.48C226.988 32.48 225.703 32.13 224.553 31.43C223.403 30.73 222.488 29.765 221.808 28.535C221.128 27.305 220.788 25.9 220.788 24.32C220.788 22.75 221.123 21.355 221.793 20.135C222.463 18.905 223.373 17.935 224.523 17.225C225.683 16.515 226.998 16.16 228.468 16.16C229.748 16.16 230.918 16.45 231.978 17.03C233.038 17.61 233.873 18.415 234.483 19.445V16.64H237.393V32.42C237.393 34.06 237.058 35.465 236.388 36.635C235.728 37.805 234.763 38.7 233.493 39.32C232.223 39.94 230.683 40.25 228.873 40.25ZM229.188 29.975C230.238 29.975 231.168 29.735 231.978 29.255C232.798 28.765 233.438 28.095 233.898 27.245C234.358 26.395 234.588 25.425 234.588 24.335C234.588 23.235 234.353 22.26 233.883 21.41C233.423 20.55 232.788 19.88 231.978 19.4C231.168 18.91 230.243 18.665 229.203 18.665C228.163 18.665 227.238 18.91 226.428 19.4C225.618 19.88 224.978 20.55 224.508 21.41C224.048 22.26 223.818 23.235 223.818 24.335C223.818 25.425 224.048 26.395 224.508 27.245C224.968 28.095 225.603 28.765 226.413 29.255C227.223 29.735 228.148 29.975 229.188 29.975ZM250.813 32.48C249.183 32.48 247.713 32.135 246.403 31.445C245.103 30.755 244.068 29.795 243.298 28.565C242.538 27.335 242.158 25.92 242.158 24.32C242.158 22.71 242.538 21.295 243.298 20.075C244.068 18.845 245.103 17.885 246.403 17.195C247.713 16.505 249.183 16.16 250.813 16.16C252.443 16.16 253.908 16.505 255.208 17.195C256.518 17.885 257.553 18.845 258.313 20.075C259.083 21.295 259.468 22.71 259.468 24.32C259.468 25.92 259.083 27.335 258.313 28.565C257.553 29.795 256.518 30.755 255.208 31.445C253.908 32.135 252.443 32.48 250.813 32.48ZM250.828 29.945C251.898 29.945 252.858 29.705 253.708 29.225C254.558 28.745 255.228 28.08 255.718 27.23C256.208 26.38 256.453 25.41 256.453 24.32C256.453 23.22 256.208 22.25 255.718 21.41C255.228 20.56 254.558 19.895 253.708 19.415C252.858 18.935 251.898 18.695 250.828 18.695C249.748 18.695 248.783 18.935 247.933 19.415C247.083 19.895 246.413 20.56 245.923 21.41C245.433 22.25 245.188 23.22 245.188 24.32C245.188 25.41 245.433 26.38 245.923 27.23C246.413 28.08 247.083 28.745 247.933 29.225C248.783 29.705 249.748 29.945 250.828 29.945ZM264.335 32V16.64H267.245V18.89C267.755 18 268.405 17.325 269.195 16.865C269.985 16.395 270.88 16.16 271.88 16.16C272.36 16.16 272.845 16.22 273.335 16.34C273.835 16.45 274.265 16.6 274.625 16.79L273.425 19.25C273.115 19.08 272.755 18.945 272.345 18.845C271.935 18.745 271.55 18.695 271.19 18.695C270.52 18.695 269.88 18.87 269.27 19.22C268.67 19.56 268.18 20.005 267.8 20.555C267.43 21.105 267.245 21.695 267.245 22.325V32H264.335ZM284.497 32.48C283.067 32.48 281.772 32.13 280.612 31.43C279.462 30.72 278.547 29.75 277.867 28.52C277.197 27.29 276.862 25.885 276.862 24.305C276.862 22.745 277.192 21.355 277.852 20.135C278.512 18.905 279.417 17.935 280.567 17.225C281.717 16.515 283.027 16.16 284.497 16.16C285.797 16.16 286.982 16.45 288.052 17.03C289.132 17.61 289.967 18.415 290.557 19.445V16.64H293.467V32H290.557V29.12C289.887 30.18 289.027 31.005 287.977 31.595C286.927 32.185 285.767 32.48 284.497 32.48ZM285.277 29.975C286.327 29.975 287.252 29.735 288.052 29.255C288.862 28.765 289.497 28.095 289.957 27.245C290.417 26.395 290.647 25.42 290.647 24.32C290.647 23.22 290.417 22.245 289.957 21.395C289.497 20.545 288.862 19.88 288.052 19.4C287.252 18.91 286.327 18.665 285.277 18.665C284.237 18.665 283.312 18.91 282.502 19.4C281.692 19.88 281.052 20.545 280.582 21.395C280.122 22.245 279.892 23.22 279.892 24.32C279.892 25.41 280.122 26.385 280.582 27.245C281.052 28.095 281.692 28.765 282.502 29.255C283.312 29.735 284.237 29.975 285.277 29.975ZM302.098 18.965C301.738 18.965 301.408 18.88 301.108 18.71C300.818 18.53 300.583 18.29 300.403 17.99C300.223 17.69 300.133 17.36 300.133 17C300.133 16.63 300.223 16.3 300.403 16.01C300.583 15.71 300.818 15.47 301.108 15.29C301.408 15.11 301.738 15.02 302.098 15.02C302.468 15.02 302.798 15.11 303.088 15.29C303.388 15.47 303.628 15.71 303.808 16.01C303.988 16.3 304.078 16.63 304.078 17C304.078 17.36 303.988 17.69 303.808 17.99C303.628 18.29 303.388 18.53 303.088 18.71C302.798 18.88 302.468 18.965 302.098 18.965ZM302.098 32.48C301.738 32.48 301.408 32.39 301.108 32.21C300.818 32.03 300.583 31.79 300.403 31.49C300.223 31.19 300.133 30.86 300.133 30.5C300.133 30.14 300.223 29.81 300.403 29.51C300.583 29.21 300.818 28.975 301.108 28.805C301.408 28.625 301.738 28.535 302.098 28.535C302.468 28.535 302.798 28.625 303.088 28.805C303.388 28.975 303.628 29.21 303.808 29.51C303.988 29.81 304.078 30.14 304.078 30.5C304.078 30.86 303.988 31.19 303.808 31.49C303.628 31.79 303.388 32.03 303.088 32.21C302.798 32.39 302.468 32.48 302.098 32.48Z" fill="#092948"/>
<path d="M30 20L7.5 37.3205V2.67949L30 20Z" fill="#6A254F"/>
</svg>
