<svg width="280" height="70" viewBox="0 0 280 70" fill="none" xmlns="http://www.w3.org/2000/svg">
<rect x="1.5" y="1.5" width="277" height="67" rx="3.5" fill="white" stroke="#092948" stroke-width="3"/>
<path d="M89.985 27.0124C88.1633 27.0124 86.4826 26.4064 85.1329 25.3842C83.585 24.2124 82.4728 22.4935 82.0801 20.5123C81.9828 20.0228 81.9304 19.5177 81.9254 19H76.7218V33.277L76.7156 41.0972C76.7156 43.1879 75.3596 44.9607 73.48 45.5841C72.9345 45.765 72.3454 45.8508 71.732 45.817C70.949 45.7738 70.2152 45.5366 69.5774 45.1535C68.2203 44.3385 67.3001 42.8599 67.2752 41.1686C67.2359 38.5251 69.3642 36.3699 71.9951 36.3699C72.5144 36.3699 73.0131 36.4551 73.48 36.6097V32.7074V31.3046C72.9875 31.2314 72.4863 31.1932 71.9795 31.1932C69.0999 31.1932 66.4068 32.395 64.4816 34.5603C63.0266 36.1965 62.1538 38.2841 62.0192 40.4731C61.8427 43.3488 62.8907 46.0824 64.923 48.0993C65.2216 48.3954 65.5352 48.6702 65.8631 48.9237C67.6056 50.2701 69.7358 51 71.9795 51C72.4863 51 72.9875 50.9624 73.48 50.8892C75.576 50.5775 77.5098 49.6141 79.0359 48.0993C80.9111 46.2383 81.9473 43.7676 81.9585 41.1379L81.9317 29.4599C82.8263 30.1528 83.8044 30.7262 84.8543 31.1713C86.487 31.863 88.2182 32.2135 89.9999 32.2129V28.4189V27.0111C90.0012 27.0124 89.9862 27.0124 89.985 27.0124Z" fill="#092948"/>
<path d="M129.952 46V25.448H123.26V22.9H139.5V25.448H132.794V46H129.952ZM143.614 46V31.664H146.33V46H143.614ZM144.972 28.766C144.664 28.766 144.379 28.6913 144.118 28.542C143.866 28.3833 143.66 28.1733 143.502 27.912C143.352 27.6507 143.278 27.366 143.278 27.058C143.278 26.7407 143.352 26.456 143.502 26.204C143.66 25.952 143.866 25.7513 144.118 25.602C144.379 25.4433 144.664 25.364 144.972 25.364C145.289 25.364 145.574 25.4433 145.826 25.602C146.078 25.7513 146.278 25.952 146.428 26.204C146.586 26.456 146.666 26.7407 146.666 27.058C146.666 27.366 146.586 27.6507 146.428 27.912C146.278 28.1733 146.078 28.3833 145.826 28.542C145.574 28.6913 145.289 28.766 144.972 28.766ZM152.077 46V21.92H154.793V37.348L160.393 31.664H163.921L157.243 38.496L164.257 46H160.771L154.793 39.532V46H152.077ZM172.061 46V25.448H165.369V22.9H181.609V25.448H174.903V46H172.061ZM190.48 46.448C188.958 46.448 187.586 46.126 186.364 45.482C185.15 44.838 184.184 43.942 183.466 42.794C182.756 41.646 182.402 40.3253 182.402 38.832C182.402 37.3293 182.756 36.0087 183.466 34.87C184.184 33.722 185.15 32.826 186.364 32.182C187.586 31.538 188.958 31.216 190.48 31.216C192.001 31.216 193.368 31.538 194.582 32.182C195.804 32.826 196.77 33.722 197.48 34.87C198.198 36.0087 198.558 37.3293 198.558 38.832C198.558 40.3253 198.198 41.646 197.48 42.794C196.77 43.942 195.804 44.838 194.582 45.482C193.368 46.126 192.001 46.448 190.48 46.448ZM190.494 44.082C191.492 44.082 192.388 43.858 193.182 43.41C193.975 42.962 194.6 42.3413 195.058 41.548C195.515 40.7547 195.744 39.8493 195.744 38.832C195.744 37.8053 195.515 36.9 195.058 36.116C194.6 35.3227 193.975 34.702 193.182 34.254C192.388 33.806 191.492 33.582 190.494 33.582C189.486 33.582 188.585 33.806 187.792 34.254C186.998 34.702 186.373 35.3227 185.916 36.116C185.458 36.9 185.23 37.8053 185.23 38.832C185.23 39.8493 185.458 40.7547 185.916 41.548C186.373 42.3413 186.998 42.962 187.792 43.41C188.585 43.858 189.486 44.082 190.494 44.082ZM203.155 46V21.92H205.871V37.348L211.471 31.664H214.999L208.321 38.496L215.335 46H211.849L205.871 39.532V46H203.155Z" fill="#595E60"/>
<rect x="105" y="21" width="2" height="28" fill="#595E60"/>
</svg>
