<svg width="36" height="36" viewBox="0 0 36 36" fill="none" xmlns="http://www.w3.org/2000/svg">
<path d="M32.3513 3.64873C37.2162 8.51366 37.2163 16.4013 32.3514 21.2662C27.4864 26.1311 19.5987 26.1313 14.7338 21.2663C9.86883 16.4014 9.86869 8.51373 14.7336 3.6488C19.5986 -1.21612 27.4864 -1.2162 32.3513 3.64873Z" fill="#092948"/>
<path d="M7.8912 12.8421C3.67559 17.0577 3.67559 23.8926 7.8912 28.1082C12.1068 32.3238 18.9416 32.3239 23.1573 28.1082C23.1852 28.0798 23.2143 28.0497 23.2427 28.02C23.4538 27.7994 23.3755 27.6714 23.0762 27.7305C19.0868 28.515 14.785 27.3683 11.7068 24.2901C8.62529 21.2086 7.48099 16.9032 8.27278 12.913C8.33184 12.6137 8.2062 12.5367 7.98799 12.7502C7.95478 12.7827 7.92507 12.8121 7.89364 12.8436L7.8912 12.8421Z" fill="#092948"/>
<path d="M2.55801 21.0907C-0.852636 24.5013 -0.852707 30.0313 2.55801 33.4421C5.96874 36.8528 11.4987 36.8528 14.9094 33.4421C14.9279 33.4231 14.9511 33.3993 14.9701 33.3798C15.1469 33.1971 15.0818 33.0917 14.8326 33.14C11.6083 33.77 8.13357 32.8413 5.64622 30.354C3.15623 27.864 2.22963 24.3864 2.86543 21.1614C2.91468 20.9123 2.81009 20.8489 2.62989 21.0281C2.60634 21.0515 2.58293 21.075 2.56224 21.0956L2.55801 21.0907Z" fill="#092948"/>
</svg>
