<svg width="52" height="52" viewBox="0 0 52 52" fill="none" xmlns="http://www.w3.org/2000/svg">
<rect x="1.03655" y="1.03655" width="49.7546" height="49.7546" rx="1.03655" stroke="#595E60" stroke-opacity="0.3" stroke-width="2.07311"/>
<path d="M13.4321 19.0859L15.1604 39.949C15.2842 41.4536 16.5658 42.6332 18.0761 42.6332H34.0001C35.5104 42.6332 36.792 41.4536 36.9158 39.949L38.644 19.0859H13.4321ZM21.1586 38.7303C20.6478 38.7303 20.2181 38.333 20.1857 37.8156L19.21 22.074C19.1766 21.5357 19.5854 21.0726 20.1228 21.0392C20.6802 21.0001 21.1233 21.4137 21.1576 21.952L22.1333 37.6936C22.1679 38.2511 21.7268 38.7303 21.1586 38.7303ZM27.0138 37.7546C27.0138 38.2939 26.5774 38.7303 26.0381 38.7303C25.4988 38.7303 25.0623 38.2939 25.0623 37.7546V22.013C25.0623 21.4737 25.4988 21.0373 26.0381 21.0373C26.5774 21.0373 27.0138 21.4737 27.0138 22.013V37.7546ZM32.8661 22.0741L31.8904 37.8156C31.8583 38.3278 31.4314 38.7547 30.8556 38.7284C30.3182 38.6951 29.9094 38.232 29.9428 37.6937L30.9185 21.9521C30.9519 21.4138 31.4236 21.0221 31.9533 21.0393C32.4907 21.0726 32.8995 21.5357 32.8661 22.0741Z" fill="#595E60"/>
<path d="M38.7219 13.2318H32.8676V12.2561C32.8676 10.642 31.5546 9.32892 29.9405 9.32892H22.1347C20.5206 9.32892 19.2076 10.642 19.2076 12.2561V13.2318H13.3533C12.2755 13.2318 11.4019 14.1054 11.4019 15.1832C11.4019 16.2609 12.2755 17.1347 13.3533 17.1347C22.3277 17.1347 29.7479 17.1347 38.7219 17.1347C39.7997 17.1347 40.6734 16.2609 40.6734 15.1832C40.6734 14.1054 39.7997 13.2318 38.7219 13.2318ZM30.9162 13.2318H21.159V12.2561C21.159 11.7177 21.5964 11.2804 22.1347 11.2804H29.9405C30.4788 11.2804 30.9162 11.7177 30.9162 12.2561V13.2318Z" fill="#595E60"/>
</svg>
