<svg width="280" height="70" viewBox="0 0 280 70" fill="none" xmlns="http://www.w3.org/2000/svg">
<rect x="1.5" y="1.5" width="277" height="67" rx="3.5" fill="white" stroke="#092948" stroke-width="3"/>
<path d="M62.6138 24.0827L62.6083 24.0307C62.4311 22.3294 61.6739 20.7408 60.4638 19.5318C59.2538 18.3227 57.6646 17.5668 55.9631 17.391C53.4687 17.1312 49.3582 17 45.5 17C41.6418 17 37.5313 17.1312 35.0369 17.391C33.3354 17.5668 31.7462 18.3227 30.5362 19.5318C29.3261 20.7408 28.5689 22.3294 28.3917 24.0307L28.3862 24.0827C28.1702 26.1512 28 26.4835 28 30.8461C28 35.2088 28.1702 35.9129 28.3862 37.9821L28.3917 38.0334C28.5689 39.7348 29.3261 41.3233 30.5362 42.5324C31.7462 43.7414 33.3354 44.4973 35.0369 44.6731C36.413 44.8167 38.2812 44.9206 40.3272 44.9855L44.2976 51.2903C44.4345 51.5076 44.6243 51.6867 44.8492 51.8108C45.0742 51.9349 45.3269 52 45.5837 52C45.8406 52 46.0933 51.9349 46.3182 51.8108C46.5432 51.6867 46.733 51.5076 46.8699 51.2903L50.8437 44.9801C52.8227 44.9117 54.6253 44.8126 55.9624 44.6731C57.664 44.4975 59.2534 43.7416 60.4636 42.5326C61.6738 41.3235 62.4311 39.7349 62.6083 38.0334L62.6138 37.9815C62.8298 35.9129 63 35.2088 63 30.8461C63 26.4835 62.8298 26.1519 62.6138 24.0827ZM45.4959 41.4083C45.0372 41.4075 44.589 41.2707 44.208 41.0153C43.827 40.7599 43.5303 40.3972 43.3553 39.9732C43.1803 39.5492 43.135 39.0828 43.225 38.6331C43.3149 38.1833 43.5362 37.7703 43.8609 37.4462C44.1855 37.1221 44.5989 36.9016 45.0489 36.8124C45.4988 36.7232 45.9651 36.7694 46.3888 36.9451C46.8125 37.1208 47.1746 37.4182 47.4294 37.7996C47.6841 38.1811 47.8201 38.6295 47.8201 39.0882C47.819 39.7039 47.5737 40.294 47.1379 40.729C46.7022 41.164 46.1116 41.4083 45.4959 41.4083ZM47.7463 33.4178C47.7075 33.7766 47.5454 34.1107 47.2876 34.3632C47.0266 34.6179 46.6871 34.7766 46.3244 34.8137H46.3135C46.0866 34.84 45.8583 34.8532 45.6299 34.8534C45.3559 34.8547 45.0821 34.8414 44.8096 34.8137H44.7979C44.4345 34.7773 44.0941 34.6184 43.8327 34.3632C43.5749 34.1111 43.4127 33.7771 43.374 33.4185C43.318 32.8949 43.2899 29.2588 43.2899 28.4488C43.2899 27.6387 43.318 23.9925 43.374 23.4695C43.4128 23.1108 43.5749 22.7766 43.8327 22.5241C44.0935 22.2697 44.4328 22.1111 44.7952 22.0743H44.8068C45.0794 22.0471 45.3535 22.0389 45.6271 22.0497C45.8553 22.0389 46.084 22.0471 46.3107 22.0743H46.3217C46.6844 22.1111 47.0239 22.2696 47.2849 22.5241C47.5424 22.7768 47.7045 23.1108 47.7436 23.4695C47.7989 23.9925 47.8276 27.6394 47.8276 28.4488C47.8276 29.2582 47.8017 32.8942 47.7463 33.4178Z" fill="#092948"/>
<path d="M104.422 46.448C103.265 46.448 102.233 46.2893 101.328 45.972C100.423 45.6453 99.6433 45.2487 98.99 44.782C98.3367 44.3153 97.8 43.858 97.38 43.41C96.96 42.9527 96.652 42.5933 96.456 42.332L98.01 40.12C98.2247 40.3813 98.514 40.7173 98.878 41.128C99.242 41.5387 99.69 41.9493 100.222 42.36C100.754 42.7707 101.375 43.116 102.084 43.396C102.793 43.676 103.596 43.816 104.492 43.816C105.341 43.816 106.111 43.6667 106.802 43.368C107.493 43.0693 108.043 42.626 108.454 42.038C108.874 41.45 109.084 40.722 109.084 39.854C109.084 39.1167 108.935 38.4913 108.636 37.978C108.337 37.4553 107.922 37.0073 107.39 36.634C106.858 36.2607 106.237 35.92 105.528 35.612C104.819 35.2947 104.053 34.9773 103.232 34.66C102.653 34.4267 102.065 34.156 101.468 33.848C100.871 33.5307 100.32 33.148 99.816 32.7C99.312 32.2427 98.906 31.7013 98.598 31.076C98.29 30.4507 98.136 29.7133 98.136 28.864C98.136 28.0053 98.2993 27.1933 98.626 26.428C98.9527 25.6627 99.4147 24.986 100.012 24.398C100.609 23.8007 101.319 23.334 102.14 22.998C102.971 22.6527 103.89 22.48 104.898 22.48C105.794 22.48 106.639 22.62 107.432 22.9C108.235 23.18 108.949 23.5393 109.574 23.978C110.199 24.4073 110.699 24.86 111.072 25.336L109.742 27.422C109.434 27.0207 109.042 26.6427 108.566 26.288C108.09 25.924 107.544 25.63 106.928 25.406C106.312 25.182 105.649 25.07 104.94 25.07C104.072 25.07 103.335 25.252 102.728 25.616C102.131 25.9707 101.673 26.4327 101.356 27.002C101.039 27.5713 100.88 28.178 100.88 28.822C100.88 29.4007 100.997 29.8907 101.23 30.292C101.473 30.6933 101.795 31.034 102.196 31.314C102.597 31.594 103.05 31.8413 103.554 32.056C104.058 32.2707 104.576 32.476 105.108 32.672C106.06 33.0453 106.961 33.4327 107.81 33.834C108.659 34.226 109.406 34.688 110.05 35.22C110.694 35.7427 111.198 36.3727 111.562 37.11C111.935 37.8473 112.122 38.7387 112.122 39.784C112.122 41.1933 111.786 42.3973 111.114 43.396C110.451 44.3853 109.541 45.1413 108.384 45.664C107.227 46.1867 105.906 46.448 104.422 46.448ZM123.913 46.448C122.392 46.448 121.02 46.126 119.797 45.482C118.584 44.838 117.618 43.942 116.899 42.794C116.19 41.646 115.835 40.3253 115.835 38.832C115.835 37.3293 116.19 36.0087 116.899 34.87C117.618 33.722 118.584 32.826 119.797 32.182C121.02 31.538 122.392 31.216 123.913 31.216C125.435 31.216 126.802 31.538 128.015 32.182C129.238 32.826 130.204 33.722 130.913 34.87C131.632 36.0087 131.991 37.3293 131.991 38.832C131.991 40.3253 131.632 41.646 130.913 42.794C130.204 43.942 129.238 44.838 128.015 45.482C126.802 46.126 125.435 46.448 123.913 46.448ZM123.927 44.082C124.926 44.082 125.822 43.858 126.615 43.41C127.409 42.962 128.034 42.3413 128.491 41.548C128.949 40.7547 129.177 39.8493 129.177 38.832C129.177 37.8053 128.949 36.9 128.491 36.116C128.034 35.3227 127.409 34.702 126.615 34.254C125.822 33.806 124.926 33.582 123.927 33.582C122.919 33.582 122.019 33.806 121.225 34.254C120.432 34.702 119.807 35.3227 119.349 36.116C118.892 36.9 118.663 37.8053 118.663 38.832C118.663 39.8493 118.892 40.7547 119.349 41.548C119.807 42.3413 120.432 42.962 121.225 43.41C122.019 43.858 122.919 44.082 123.927 44.082ZM144.975 46.448C143.789 46.448 142.702 46.1727 141.713 45.622C140.723 45.062 139.921 44.292 139.305 43.312V46H136.589V21.92H139.305V34.282C139.883 33.3207 140.663 32.5693 141.643 32.028C142.632 31.4867 143.724 31.216 144.919 31.216C146.291 31.216 147.518 31.5473 148.601 32.21C149.683 32.8727 150.533 33.778 151.149 34.926C151.774 36.0647 152.087 37.3667 152.087 38.832C152.087 40.3067 151.769 41.618 151.135 42.766C150.509 43.914 149.66 44.8147 148.587 45.468C147.513 46.1213 146.309 46.448 144.975 46.448ZM144.247 44.11C145.227 44.11 146.09 43.886 146.837 43.438C147.593 42.9807 148.185 42.3553 148.615 41.562C149.044 40.7687 149.259 39.8633 149.259 38.846C149.259 37.8193 149.039 36.9093 148.601 36.116C148.171 35.3133 147.579 34.688 146.823 34.24C146.076 33.7827 145.217 33.554 144.247 33.554C143.276 33.554 142.408 33.7827 141.643 34.24C140.887 34.688 140.289 35.3133 139.851 36.116C139.421 36.9093 139.207 37.8193 139.207 38.846C139.207 39.8633 139.421 40.7687 139.851 41.562C140.28 42.3553 140.873 42.9807 141.629 43.438C142.394 43.886 143.267 44.11 144.247 44.11ZM156.768 46V31.664H159.484V33.764C159.96 32.9333 160.567 32.3033 161.304 31.874C162.042 31.4353 162.877 31.216 163.81 31.216C164.258 31.216 164.711 31.272 165.168 31.384C165.635 31.4867 166.036 31.6267 166.372 31.804L165.252 34.1C164.963 33.9413 164.627 33.8153 164.244 33.722C163.862 33.6287 163.502 33.582 163.166 33.582C162.541 33.582 161.944 33.7453 161.374 34.072C160.814 34.3893 160.357 34.8047 160.002 35.318C159.657 35.8313 159.484 36.382 159.484 36.97V46H156.768ZM176.327 46.448C174.825 46.448 173.476 46.1167 172.281 45.454C171.087 44.7913 170.144 43.8907 169.453 42.752C168.763 41.604 168.417 40.3113 168.417 38.874C168.417 37.81 168.613 36.816 169.005 35.892C169.397 34.968 169.943 34.156 170.643 33.456C171.343 32.7467 172.155 32.196 173.079 31.804C174.003 31.412 174.993 31.216 176.047 31.216C177.541 31.216 178.847 31.524 179.967 32.14C181.097 32.756 181.974 33.6147 182.599 34.716C183.234 35.8173 183.551 37.096 183.551 38.552C183.551 38.6733 183.547 38.7713 183.537 38.846C183.528 38.9207 183.509 39.0187 183.481 39.14H171.161C171.161 40.1387 171.385 41.0207 171.833 41.786C172.291 42.5513 172.916 43.1533 173.709 43.592C174.512 44.0213 175.431 44.236 176.467 44.236C177.447 44.236 178.325 44.0353 179.099 43.634C179.874 43.2327 180.546 42.6353 181.115 41.842L183.103 42.878C182.422 44.0073 181.484 44.8847 180.289 45.51C179.104 46.1353 177.783 46.448 176.327 46.448ZM171.301 37.138H180.821C180.691 36.4007 180.401 35.7567 179.953 35.206C179.515 34.646 178.959 34.212 178.287 33.904C177.625 33.5867 176.892 33.428 176.089 33.428C175.249 33.428 174.489 33.582 173.807 33.89C173.135 34.1887 172.58 34.618 172.141 35.178C171.712 35.7287 171.432 36.382 171.301 37.138ZM196.092 46V22.9H198.934L210.61 41.198V22.9H213.452V46H210.61L198.934 27.716V46H196.092ZM226.835 46.448C225.314 46.448 223.942 46.126 222.719 45.482C221.506 44.838 220.54 43.942 219.821 42.794C219.112 41.646 218.757 40.3253 218.757 38.832C218.757 37.3293 219.112 36.0087 219.821 34.87C220.54 33.722 221.506 32.826 222.719 32.182C223.942 31.538 225.314 31.216 226.835 31.216C228.356 31.216 229.724 31.538 230.937 32.182C232.16 32.826 233.126 33.722 233.835 34.87C234.554 36.0087 234.913 37.3293 234.913 38.832C234.913 40.3253 234.554 41.646 233.835 42.794C233.126 43.942 232.16 44.838 230.937 45.482C229.724 46.126 228.356 46.448 226.835 46.448ZM226.849 44.082C227.848 44.082 228.744 43.858 229.537 43.41C230.33 42.962 230.956 42.3413 231.413 41.548C231.87 40.7547 232.099 39.8493 232.099 38.832C232.099 37.8053 231.87 36.9 231.413 36.116C230.956 35.3227 230.33 34.702 229.537 34.254C228.744 33.806 227.848 33.582 226.849 33.582C225.841 33.582 224.94 33.806 224.147 34.254C223.354 34.702 222.728 35.3227 222.271 36.116C221.814 36.9 221.585 37.8053 221.585 38.832C221.585 39.8493 221.814 40.7547 222.271 41.548C222.728 42.3413 223.354 42.962 224.147 43.41C224.94 43.858 225.841 44.082 226.849 44.082ZM226.513 29.564L225.239 28.584L228.263 23.012L230.251 24.468L226.513 29.564ZM243.333 46.448C242.138 46.448 241.079 46.1913 240.155 45.678C239.24 45.1553 238.512 44.4133 237.971 43.452L239.273 41.772C239.767 42.6027 240.365 43.2467 241.065 43.704C241.765 44.1613 242.516 44.39 243.319 44.39C243.841 44.39 244.313 44.2873 244.733 44.082C245.162 43.8767 245.503 43.5827 245.755 43.2C246.007 42.808 246.133 42.346 246.133 41.814C246.133 41.3007 246.002 40.8993 245.741 40.61C245.489 40.3113 245.111 40.05 244.607 39.826C244.112 39.602 243.491 39.3453 242.745 39.056C242.147 38.8133 241.569 38.538 241.009 38.23C240.449 37.922 239.987 37.5347 239.623 37.068C239.268 36.592 239.091 35.99 239.091 35.262C239.091 34.478 239.301 33.7827 239.721 33.176C240.15 32.5693 240.738 32.0933 241.485 31.748C242.231 31.4027 243.081 31.23 244.033 31.23C244.807 31.23 245.559 31.384 246.287 31.692C247.015 32 247.705 32.4433 248.359 33.022L247.267 34.674C246.296 33.6473 245.223 33.134 244.047 33.134C243.337 33.134 242.763 33.316 242.325 33.68C241.886 34.0347 241.667 34.4967 241.667 35.066C241.667 35.5047 241.825 35.8733 242.143 36.172C242.46 36.4613 242.866 36.7133 243.361 36.928C243.855 37.1427 244.369 37.3527 244.901 37.558C245.703 37.8567 246.403 38.1647 247.001 38.482C247.607 38.7993 248.079 39.21 248.415 39.714C248.751 40.2087 248.919 40.876 248.919 41.716C248.919 42.696 248.685 43.5407 248.219 44.25C247.761 44.9593 247.113 45.5053 246.273 45.888C245.433 46.2613 244.453 46.448 243.333 46.448Z" fill="#595E60"/>
<rect x="78" y="21" width="2" height="28" fill="#6E6464"/>
</svg>
