<svg width="50" height="50" viewBox="0 0 50 50" fill="none" xmlns="http://www.w3.org/2000/svg">
<circle cx="25" cy="25" r="25" fill="#2A6994"/>
<path fill-rule="evenodd" clip-rule="evenodd" d="M36.2502 22.5C36.9405 22.5 37.5 21.9403 37.5 21.25V13.75C37.5 13.0597 36.9405 12.5 36.2502 12.5H28.747C28.0568 12.5 27.4972 13.0596 27.4972 13.75C27.4972 14.4404 28.0568 15 28.747 15H33.2332L22.4768 25.7582C21.9887 26.2464 21.9887 27.0379 22.4768 27.526C22.9649 28.0142 23.7562 28.0142 24.2442 27.526L35.0004 16.768V21.25C35.0004 21.9403 35.56 22.5 36.2502 22.5ZM16.2493 16.25C14.1786 16.25 12.5 17.9289 12.5 20V33.75C12.5 35.8211 14.1786 37.5 16.2493 37.5H29.9969C32.0677 37.5 33.7463 35.8211 33.7463 33.75V26.25C33.7463 25.5596 33.1868 25 32.4965 25C31.8062 25 31.2467 25.5596 31.2467 26.25V33.75C31.2467 34.4404 30.6872 35 29.9969 35H16.2493C15.5591 35 14.9996 34.4404 14.9996 33.75V20C14.9996 19.3096 15.5591 18.75 16.2493 18.75H23.748C24.4383 18.75 24.9978 18.1904 24.9978 17.5C24.9978 16.8096 24.4383 16.25 23.748 16.25H16.2493Z" fill="white"/>
</svg>
