<svg width="280" height="238" viewBox="0 0 280 238" fill="none" xmlns="http://www.w3.org/2000/svg">
<path d="M279.76 101.732C281.303 96.5601 275.08 92.9138 270.271 95.3627C268.794 96.1152 267.283 96.8118 265.743 97.4495C254.109 102.269 241.306 103.53 228.955 101.073C216.603 98.6161 205.258 92.5518 196.353 83.6469C187.448 74.7421 181.384 63.3966 178.927 51.0454C176.47 38.694 177.731 25.8911 182.551 14.2563C183.188 12.7162 183.885 11.206 184.637 9.72824C187.086 4.91938 183.44 -1.30263 178.268 0.239659C170.497 2.55681 163.073 6.03253 156.257 10.5868C142.841 19.5508 132.384 32.292 126.21 47.1989C120.035 62.106 118.419 78.5095 121.567 94.3347C124.715 110.16 132.485 124.696 143.894 136.106C155.303 147.515 169.84 155.285 185.665 158.432C201.49 161.58 217.894 159.965 232.801 153.79C247.709 147.616 260.449 137.159 269.414 123.743C273.969 116.927 277.443 109.503 279.76 101.732Z" fill="url(#paint0_linear_41_1158)"/>
<path d="M203.266 237.143C203.266 237.143 122.839 237.143 99.9999 237.143C47.9271 237.143 5.71387 193.651 5.71387 140C5.71387 86.3495 47.9271 42.8572 99.9999 42.8572C147.808 42.8572 187.305 79.5172 193.454 127.041C196.636 126.438 199.915 126.123 203.266 126.123C233.021 126.123 257.143 150.975 257.143 181.633C257.143 212.29 233.021 237.143 203.266 237.143Z" fill="black" fill-opacity="0.15"/>
<path d="M197.552 231.429C197.552 231.429 117.126 231.429 94.286 231.429C42.2133 231.429 0 187.937 0 134.286C0 80.6352 42.2133 37.1429 94.286 37.1429C142.094 37.1429 181.591 73.8029 187.74 121.326C190.922 120.723 194.201 120.408 197.552 120.408C227.308 120.408 251.429 145.261 251.429 175.919C251.429 206.576 227.308 231.429 197.552 231.429Z" fill="url(#paint1_linear_41_1158)"/>
<defs>
<linearGradient id="paint0_linear_41_1158" x1="120" y1="-5.20869e-05" x2="280" y2="160" gradientUnits="userSpaceOnUse">
<stop stop-color="#038FBC"/>
<stop offset="1" stop-color="#73DBFD"/>
</linearGradient>
<linearGradient id="paint1_linear_41_1158" x1="0" y1="37.1429" x2="254.023" y2="227.975" gradientUnits="userSpaceOnUse">
<stop stop-color="#DFDFDF"/>
<stop offset="1" stop-color="white"/>
</linearGradient>
</defs>
</svg>
