<svg width="344" height="84" viewBox="0 0 344 84" fill="none" xmlns="http://www.w3.org/2000/svg">
<path d="M23.0532 7.78732C23.6096 5.56149 25.6095 4 27.9039 4H337.596C340.849 4 343.236 7.05694 342.447 10.2127L324.947 80.2127C324.39 82.4385 322.39 84 320.096 84H10.4039C7.15101 84 4.76424 80.9431 5.55317 77.7873L23.0532 7.78732Z" fill="#85BFD6"/>
<path d="M19.0532 3.78732C19.6096 1.56149 21.6095 0 23.9039 0H333.596C336.849 0 339.236 3.05694 338.447 6.21268L320.947 76.2127C320.39 78.4385 318.39 80 316.096 80H6.40387C3.15101 80 0.764236 76.9431 1.55317 73.7873L19.0532 3.78732Z" fill="#595E60"/>
<path d="M85.65 50L77 29.375H79.875L86.65 46.175L93.425 29.375H96.2875L87.6375 50H85.65ZM104.281 50.4C102.923 50.4 101.698 50.1125 100.606 49.5375C99.5229 48.9625 98.6604 48.1625 98.0188 47.1375C97.3854 46.1125 97.0688 44.9333 97.0688 43.6C97.0688 42.2583 97.3854 41.0792 98.0188 40.0625C98.6604 39.0375 99.5229 38.2375 100.606 37.6625C101.698 37.0875 102.923 36.8 104.281 36.8C105.64 36.8 106.86 37.0875 107.944 37.6625C109.035 38.2375 109.898 39.0375 110.531 40.0625C111.173 41.0792 111.494 42.2583 111.494 43.6C111.494 44.9333 111.173 46.1125 110.531 47.1375C109.898 48.1625 109.035 48.9625 107.944 49.5375C106.86 50.1125 105.64 50.4 104.281 50.4ZM104.294 48.2875C105.185 48.2875 105.985 48.0875 106.694 47.6875C107.402 47.2875 107.96 46.7333 108.369 46.025C108.777 45.3167 108.981 44.5083 108.981 43.6C108.981 42.6833 108.777 41.875 108.369 41.175C107.96 40.4667 107.402 39.9125 106.694 39.5125C105.985 39.1125 105.185 38.9125 104.294 38.9125C103.394 38.9125 102.59 39.1125 101.881 39.5125C101.173 39.9125 100.615 40.4667 100.206 41.175C99.7979 41.875 99.5938 42.6833 99.5938 43.6C99.5938 44.5083 99.7979 45.3167 100.206 46.025C100.615 46.7333 101.173 47.2875 101.881 47.6875C102.59 48.0875 103.394 48.2875 104.294 48.2875ZM115.55 50V28.5H117.975V50H115.55ZM126.644 50.4C125.594 50.4 124.777 50.0542 124.194 49.3625C123.61 48.6625 123.319 47.6833 123.319 46.425V39.0375H121.894V37.2H123.319V32.4125H125.744V37.2H128.819V39.0375H125.744V46.275C125.744 46.9083 125.869 47.3958 126.119 47.7375C126.369 48.0792 126.727 48.25 127.194 48.25C127.66 48.25 128.077 48.1125 128.444 47.8375L129.056 49.775C128.731 49.9667 128.352 50.1167 127.919 50.225C127.494 50.3417 127.069 50.4 126.644 50.4ZM138.211 50.4C137.019 50.4 135.94 50.1083 134.974 49.525C134.015 48.9333 133.253 48.125 132.686 47.1C132.128 46.075 131.849 44.9042 131.849 43.5875C131.849 42.2875 132.124 41.1292 132.674 40.1125C133.224 39.0875 133.978 38.2792 134.936 37.6875C135.894 37.0958 136.986 36.8 138.211 36.8C139.294 36.8 140.282 37.0417 141.174 37.525C142.074 38.0083 142.769 38.6792 143.261 39.5375V37.2H145.686V50H143.261V47.6C142.703 48.4833 141.986 49.1708 141.111 49.6625C140.236 50.1542 139.269 50.4 138.211 50.4ZM138.861 48.3125C139.736 48.3125 140.507 48.1125 141.174 47.7125C141.849 47.3042 142.378 46.7458 142.761 46.0375C143.144 45.3292 143.336 44.5167 143.336 43.6C143.336 42.6833 143.144 41.8708 142.761 41.1625C142.378 40.4542 141.849 39.9 141.174 39.5C140.507 39.0917 139.736 38.8875 138.861 38.8875C137.994 38.8875 137.224 39.0917 136.549 39.5C135.874 39.9 135.34 40.4542 134.949 41.1625C134.565 41.8708 134.374 42.6833 134.374 43.6C134.374 44.5083 134.565 45.3208 134.949 46.0375C135.34 46.7458 135.874 47.3042 136.549 47.7125C137.224 48.1125 137.994 48.3125 138.861 48.3125ZM150.804 50V37.2H153.229V39.075C153.654 38.3333 154.195 37.7708 154.854 37.3875C155.512 36.9958 156.258 36.8 157.091 36.8C157.491 36.8 157.895 36.85 158.304 36.95C158.72 37.0417 159.079 37.1667 159.379 37.325L158.379 39.375C158.12 39.2333 157.82 39.1208 157.479 39.0375C157.137 38.9542 156.816 38.9125 156.516 38.9125C155.958 38.9125 155.425 39.0583 154.916 39.35C154.416 39.6333 154.008 40.0042 153.691 40.4625C153.383 40.9208 153.229 41.4125 153.229 41.9375V50H150.804ZM174.32 50.4C173.128 50.4 172.049 50.1083 171.082 49.525C170.124 48.9333 169.361 48.125 168.795 47.1C168.236 46.075 167.957 44.9042 167.957 43.5875C167.957 42.2875 168.232 41.1292 168.782 40.1125C169.332 39.0875 170.086 38.2792 171.045 37.6875C172.003 37.0958 173.095 36.8 174.32 36.8C175.403 36.8 176.39 37.0417 177.282 37.525C178.182 38.0083 178.878 38.6792 179.37 39.5375V37.2H181.795V50H179.37V47.6C178.811 48.4833 178.095 49.1708 177.22 49.6625C176.345 50.1542 175.378 50.4 174.32 50.4ZM174.97 48.3125C175.845 48.3125 176.615 48.1125 177.282 47.7125C177.957 47.3042 178.486 46.7458 178.87 46.0375C179.253 45.3292 179.445 44.5167 179.445 43.6C179.445 42.6833 179.253 41.8708 178.87 41.1625C178.486 40.4542 177.957 39.9 177.282 39.5C176.615 39.0917 175.845 38.8875 174.97 38.8875C174.103 38.8875 173.332 39.0917 172.657 39.5C171.982 39.9 171.449 40.4542 171.057 41.1625C170.674 41.8708 170.482 42.6833 170.482 43.6C170.482 44.5083 170.674 45.3208 171.057 46.0375C171.449 46.7458 171.982 47.3042 172.657 47.7125C173.332 48.1125 174.103 48.3125 174.97 48.3125ZM193.1 50.4C191.741 50.4 190.516 50.1125 189.425 49.5375C188.341 48.9625 187.479 48.1625 186.837 47.1375C186.204 46.1125 185.887 44.9333 185.887 43.6C185.887 42.2583 186.204 41.0792 186.837 40.0625C187.479 39.0375 188.341 38.2375 189.425 37.6625C190.516 37.0875 191.741 36.8 193.1 36.8C194.458 36.8 195.679 37.0875 196.762 37.6625C197.854 38.2375 198.716 39.0375 199.35 40.0625C199.991 41.0792 200.312 42.2583 200.312 43.6C200.312 44.9333 199.991 46.1125 199.35 47.1375C198.716 48.1625 197.854 48.9625 196.762 49.5375C195.679 50.1125 194.458 50.4 193.1 50.4ZM193.112 48.2875C194.004 48.2875 194.804 48.0875 195.512 47.6875C196.22 47.2875 196.779 46.7333 197.187 46.025C197.595 45.3167 197.8 44.5083 197.8 43.6C197.8 42.6833 197.595 41.875 197.187 41.175C196.779 40.4667 196.22 39.9125 195.512 39.5125C194.804 39.1125 194.004 38.9125 193.112 38.9125C192.212 38.9125 191.408 39.1125 190.7 39.5125C189.991 39.9125 189.433 40.4667 189.025 41.175C188.616 41.875 188.412 42.6833 188.412 43.6C188.412 44.5083 188.616 45.3167 189.025 46.025C189.433 46.7333 189.991 47.2875 190.7 47.6875C191.408 48.0875 192.212 48.2875 193.112 48.2875ZM211.573 50V29.375H217.423C218.773 29.375 219.948 29.6083 220.948 30.075C221.948 30.5417 222.723 31.2167 223.273 32.1C223.831 32.9833 224.111 34.0583 224.111 35.325C224.111 36.575 223.831 37.6667 223.273 38.6C222.723 39.525 221.948 40.2417 220.948 40.75C219.948 41.2583 218.773 41.5125 217.423 41.5125H214.111V50H211.573ZM214.111 39.425H216.736C217.669 39.425 218.49 39.2667 219.198 38.95C219.915 38.6333 220.473 38.175 220.873 37.575C221.281 36.975 221.486 36.2458 221.486 35.3875C221.486 34.5208 221.281 33.7958 220.873 33.2125C220.473 32.6208 219.915 32.175 219.198 31.875C218.49 31.575 217.669 31.425 216.736 31.425H214.111V39.425ZM232.645 50.4C231.453 50.4 230.374 50.1083 229.407 49.525C228.449 48.9333 227.686 48.125 227.12 47.1C226.561 46.075 226.282 44.9042 226.282 43.5875C226.282 42.2875 226.557 41.1292 227.107 40.1125C227.657 39.0875 228.411 38.2792 229.37 37.6875C230.328 37.0958 231.42 36.8 232.645 36.8C233.728 36.8 234.716 37.0417 235.607 37.525C236.507 38.0083 237.203 38.6792 237.695 39.5375V37.2H240.12V50H237.695V47.6C237.136 48.4833 236.42 49.1708 235.545 49.6625C234.67 50.1542 233.703 50.4 232.645 50.4ZM233.295 48.3125C234.17 48.3125 234.941 48.1125 235.607 47.7125C236.282 47.3042 236.811 46.7458 237.195 46.0375C237.578 45.3292 237.77 44.5167 237.77 43.6C237.77 42.6833 237.578 41.8708 237.195 41.1625C236.811 40.4542 236.282 39.9 235.607 39.5C234.941 39.0917 234.17 38.8875 233.295 38.8875C232.428 38.8875 231.657 39.0917 230.982 39.5C230.307 39.9 229.774 40.4542 229.382 41.1625C228.999 41.8708 228.807 42.6833 228.807 43.6C228.807 44.5083 228.999 45.3208 229.382 46.0375C229.774 46.7458 230.307 47.3042 230.982 47.7125C231.657 48.1125 232.428 48.3125 233.295 48.3125ZM250.65 50.4C249.466 50.4 248.391 50.1083 247.425 49.525C246.466 48.9417 245.704 48.1375 245.137 47.1125C244.579 46.0875 244.3 44.9167 244.3 43.6C244.3 42.2917 244.575 41.1292 245.125 40.1125C245.683 39.0875 246.441 38.2792 247.4 37.6875C248.366 37.0958 249.466 36.8 250.7 36.8C251.766 36.8 252.737 37.0417 253.612 37.525C254.496 38.0083 255.196 38.6792 255.712 39.5375V28.4875H258.137V50H255.712V47.6C255.162 48.475 254.446 49.1625 253.562 49.6625C252.679 50.1542 251.708 50.4 250.65 50.4ZM251.3 48.3125C252.175 48.3125 252.95 48.1125 253.625 47.7125C254.3 47.3042 254.829 46.7458 255.212 46.0375C255.596 45.3292 255.787 44.5208 255.787 43.6125C255.787 42.6958 255.596 41.8833 255.212 41.175C254.829 40.4583 254.3 39.9 253.625 39.5C252.95 39.0917 252.179 38.8875 251.312 38.8875C250.446 38.8875 249.675 39.0917 249 39.5C248.325 39.9 247.791 40.4583 247.4 41.175C247.016 41.8833 246.825 42.6958 246.825 43.6125C246.825 44.5208 247.016 45.3292 247.4 46.0375C247.783 46.7458 248.312 47.3042 248.987 47.7125C249.662 48.1125 250.433 48.3125 251.3 48.3125ZM263.255 50V37.2H265.68V39.075C266.105 38.3333 266.647 37.7708 267.305 37.3875C267.963 36.9958 268.709 36.8 269.542 36.8C269.942 36.8 270.347 36.85 270.755 36.95C271.172 37.0417 271.53 37.1667 271.83 37.325L270.83 39.375C270.572 39.2333 270.272 39.1208 269.93 39.0375C269.588 38.9542 269.267 38.9125 268.967 38.9125C268.409 38.9125 267.876 39.0583 267.367 39.35C266.867 39.6333 266.459 40.0042 266.142 40.4625C265.834 40.9208 265.68 41.4125 265.68 41.9375V50H263.255ZM280.252 50.4C279.06 50.4 277.981 50.1083 277.015 49.525C276.056 48.9333 275.294 48.125 274.727 47.1C274.169 46.075 273.89 44.9042 273.89 43.5875C273.89 42.2875 274.165 41.1292 274.715 40.1125C275.265 39.0875 276.019 38.2792 276.977 37.6875C277.935 37.0958 279.027 36.8 280.252 36.8C281.335 36.8 282.323 37.0417 283.215 37.525C284.115 38.0083 284.81 38.6792 285.302 39.5375V37.2H287.727V50H285.302V47.6C284.744 48.4833 284.027 49.1708 283.152 49.6625C282.277 50.1542 281.31 50.4 280.252 50.4ZM280.902 48.3125C281.777 48.3125 282.548 48.1125 283.215 47.7125C283.89 47.3042 284.419 46.7458 284.802 46.0375C285.185 45.3292 285.377 44.5167 285.377 43.6C285.377 42.6833 285.185 41.8708 284.802 41.1625C284.419 40.4542 283.89 39.9 283.215 39.5C282.548 39.0917 281.777 38.8875 280.902 38.8875C280.035 38.8875 279.265 39.0917 278.59 39.5C277.915 39.9 277.381 40.4542 276.99 41.1625C276.606 41.8708 276.415 42.6833 276.415 43.6C276.415 44.5083 276.606 45.3208 276.99 46.0375C277.381 46.7458 277.915 47.3042 278.59 47.7125C279.265 48.1125 280.035 48.3125 280.902 48.3125ZM284.277 34.125C283.769 34.125 283.306 34.025 282.89 33.825C282.473 33.6167 282.073 33.3792 281.69 33.1125C281.306 32.8458 280.915 32.6125 280.515 32.4125C280.123 32.2042 279.69 32.1 279.215 32.1C278.581 32.1 278.052 32.2958 277.627 32.6875C277.21 33.0792 276.885 33.5208 276.652 34.0125L275.377 32.8875C275.777 32.1458 276.306 31.5208 276.965 31.0125C277.623 30.4958 278.36 30.2375 279.177 30.2375C279.727 30.2375 280.227 30.3417 280.677 30.55C281.135 30.75 281.565 30.9833 281.965 31.25C282.373 31.5167 282.773 31.7542 283.165 31.9625C283.556 32.1625 283.956 32.2625 284.365 32.2625C284.881 32.2625 285.36 32.0833 285.802 31.725C286.252 31.3667 286.606 30.9083 286.865 30.35L288.127 31.475C287.844 32.0083 287.49 32.475 287.065 32.875C286.64 33.275 286.185 33.5833 285.702 33.8C285.219 34.0167 284.744 34.125 284.277 34.125ZM299.032 50.4C297.674 50.4 296.449 50.1125 295.357 49.5375C294.274 48.9625 293.411 48.1625 292.77 47.1375C292.136 46.1125 291.82 44.9333 291.82 43.6C291.82 42.2583 292.136 41.0792 292.77 40.0625C293.411 39.0375 294.274 38.2375 295.357 37.6625C296.449 37.0875 297.674 36.8 299.032 36.8C300.391 36.8 301.611 37.0875 302.695 37.6625C303.786 38.2375 304.649 39.0375 305.282 40.0625C305.924 41.0792 306.245 42.2583 306.245 43.6C306.245 44.9333 305.924 46.1125 305.282 47.1375C304.649 48.1625 303.786 48.9625 302.695 49.5375C301.611 50.1125 300.391 50.4 299.032 50.4ZM299.045 48.2875C299.936 48.2875 300.736 48.0875 301.445 47.6875C302.153 47.2875 302.711 46.7333 303.12 46.025C303.528 45.3167 303.732 44.5083 303.732 43.6C303.732 42.6833 303.528 41.875 303.12 41.175C302.711 40.4667 302.153 39.9125 301.445 39.5125C300.736 39.1125 299.936 38.9125 299.045 38.9125C298.145 38.9125 297.341 39.1125 296.632 39.5125C295.924 39.9125 295.366 40.4667 294.957 41.175C294.549 41.875 294.345 42.6833 294.345 43.6C294.345 44.5083 294.549 45.3167 294.957 46.025C295.366 46.7333 295.924 47.2875 296.632 47.6875C297.341 48.0875 298.145 48.2875 299.045 48.2875Z" fill="white"/>
<path d="M63.0402 31.0998C55.4206 20.8173 39.0201 24.1852 35.9666 36.3333L34.1368 32.876C33.9963 32.6138 33.7559 32.4173 33.4685 32.3299C33.1811 32.2424 32.8703 32.2711 32.6043 32.4096C32.3384 32.5481 32.1392 32.7851 32.0505 33.0684C31.9617 33.3517 31.9908 33.6582 32.1313 33.9204L35.655 40.5055C35.7728 40.721 35.9591 40.8924 36.1853 40.9933C36.4115 41.0942 36.6651 41.119 36.907 41.064C37.0035 41.0364 37.0981 41.0028 37.1903 40.9635L43.8977 37.5006C44.1644 37.3584 44.3629 37.1176 44.4495 36.8311C44.5361 36.5446 44.5037 36.236 44.3595 35.973C44.2152 35.7101 43.9709 35.5144 43.6804 35.429C43.3898 35.3437 43.0767 35.3756 42.81 35.5178L37.938 38.0536C39.6376 26.922 54.3669 23.2301 61.2103 32.418C67.5043 40.6954 61.2613 52.8546 50.7582 52.7653C47.9978 52.7706 45.3088 51.9012 43.0876 50.2854C42.9683 50.1931 42.8313 50.1255 42.6849 50.0864C42.5385 50.0473 42.3856 50.0375 42.2353 50.0578C42.085 50.078 41.9404 50.1278 41.81 50.2042C41.6796 50.2806 41.5661 50.382 41.4762 50.5024C41.3862 50.6228 41.3218 50.7599 41.2866 50.9053C41.2514 51.0508 41.2462 51.2017 41.2712 51.3492C41.2963 51.4967 41.3512 51.6377 41.4325 51.7639C41.5139 51.8901 41.6202 51.9989 41.745 52.0839C44.3531 53.9863 47.5139 55.0087 50.7582 54.9994C63.0968 55.1055 70.4331 40.8239 63.0402 31.0998Z" fill="white"/>
</svg>
