<svg width="60" height="60" viewBox="0 0 60 60" fill="none" xmlns="http://www.w3.org/2000/svg">
<rect x="1" y="1" width="58" height="58" rx="4" stroke="#595E60" stroke-opacity="0.3" stroke-width="2"/>
<path d="M49.7456 26.2104C49.5294 26.5245 49.1983 26.7393 48.8251 26.8077C48.4518 26.876 48.067 26.7924 47.7549 26.575L30.7894 14.7389C30.5497 14.5726 30.2655 14.4836 29.9745 14.4837C29.6835 14.4839 29.3994 14.5731 29.1598 14.7396L12.244 26.5736C11.9323 26.7908 11.548 26.8745 11.1752 26.8064C10.8023 26.7383 10.4716 26.5239 10.2555 26.2103C10.0394 25.8967 9.95558 25.5095 10.0225 25.1337C10.0894 24.7579 10.3015 24.4242 10.6123 24.2058L27.5283 12.3718C28.2472 11.8724 29.0996 11.6047 29.9727 11.6041C30.8459 11.6035 31.6987 11.8699 32.4183 12.3683L49.3838 24.2044C49.6957 24.4221 49.9091 24.7557 49.9769 25.1319C50.0448 25.5081 49.9616 25.8961 49.7456 26.2104ZM43.8294 26.0865L30.7943 17.2968C30.559 17.1378 30.282 17.0529 29.9987 17.0529C29.7154 17.0529 29.4385 17.1378 29.2032 17.2968L16.168 26.0865C15.5815 26.4813 15.1007 27.0158 14.7684 27.6428C14.4361 28.2698 14.2626 28.9697 14.2633 29.6805V42.2796C14.2645 43.4261 14.7171 44.5254 15.5216 45.3361C16.3261 46.1468 17.417 46.6028 18.5548 46.6041H24.2767V37.955C24.2767 36.8081 24.7289 35.7082 25.5337 34.8972C26.3385 34.0861 27.4301 33.6305 28.5682 33.6305H31.4292C32.5674 33.6305 33.6589 34.0861 34.4638 34.8972C35.2686 35.7082 35.7207 36.8081 35.7207 37.955V46.6041H41.4427C42.5805 46.6028 43.6713 46.1468 44.4759 45.3361C45.2804 44.5254 45.7329 43.4261 45.7342 42.2796V29.6805C45.7348 28.9697 45.5613 28.2698 45.229 27.6428C44.8968 27.0158 44.416 26.4813 43.8294 26.0865ZM45.7342 14.8909C45.7342 14.1263 45.4327 13.393 44.8962 12.8523C44.3597 12.3117 43.632 12.0079 42.8732 12.0079H41.4427C40.944 12.009 40.4544 12.142 40.0227 12.3936C39.5911 12.6451 39.2325 13.0064 38.9828 13.4414L45.7342 18.1514V14.8909Z" fill="#595E60"/>
</svg>
