<svg width="37" height="36" viewBox="0 0 37 36" fill="none" xmlns="http://www.w3.org/2000/svg">
<path d="M20.7084 35.6658C21.0068 35.8926 21.3768 36 21.7468 36C22.0214 36 22.3078 35.9403 22.5585 35.8091C23.1553 35.4987 23.5372 34.8781 23.5372 34.2096V1.79232C23.5372 1.12393 23.1553 0.503245 22.5585 0.192905C21.9736 -0.105487 21.2455 -0.0576966 20.7084 0.336205L8.10431 9.32375H1.79035C0.799667 9.32375 0 10.1354 0 11.1141V24.8879C0 25.8666 0.799667 26.6782 1.79035 26.6782H8.10431L20.7084 35.6658Z" fill="#092948"/>
<path d="M36.4762 13.2949C35.7769 12.5955 34.6439 12.5955 33.9446 13.2949L31.7702 15.4691L29.5957 13.2949C28.8964 12.5955 27.7634 12.5955 27.0641 13.2949C26.3647 13.9943 26.3647 15.1278 27.0641 15.8266L29.2384 18.0007L27.0641 20.1748C26.3647 20.8742 26.3647 22.0071 27.0641 22.7065C27.4138 23.0562 27.8718 23.231 28.3299 23.231C28.788 23.231 29.2461 23.0562 29.5957 22.7065L31.7702 20.5323L33.9446 22.7065C34.2943 23.0562 34.7523 23.231 35.2104 23.231C35.6685 23.231 36.1266 23.0562 36.4763 22.7065C37.1756 22.0071 37.1756 20.8742 36.4763 20.1748L34.3019 18.0007L36.4763 15.8266C37.1756 15.1278 37.1756 13.9943 36.4762 13.2949Z" fill="#092948"/>
</svg>
