<svg width="230" height="230" viewBox="0 0 230 230" fill="none" xmlns="http://www.w3.org/2000/svg">
<path d="M229.655 146.239C231.873 138.805 222.928 133.563 216.015 137.084C213.891 138.166 211.72 139.167 209.506 140.084C192.781 147.011 174.377 148.824 156.622 145.292C138.867 141.76 122.558 133.043 109.757 120.242C96.9566 107.442 88.2393 91.1327 84.7077 73.3776C81.1761 55.6224 82.9889 37.2185 89.9163 20.4935C90.8335 18.2799 91.8346 16.1087 92.9164 13.9843C96.4365 7.07164 91.1948 -1.87228 83.761 0.344419C72.5901 3.67549 61.9175 8.67154 52.1195 15.2184C32.8344 28.1046 17.8031 46.4196 8.92704 67.8483C0.0510217 89.2773 -2.27169 112.857 2.25341 135.606C6.77823 158.355 17.9472 179.251 34.3482 195.652C50.7491 212.052 71.6454 223.221 94.394 227.748C117.143 232.272 140.722 229.95 162.151 221.073C183.579 212.197 201.895 197.166 214.781 177.881C221.328 168.083 226.325 157.41 229.655 146.239Z" fill="url(#paint0_linear_41_1111)"/>
<path fill-rule="evenodd" clip-rule="evenodd" d="M207.158 80.0218C205.549 80.8291 204.245 82.1353 203.44 83.7453L198.206 94.2137C197.438 95.7499 195.245 95.7499 194.477 94.2137L189.242 83.7453C188.438 82.1353 187.133 80.8291 185.525 80.0218L175.052 74.7652C173.517 73.9944 173.52 71.8018 175.058 71.0361L185.508 65.8308C187.127 65.0244 188.44 63.7134 189.249 62.0958L194.477 51.6401C195.245 50.1039 197.438 50.1039 198.206 51.6401L203.434 62.0958C204.242 63.7134 205.555 65.0244 207.174 65.8305L217.625 71.0361C219.162 71.8018 219.166 73.9944 217.631 74.7652L207.158 80.0218Z" fill="url(#paint1_linear_41_1111)"/>
<path fill-rule="evenodd" clip-rule="evenodd" d="M221.283 22.1504C220.077 22.756 219.099 23.7357 218.495 24.9429L214.57 32.7944C213.993 33.9466 212.349 33.9466 211.773 32.7944L207.847 24.9429C207.243 23.7357 206.265 22.756 205.059 22.1504L197.204 18.2079C196.052 17.6301 196.055 15.9856 197.208 15.4111L205.047 11.507C206.26 10.9023 207.245 9.91918 207.852 8.70607L211.773 0.864183C212.349 -0.288061 213.993 -0.288061 214.57 0.864183L218.49 8.70607C219.097 9.91918 220.082 10.9023 221.296 11.507L229.134 15.4111C230.286 15.9856 230.289 17.6301 229.139 18.2079L221.283 22.1504Z" fill="url(#paint2_linear_41_1111)"/>
<path fill-rule="evenodd" clip-rule="evenodd" d="M160.928 31.452C159.52 32.1585 158.379 33.3015 157.675 34.7099L153.095 43.8697C152.423 45.2141 150.504 45.2141 149.832 43.8697L145.252 34.7099C144.548 33.3015 143.407 32.1585 141.999 31.452L132.835 26.8525C131.491 26.1782 131.495 24.2597 132.84 23.5893L141.984 19.0348C143.401 18.3294 144.55 17.1822 145.257 15.7668L149.832 6.61815C150.504 5.27377 152.423 5.27377 153.095 6.61815L157.669 15.7668C158.377 17.1822 159.526 18.3291 160.942 19.0348L170.086 23.5893C171.432 24.2597 171.435 26.1782 170.092 26.8525L160.928 31.452Z" fill="url(#paint3_linear_41_1111)"/>
<defs>
<linearGradient id="paint0_linear_41_1111" x1="-2.25238e-05" y1="-2.25238e-05" x2="230" y2="230" gradientUnits="userSpaceOnUse">
<stop stop-color="#038FBC"/>
<stop offset="1" stop-color="#73DBFD"/>
</linearGradient>
<linearGradient id="paint1_linear_41_1111" x1="173.902" y1="50.4878" x2="218.78" y2="95.3658" gradientUnits="userSpaceOnUse">
<stop stop-color="#FFB545"/>
<stop offset="1" stop-color="#FFE39B"/>
</linearGradient>
<linearGradient id="paint2_linear_41_1111" x1="196.342" y1="-1.29184e-07" x2="230" y2="33.6585" gradientUnits="userSpaceOnUse">
<stop stop-color="#FFB545"/>
<stop offset="1" stop-color="#FFE39B"/>
</linearGradient>
<linearGradient id="paint3_linear_41_1111" x1="131.829" y1="5.60979" x2="171.097" y2="44.878" gradientUnits="userSpaceOnUse">
<stop stop-color="#FFB545"/>
<stop offset="1" stop-color="#FFE39B"/>
</linearGradient>
</defs>
</svg>
